<svg width="16" height="12" viewBox="0 0 16 12" fill="none" xmlns="http://www.w3.org/2000/svg">
<path d="M1.45542 1.03042L10.0218 5.84929C10.0688 5.87596 10.1079 5.91463 10.1352 5.96136C10.1624 6.0081 10.1768 6.06122 10.1768 6.1153C10.1768 6.16939 10.1624 6.22251 10.1352 6.26925C10.1079 6.31598 10.0688 6.35465 10.0218 6.38132L1.45542 11.2002C1.4005 11.2308 1.33746 11.2438 1.27491 11.2373C1.21235 11.2309 1.15331 11.2052 1.10584 11.164C1.05836 11.1227 1.02477 11.0678 1.00963 11.0068C0.994486 10.9458 0.998537 10.8815 1.02123 10.8229L2.80812 6.22599C2.83577 6.15479 2.83577 6.07582 2.80812 6.00462L1.02062 1.40773C0.997794 1.349 0.993671 1.28466 1.00881 1.22349C1.02396 1.16233 1.05763 1.10734 1.10521 1.06604C1.1528 1.02474 1.21199 0.999157 1.27468 0.992781C1.33736 0.986404 1.40049 0.999549 1.45542 1.03042Z" stroke="#080E1E" stroke-linecap="round" stroke-linejoin="round"/>
<path d="M5.53887 0.044454L15.8141 5.50818C15.8705 5.53842 15.9175 5.58227 15.9501 5.63526C15.9828 5.68824 16 5.74847 16 5.8098C16 5.87112 15.9828 5.93135 15.9501 5.98434C15.9175 6.03733 15.8705 6.08118 15.8141 6.11141L5.53887 11.5751C5.473 11.6099 5.39739 11.6246 5.32235 11.6173C5.24731 11.6099 5.1765 11.5809 5.11956 11.5341C5.06261 11.4873 5.02232 11.4251 5.00416 11.3559C4.98599 11.2867 4.99085 11.2138 5.01807 11.1473L7.16143 5.9353C7.19459 5.85457 7.19459 5.76503 7.16143 5.6843L5.01734 0.472261C4.98996 0.405671 4.98502 0.332713 5.00318 0.263365C5.02134 0.194018 5.06173 0.131668 5.11881 0.0848442C5.17589 0.0380204 5.24689 0.0090095 5.32208 0.00177966C5.39727 -0.00545017 5.47299 0.00945417 5.53887 0.044454Z" fill="#080E1E" fill-opacity="0.8"/>
</svg>
