<svg width="25" height="22" viewBox="0 0 25 22" fill="none" xmlns="http://www.w3.org/2000/svg">
<path d="M19.7079 6.86854C20.0051 6.56234 20.2979 6.25019 20.6019 5.94995C21.4154 5.14461 22.4584 5.14162 23.2705 5.94101C23.6549 6.31947 24.0363 6.70017 24.4141 7.08459C25.1896 7.87354 25.1978 8.92772 24.4178 9.71444C22.9054 11.2387 21.3856 12.7563 19.8628 14.2701C19.7004 14.431 19.623 14.5882 19.6252 14.8251C19.6386 16.117 19.6334 17.4096 19.6312 18.7021C19.6282 20.2517 18.4652 21.4199 16.9186 21.4206C12.1871 21.4229 7.45634 21.4229 2.72484 21.4206C1.16332 21.4199 0.0011175 20.2532 0.0011175 18.6857C-0.000372501 13.3679 -0.000372501 8.05011 0.0011175 2.73229C0.0011175 1.16704 1.16481 0.0011175 2.72782 0.0011175C7.44964 -0.000372501 12.1715 -0.000372501 16.8933 0.0011175C18.4757 0.0011175 19.6289 1.16108 19.6312 2.75017C19.6326 4.02412 19.6312 5.29733 19.6312 6.57128V6.83874C19.6565 6.84917 19.6818 6.8596 19.7071 6.86928L19.7079 6.86854ZM17.8461 16.3748C17.823 16.3606 17.7992 16.3457 17.7761 16.3315C17.6182 16.4999 17.4759 16.6884 17.2978 16.8314C17.0922 16.9968 16.8717 17.1667 16.6295 17.2591C15.7378 17.598 14.8356 17.9087 13.9349 18.2231C13.7702 18.2805 13.5959 18.3326 13.4231 18.3438C12.4516 18.4079 11.7624 17.4848 12.0835 16.5372C12.4046 15.5895 12.7384 14.6456 13.09 13.7091C13.178 13.4745 13.3225 13.2405 13.4983 13.0625C14.8818 11.6596 16.2801 10.2717 17.6703 8.87557C17.7448 8.80107 17.8394 8.69901 17.8409 8.60886C17.8543 7.83108 17.8484 7.05255 17.8484 6.26062H1.78316V6.57352C1.78316 10.5608 1.78316 14.548 1.78316 18.5353C1.78316 19.3086 2.11171 19.6379 2.88427 19.6379C7.50253 19.6379 12.1208 19.6379 16.7391 19.6379C16.8225 19.6379 16.9067 19.6416 16.9901 19.6349C17.4617 19.5969 17.826 19.2646 17.8394 18.7938C17.8618 17.9884 17.8454 17.1816 17.8454 16.3748H17.8461ZM1.7854 4.44505H17.8268C17.8364 4.40929 17.8461 4.39215 17.8461 4.37502C17.8476 3.88257 17.8499 3.39013 17.8499 2.89768C17.8499 2.10724 17.525 1.78391 16.7324 1.78391C12.123 1.78391 7.51445 1.78391 2.90513 1.78391C2.82169 1.78391 2.73751 1.78018 2.65407 1.78614C2.17131 1.81892 1.80626 2.16162 1.79061 2.64364C1.77124 3.23666 1.78614 3.83117 1.78614 4.44579L1.7854 4.44505ZM14.0816 16.263C14.6903 16.0484 15.2409 15.8629 15.7832 15.6588C15.9337 15.6022 16.0835 15.5105 16.1974 15.3973C18.4615 13.1414 20.7203 10.8804 22.9799 8.62004C23.05 8.55 23.1163 8.47625 23.1714 8.41814C22.7482 7.99423 22.3422 7.58821 21.9295 7.17473C21.8915 7.20826 21.8408 7.24849 21.7954 7.29393C19.4956 9.59301 17.1965 11.8921 14.8989 14.1934C14.8348 14.2575 14.7678 14.332 14.738 14.4147C14.5227 15.0062 14.3163 15.6007 14.0831 16.263H14.0816Z" fill="white" fill-opacity="0.75"/>
<path d="M9.8266 8.03387C11.6116 8.03387 13.3959 8.03163 15.1809 8.03536C15.619 8.0361 15.9982 8.36912 16.0563 8.78334C16.1189 9.23109 15.8619 9.64754 15.4312 9.77792C15.3269 9.80921 15.2122 9.81517 15.102 9.81591C11.5788 9.8174 8.05573 9.81815 4.53262 9.8174C3.96419 9.8174 3.57008 9.45086 3.56934 8.92787C3.56859 8.40115 3.95823 8.03536 4.52741 8.03536C6.29381 8.03387 8.0602 8.03536 9.82586 8.03536L9.8266 8.03387Z" fill="white" fill-opacity="0.75"/>
<path d="M8.00631 13.3873C6.82549 13.3873 5.64541 13.3896 4.46458 13.3859C4.01013 13.3844 3.62422 13.0484 3.57356 12.6245C3.51917 12.1715 3.77918 11.7618 4.21053 11.6381C4.30664 11.6105 4.41168 11.606 4.513 11.606C6.85529 11.6046 9.19831 11.6038 11.5406 11.6053C12.1031 11.6053 12.4957 11.98 12.492 12.506C12.4882 13.0163 12.0956 13.3859 11.548 13.3873C10.3672 13.3896 9.18714 13.3873 8.00631 13.3873Z" fill="white" fill-opacity="0.75"/>
<path d="M7.11061 16.9589C6.24641 16.9589 5.38146 16.9604 4.51726 16.9589C3.95553 16.9575 3.56515 16.582 3.57036 16.0538C3.57558 15.5419 3.96521 15.1776 4.51652 15.1769C6.26429 15.1754 8.01132 15.1754 9.75909 15.1769C10.3201 15.1769 10.7119 15.5546 10.7067 16.0813C10.7015 16.5909 10.3082 16.9575 9.75983 16.9589C8.87701 16.9612 7.99344 16.9589 7.11061 16.9589Z" fill="white" fill-opacity="0.75"/>
</svg>
