<svg width="10" height="15" viewBox="0 0 10 15" fill="none" xmlns="http://www.w3.org/2000/svg">
<path d="M4.6232 1.74619e-06C7.18573 0.00223796 9.23397 2.16018 9.23054 4.85303C9.22712 7.5016 7.15105 9.64389 4.59151 9.64032C2.03925 9.63674 -0.00384864 7.46985 5.44377e-06 4.76984C0.0034313 2.14364 2.08335 -0.00223447 4.6232 1.74619e-06ZM2.84818 6.57134C2.83747 7.06151 3.22759 7.31957 3.60101 7.12323C3.89606 6.96804 4.1864 6.80256 4.47417 6.63306C4.57224 6.57536 4.64846 6.56821 4.75081 6.62903C5.05186 6.80748 5.3589 6.9752 5.6668 7.14157C5.85479 7.24309 6.04236 7.22386 6.20765 7.08835C6.37167 6.95418 6.43419 6.77349 6.39522 6.55434C6.33527 6.21533 6.28217 5.87453 6.22393 5.53508C6.20423 5.42103 6.20937 5.33069 6.30529 5.2399C6.54296 5.01583 6.76393 4.77297 6.9956 4.5422C7.16132 4.37716 7.23155 4.1844 7.1609 3.95363C7.08724 3.71301 6.90867 3.6097 6.67871 3.57839C6.36182 3.53501 6.04578 3.48447 5.72889 3.4393C5.6274 3.42499 5.56102 3.3825 5.51477 3.27561C5.38202 2.96611 5.233 2.66423 5.09382 2.35742C4.99619 2.14185 4.84074 2.00946 4.60949 2.00991C4.37825 2.00991 4.22494 2.14364 4.1273 2.3601C3.98641 2.67228 3.83439 2.97864 3.69693 3.29215C3.65582 3.38608 3.59887 3.42588 3.50722 3.43885C3.19033 3.48357 2.87473 3.53635 2.55741 3.57705C2.32616 3.60657 2.14759 3.7072 2.07136 3.94602C1.99813 4.17546 2.06408 4.37001 2.23024 4.53594C2.45035 4.75553 2.65761 4.98989 2.88672 5.19785C3.01519 5.31459 3.02975 5.43355 3.00148 5.59232C2.94067 5.9367 2.89228 6.28376 2.84818 6.57044V6.57134Z" fill="black"/>
<path d="M1.03473 9.41064C3.42812 11.1576 5.8048 11.1603 8.1969 9.41199C8.19905 9.44463 8.20504 9.4907 8.20504 9.53721C8.20547 11.1603 8.2059 12.7833 8.20504 14.4063C8.20504 14.8965 7.82177 15.1389 7.40253 14.9113C6.51781 14.4314 5.63394 13.9502 4.75264 13.4636C4.64986 13.4068 4.57492 13.413 4.47514 13.468C3.59384 13.9533 2.70954 14.4332 1.82567 14.9135C1.56145 15.0571 1.30623 15.0222 1.14864 14.8039C1.08526 14.7158 1.03173 14.5937 1.0313 14.4868C1.02445 12.8025 1.02659 11.1182 1.02702 9.4339C1.02702 9.42406 1.03302 9.41422 1.0343 9.41109L1.03473 9.41064Z" fill="black"/>
<path d="M4.61441 3.75391C4.77071 4.25348 5.05806 4.52629 5.58949 4.47576C5.1694 4.78346 5.04178 5.16004 5.21607 5.66184C4.81354 5.35951 4.42599 5.33938 4.01959 5.66855C4.20673 5.16272 4.05599 4.79017 3.64746 4.48604C4.14635 4.48783 4.47138 4.26779 4.61441 3.75391Z" fill="black"/>
</svg>
