<svg width="22" height="30" viewBox="0 0 22 30" fill="none" xmlns="http://www.w3.org/2000/svg">
<path d="M5.26673 30C4.46782 30 3.8545 29.3602 3.83837 28.5125C3.8303 28.0878 3.83272 27.6551 3.83433 27.2361C3.83514 27.0468 3.83594 26.8576 3.83594 26.6683V24.7626C3.83594 21.9534 3.83594 19.048 3.83998 16.1902C3.83998 15.916 3.7617 15.7082 3.58336 15.5148C2.64967 14.5005 1.70872 13.4611 0.797633 12.4565L0.448207 12.0715C-0.102159 11.4649 -0.146543 10.7895 0.319896 10.1189C0.596693 9.72094 0.882367 9.31974 1.15836 8.93149C1.50294 8.44779 1.85882 7.9471 2.20179 7.44884C2.32123 7.27493 2.3987 7.03632 2.40838 6.80984C2.42291 6.4693 2.42049 6.12392 2.41887 5.78986C2.41726 5.58602 2.41645 5.37572 2.41887 5.16946C2.4334 3.98609 3.21053 3.21686 4.39922 3.20958C4.44361 3.20958 4.77689 3.20958 4.77689 3.20958H4.93264L4.93829 3.05347C4.99801 1.41794 5.7703 0.417374 7.23498 0.0800776C7.46578 0.0266925 7.69416 0 7.91446 0C8.74647 0 9.48164 0.388255 10.0401 1.12351C10.8116 2.13945 10.8479 3.2759 10.1482 4.50133L10.0651 4.64612L10.2128 4.72458C10.2281 4.73267 10.2434 4.74157 10.258 4.74966C10.2951 4.77069 10.337 4.79495 10.3847 4.81275C11.0504 5.06026 11.5088 5.51646 11.7872 6.20642C12.2577 7.37361 12.7193 8.51816 13.201 9.67807C13.2745 9.8544 13.4004 10.0235 13.5472 10.1407C14.2703 10.7199 15.0119 11.3023 15.7285 11.8644L16.3725 12.37C17.1149 12.954 17.2182 13.2808 16.9535 14.2085L16.8946 14.4148H18.5861C18.7346 14.4148 18.8831 14.4148 19.0315 14.4148C19.2067 14.4156 19.4165 14.4633 19.4229 14.6841C19.4294 14.8985 19.201 14.9575 19.0646 14.9737L18.7806 15.0085V16.9757C18.7806 16.9757 19.5286 16.974 19.644 16.974C19.799 16.974 19.9539 16.974 20.1089 16.9765L20.2501 16.9781C20.4672 16.9797 20.6907 16.9813 20.9029 17.0096C21.3347 17.0671 21.6341 17.3938 21.6664 17.8428C21.6688 17.8767 21.6688 17.9115 21.6688 17.9463V20.4206C21.6688 22.9799 21.6696 25.5383 21.6672 28.0975C21.6672 28.6799 21.3258 29.0253 20.7319 29.0447C20.6867 29.0463 20.6415 29.0463 20.5955 29.0463C20.5559 29.0463 20.3897 29.0447 20.3461 29.0447H20.2089L20.1871 29.1806C20.171 29.2777 20.1686 29.378 20.1654 29.4742C20.1541 29.835 20.1282 29.9199 19.895 29.9232H19.8837C19.6416 29.9232 19.6069 29.8277 19.5988 29.4459C19.5972 29.3683 19.5956 29.2874 19.5867 29.2105L19.5714 29.0666H15.187L15.1661 29.2041C15.1523 29.2922 15.1499 29.3845 15.1483 29.4742C15.1386 29.8326 15.1112 29.924 14.8739 29.924H14.8626C14.6238 29.9199 14.5947 29.8245 14.5834 29.4484C14.581 29.3626 14.5778 29.2736 14.5673 29.1863L14.5495 29.0447H14.4075C14.3502 29.0447 14.2945 29.0447 14.2396 29.0455C14.1864 29.0455 14.1339 29.0463 14.0815 29.0463C14.0209 29.0463 13.9604 29.0463 13.8999 29.0439C13.3164 29.0237 12.9646 28.6678 12.9589 28.0911C12.9525 27.4739 12.9541 26.8462 12.9557 26.2388C12.9557 25.9783 12.9565 25.7187 12.9565 25.4582V23.7022C12.9565 21.8345 12.9565 19.9676 12.9565 18.1C12.9565 17.3194 13.2898 16.9829 14.0702 16.9765C14.3663 16.974 14.6633 16.9724 14.9595 16.9716C15.1766 16.9708 15.3928 16.97 15.6099 16.9684C15.6551 16.9684 15.6882 16.9538 15.7148 16.9417C15.7237 16.9376 15.7342 16.9336 15.7471 16.9279L15.852 16.8883V14.9964L15.7003 14.9875C15.664 14.985 15.6285 14.9842 15.5922 14.9826C15.5195 14.9802 15.4509 14.9769 15.3856 14.9672C15.2226 14.943 15.1427 14.8718 15.1007 14.7133C15.0612 14.5636 14.9627 14.363 14.807 14.2498C13.8394 13.5444 12.9525 12.9135 12.0963 12.3206C11.6758 12.0294 11.3805 11.68 11.1908 11.2513C11.073 10.9836 10.9415 10.7175 10.814 10.4594C10.7567 10.3438 10.6994 10.2273 10.6429 10.1092L10.3362 10.1796C10.3362 10.381 10.3346 10.5808 10.3338 10.7781C10.3306 11.2206 10.3282 11.638 10.3395 12.065C10.3508 12.4986 10.3701 12.9378 10.3895 13.3633C10.4177 14.0079 10.4476 14.6744 10.45 15.3288C10.4581 18.087 10.4581 20.8922 10.4573 23.6043C10.4573 25.1961 10.4573 26.788 10.4573 28.3798C10.4573 28.8571 10.3677 29.1758 10.1555 29.4443C9.87948 29.7954 9.4663 29.996 9.02246 29.996C8.87801 29.996 8.73436 29.9741 8.59556 29.9312C8.02179 29.7549 7.62637 29.2235 7.58683 28.578C7.58198 28.502 7.58279 28.4243 7.5836 28.3426V28.2553V17.9592V17.8937C7.5836 17.8468 7.58279 17.7999 7.5836 17.753C7.5957 17.3793 7.79745 17.3793 7.86362 17.3793C7.94836 17.3793 8.13719 17.3817 8.13719 17.757C8.13719 19.0366 8.13719 20.3163 8.13719 21.5959C8.13719 23.8494 8.13719 26.1029 8.13961 28.3556C8.13961 28.5068 8.14688 28.684 8.19933 28.8506C8.31473 29.213 8.63107 29.4378 9.02488 29.4378H9.05151C9.44693 29.4273 9.7665 29.1758 9.86576 28.7972C9.90853 28.633 9.91418 28.4656 9.91418 28.3378C9.91418 27.228 9.9166 26.1183 9.91741 25.0085C9.92144 21.841 9.92629 18.5659 9.90692 15.345C9.89966 14.0864 9.83832 12.8084 9.77941 11.5724C9.75924 11.1437 9.73826 10.7158 9.7197 10.2871C9.71243 10.1092 9.66321 9.91102 9.57121 9.68212C9.40416 9.26879 9.23792 8.89509 9.06442 8.53919C8.67626 7.7465 8.62865 6.9619 8.91755 6.14171C8.94499 6.06244 8.96678 5.9856 8.99341 5.88854C9.00713 5.8392 9.02165 5.785 9.03941 5.72272L9.12333 5.43315L8.83604 5.52374C8.43981 5.64911 8.09281 5.70978 7.77485 5.70978C7.52792 5.70978 7.29712 5.67419 7.06955 5.60058C6.80405 5.51484 6.54904 5.42668 6.34003 5.28674C6.16249 5.16784 5.9906 5.1096 5.81307 5.1096C5.71058 5.1096 5.60648 5.1282 5.4935 5.16703C5.37164 5.20909 5.2401 5.23902 5.1126 5.26814C5.05288 5.28189 4.99236 5.29564 4.93345 5.3102L4.79868 5.34417L4.8124 5.4833C4.81321 5.49543 4.81401 5.50594 4.81401 5.51403C4.81401 5.54881 4.81563 5.60705 4.86163 5.65882C5.95106 6.90366 6.07856 8.358 5.2627 10.2362C5.15134 10.4926 4.9738 10.7353 4.80191 10.9698L4.74703 11.0442C4.68893 11.1243 4.59532 11.2198 4.48557 11.2198C4.43392 11.2198 4.37905 11.1987 4.32417 11.1583C4.26365 11.1138 4.22814 11.0588 4.21926 10.9957C4.20716 10.9084 4.24509 10.8024 4.32659 10.6964C5.09162 9.70234 5.36761 8.5675 5.14811 7.32266C5.04562 6.74189 4.74945 6.2679 4.24186 5.87236L4.11436 5.77287L4.0151 5.90067C3.97152 5.95648 3.92955 6.00906 3.88921 6.06083C3.80366 6.16841 3.72297 6.26951 3.64711 6.37628C2.71262 7.69069 1.78054 9.00671 0.848473 10.3227C0.437716 10.9027 0.457891 11.257 0.933207 11.7803C1.86931 12.81 2.80461 13.8397 3.73991 14.8702C3.77058 14.9041 3.80044 14.943 3.83837 14.9923C3.86015 15.0206 3.88517 15.053 3.91422 15.0894L4.05867 15.2714L4.17891 15.0716C4.2346 14.9786 4.28866 14.8896 4.34193 14.803C4.49041 14.5604 4.63083 14.3307 4.75349 14.092C4.83742 13.9287 4.69297 13.707 4.63002 13.635C4.06916 12.9952 3.49378 12.3489 2.93696 11.7245L2.56171 11.3031C2.28168 10.9884 2.28088 10.9359 2.54638 10.5978L2.80381 10.2694C3.12822 9.85521 3.45343 9.44188 3.78026 9.03017C3.84886 8.94362 3.95538 8.84009 4.07078 8.84009C4.12162 8.84009 4.17407 8.86112 4.22733 8.90318C4.37017 9.01561 4.36533 9.17253 4.21281 9.36989C3.94892 9.71043 3.68262 10.0493 3.41147 10.3939L2.98134 10.9415L4.72686 12.9079C4.78496 12.9734 4.84307 13.0397 4.90117 13.106C5.04078 13.2662 5.18523 13.4312 5.33614 13.5881C5.50641 13.7653 5.52255 13.9157 5.39182 14.1236C5.1126 14.5701 4.84226 15.0085 4.6042 15.4631C4.47185 15.7154 4.39842 15.9824 4.39761 16.2137C4.38873 19.5495 4.38873 22.9402 4.38954 26.2202V28.2973C4.38954 29.2356 4.86889 29.4354 5.26996 29.4378C5.61051 29.4378 6.16895 29.2906 6.16895 28.3079V17.8783C6.16895 17.8015 6.16895 17.7287 6.17137 17.6559C6.18025 17.4715 6.2561 17.3914 6.43122 17.3801C6.43929 17.3801 6.44736 17.3801 6.45462 17.3801C6.6023 17.3801 6.68623 17.4747 6.70237 17.6624C6.70721 17.7133 6.7064 17.7667 6.7064 17.8233V20.2904C6.7064 22.9928 6.7064 25.696 6.7064 28.3984C6.7064 29.2025 6.3255 29.7662 5.66135 29.9442C5.52901 29.9798 5.39424 29.9976 5.2627 29.9976L5.26673 30ZM17.052 28.5101C18.2245 28.5101 19.3979 28.5101 20.5705 28.5133C20.706 28.5133 20.8715 28.4987 20.9869 28.3823C21.1047 28.2634 21.1168 28.087 21.116 27.9657C21.1055 26.7427 21.1071 25.4987 21.1079 24.2951C21.1079 23.8745 21.1087 23.4539 21.1087 23.0332V21.6735C21.1087 20.4821 21.1087 19.2906 21.1087 18.0992C21.1087 17.6219 21.0167 17.5322 20.5325 17.5313C19.4609 17.5313 18.3892 17.5313 17.3167 17.5313C16.2442 17.5313 15.1733 17.5313 14.1008 17.5313C13.6062 17.5313 13.5125 17.6252 13.5125 18.1194C13.5125 21.3888 13.5125 24.6574 13.5125 27.9269C13.5125 28.4057 13.6134 28.5093 14.079 28.5093C14.6464 28.5093 15.2129 28.5093 15.7802 28.5093H17.0512L17.052 28.5101ZM16.4233 15.5011C16.4233 15.8991 16.4217 16.2744 16.4298 16.6553C16.4322 16.7848 16.5751 16.9627 16.7179 16.9668C16.9753 16.974 17.2336 16.9748 17.4305 16.9748H18.1794V14.9858H16.425V15.5011H16.4233ZM9.94565 7.67694C10.0247 7.67694 10.0982 7.70444 10.262 8.04659C10.383 8.29977 10.5097 8.55537 10.6332 8.80207C10.881 9.29871 11.1368 9.81234 11.349 10.33C11.6944 11.1704 12.2375 11.8151 13.0098 12.302C13.6078 12.679 14.192 13.1052 14.7561 13.5169C14.9942 13.6909 15.2322 13.8648 15.4719 14.0354C15.6204 14.1414 15.7737 14.1972 15.9166 14.1972C16.0594 14.1972 16.1869 14.1422 16.2886 14.0387C16.4346 13.889 16.525 13.6229 16.5097 13.3924C16.4968 13.2047 16.3273 13.0454 16.1627 12.9143C15.7423 12.5795 15.3194 12.247 14.8973 11.9146C14.3082 11.4511 13.6998 10.9723 13.1066 10.4942C12.9565 10.3729 12.8226 10.1957 12.7483 10.0194C12.3585 9.09164 11.9744 8.14285 11.6032 7.22559C11.4902 6.94572 11.3764 6.66505 11.2635 6.38518C11.0165 5.77692 10.5759 5.40807 9.91499 5.25762L9.75763 5.22203L9.72212 5.37976C9.67451 5.58926 9.60591 5.79875 9.53893 6.00178C9.36624 6.52673 9.18708 7.07029 9.34929 7.68422L9.3969 7.8654L9.56879 7.79099C9.75117 7.71253 9.86738 7.67694 9.94565 7.67694ZM4.38792 3.76769C4.32659 3.76769 4.26365 3.77012 4.19586 3.77416C3.61725 3.81056 3.12015 4.23117 3.01362 4.77311C2.97005 4.99636 2.96117 5.21961 2.95229 5.4558C2.94826 5.56095 2.94422 5.66934 2.93696 5.78096L2.91114 6.16598L3.20327 5.91523C3.32189 5.81331 3.43084 5.71301 3.53655 5.61676C3.76332 5.40969 3.95861 5.23012 4.18053 5.091C4.40971 4.94702 4.66391 4.8451 4.93345 4.73671C5.05046 4.6898 5.17151 4.64127 5.28933 4.5895L5.44427 4.52156L5.36922 4.36949C5.31435 4.25948 5.27642 4.17374 5.24656 4.10499C5.14084 3.86557 5.08678 3.7685 4.81724 3.7685C4.79142 3.7685 4.76317 3.7685 4.73009 3.76931C4.68893 3.76931 4.64051 3.77093 4.58483 3.77093C4.54529 3.77093 4.5009 3.77093 4.45248 3.76931C4.4315 3.76931 4.41052 3.76931 4.38954 3.76931L4.38792 3.76769ZM7.80713 0.566206C6.55146 0.566206 5.52416 1.58942 5.51609 2.84801C5.51206 3.46275 5.74689 4.04109 6.17702 4.47626C6.60634 4.90981 7.1793 5.15004 7.79019 5.15166C9.05474 5.15166 10.0877 4.12926 10.0974 2.87309C10.1022 2.26725 9.86657 1.69134 9.43322 1.25293C8.99825 0.812101 8.42287 0.568632 7.81278 0.567014H7.80633L7.80713 0.566206Z" fill="white"/>
<path d="M19.0868 25.8466C18.997 25.8466 18.811 25.8466 18.8102 25.4454C18.8094 24.8662 18.8094 24.2871 18.8102 23.708V22.303C18.8102 21.7384 18.8102 21.173 18.8102 20.6084C18.8102 20.2056 19.0035 20.2056 19.086 20.2056C19.1556 20.2056 19.3667 20.2056 19.3675 20.6084C19.3691 22.2302 19.3691 23.8576 19.3675 25.4462C19.3675 25.8474 19.1637 25.8474 19.0868 25.8474V25.8466Z" fill="white"/>
<path d="M15.5406 25.8466C15.4646 25.8466 15.264 25.845 15.2632 25.4721C15.2599 23.8293 15.2599 22.1824 15.2632 20.5752C15.2632 20.3301 15.3578 20.2056 15.5422 20.2056C15.6255 20.2056 15.8132 20.2072 15.8148 20.5809C15.8164 21.1689 15.8156 21.757 15.8156 22.3458V23.0601V23.7581C15.8156 24.3316 15.8156 24.9043 15.8148 25.4777C15.814 25.8458 15.6247 25.8458 15.5438 25.8458H15.5406V25.8466Z" fill="white"/>
<path d="M17.3134 25.8458C17.2269 25.8458 17.0473 25.8458 17.0457 25.4729C17.0441 24.8849 17.0441 24.2976 17.0441 23.7096V22.9953V22.2989C17.0441 21.7254 17.0433 21.1519 17.0457 20.5785C17.0473 20.2056 17.2269 20.2056 17.3134 20.2056C17.4008 20.2056 17.5812 20.2056 17.582 20.5785C17.5844 22.2148 17.5844 23.8608 17.582 25.4729C17.582 25.8442 17.4081 25.845 17.315 25.845H17.3142L17.3134 25.8458Z" fill="white"/>
</svg>
