<svg width="30" height="30" viewBox="0 0 30 30" fill="none" xmlns="http://www.w3.org/2000/svg">
<path d="M30 14.375C30 15.4113 29.1612 16.25 28.125 16.25H1.875C0.83875 16.25 0 15.4113 0 14.375C0 13.3387 0.83875 12.5 1.875 12.5H28.125C29.1612 12.5 30 13.3387 30 14.375ZM1.875 10C2.91125 10 3.75 9.16125 3.75 8.125V6.875C3.75 5.1525 5.1525 3.75 6.875 3.75H8.125C9.16125 3.75 10 2.91125 10 1.875C10 0.83875 9.16125 0 8.125 0H6.875C3.08375 0 0 3.08375 0 6.875V8.125C0 9.16125 0.83875 10 1.875 10ZM8.125 26.25H6.875C5.1525 26.25 3.75 24.8475 3.75 23.125V21.875C3.75 20.8388 2.91125 20 1.875 20C0.83875 20 0 20.8388 0 21.875V23.125C0 26.9163 3.08375 30 6.875 30H8.125C9.16125 30 10 29.1612 10 28.125C10 27.0888 9.16125 26.25 8.125 26.25ZM28.125 20C27.0888 20 26.25 20.8388 26.25 21.875V23.125C26.25 24.8475 24.8475 26.25 23.125 26.25H21.875C20.8388 26.25 20 27.0888 20 28.125C20 29.1612 20.8388 30 21.875 30H23.125C26.9163 30 30 26.9163 30 23.125V21.875C30 20.8388 29.1612 20 28.125 20ZM23.125 0H21.875C20.8388 0 20 0.83875 20 1.875C20 2.91125 20.8388 3.75 21.875 3.75H23.125C24.8475 3.75 26.25 5.1525 26.25 6.875V8.125C26.25 9.16125 27.0888 10 28.125 10C29.1612 10 30 9.16125 30 8.125V6.875C30 3.08375 26.9163 0 23.125 0Z" fill="white"/>
</svg>
