<svg width="21" height="21" viewBox="0 0 21 21" fill="none" xmlns="http://www.w3.org/2000/svg">
<path d="M20.3101 18.7646L16.3058 14.6983C19.302 10.6342 18.485 4.87405 14.481 1.83279C10.4769 -1.20847 4.80196 -0.379214 1.80569 3.68496C-1.19059 7.74914 -0.373606 13.5093 3.63047 16.5505C6.84687 18.9935 11.2645 18.9935 14.481 16.5505L18.4871 20.6167C18.9905 21.1277 19.8067 21.1277 20.3101 20.6167C20.8135 20.1057 20.8135 19.2773 20.3101 18.7663L20.3101 18.7646ZM9.08911 15.7657C5.53048 15.7657 2.64567 12.8376 2.64567 9.22554C2.64567 5.61349 5.53048 2.68538 9.08911 2.68538C12.6477 2.68538 15.5325 5.61349 15.5325 9.22554C15.5288 12.836 12.6462 15.7619 9.08911 15.7657Z" fill="#080E1E"/>
</svg>
