<svg width="15" height="12" viewBox="0 0 15 12" fill="none" xmlns="http://www.w3.org/2000/svg">
<path d="M12.5 4.135V4.14813C12.5 4.36063 12.3275 4.53312 12.115 4.53312H11.9175C11.8419 5.33 11.5319 6.24 10.9131 6.94938C11.2519 7.155 11.6581 7.30188 12.1531 7.34875C12.35 7.3675 12.5 7.53375 12.5 7.73188V7.745C12.5 7.97375 12.3025 8.15 12.075 8.12812C11.3644 8.06 10.7881 7.8225 10.32 7.48938C9.84937 7.82562 9.26625 8.06125 8.55 8.12812C8.3225 8.14937 8.12563 7.97312 8.12563 7.74437V7.73125C8.12563 7.53062 8.28063 7.36625 8.48063 7.3475C8.97313 7.30062 9.37937 7.15563 9.71625 6.95063C9.51062 6.715 9.33812 6.45687 9.1975 6.18813C9.06312 5.93125 9.25375 5.62375 9.54313 5.62375C9.68563 5.62375 9.81812 5.70062 9.88375 5.82687C9.99875 6.04688 10.1431 6.25812 10.3162 6.45187C10.8275 5.87687 11.0612 5.13438 11.1306 4.5325H8.51125C8.29875 4.5325 8.12625 4.36 8.12625 4.1475V4.13437C8.12625 3.92187 8.29875 3.74937 8.51125 3.74937H9.92188V3.50937C9.92188 3.29687 10.0944 3.12438 10.3069 3.12438H10.32C10.5325 3.12438 10.705 3.29687 10.705 3.50937V3.74937H12.1156C12.3281 3.74937 12.5006 3.92187 12.5006 4.13437L12.5 4.135ZM3.74125 4C3.7175 4 3.69688 4.01625 3.69187 4.03938L3.185 6.1875H4.28312L3.79125 4.03938C3.78562 4.01625 3.765 4 3.74125 4ZM15 3.4375V7.8125C15 9.70813 13.4575 11.25 11.5625 11.25H3.4375C1.53938 11.25 0 9.71125 0 7.8125V3.4375C0 1.53875 1.53938 0 3.4375 0H11.5625C13.4575 0 15 1.54188 15 3.4375ZM5.5025 7.59L4.65063 3.8725C4.58375 3.5825 4.39875 3.31875 4.12437 3.20375C3.55 2.96313 2.965 3.30063 2.83938 3.84188L1.95625 7.5875C1.89125 7.86188 2.1 8.125 2.38188 8.125C2.58438 8.125 2.76063 7.98563 2.8075 7.78813L2.97875 7.0625H4.48438L4.65 7.78562C4.69562 7.98438 4.8725 8.125 5.07625 8.125H5.0775C5.35812 8.125 5.56625 7.86375 5.50375 7.59H5.5025ZM13.125 3.4375C13.125 2.57625 12.4244 1.875 11.5625 1.875H7.5V9.375H11.5625C12.4244 9.375 13.125 8.67375 13.125 7.8125V3.4375Z" fill="#080E1E"/>
</svg>
