<svg width="30" height="30" viewBox="0 0 30 30" fill="none" xmlns="http://www.w3.org/2000/svg">
<path d="M13.7335 14.596C13.7271 9.65828 12.3546 5.12583 9.58765 1.00493C9.49591 0.868937 9.40144 0.712368 9.38145 0.556694C9.32967 0.155877 9.73299 -0.0991073 10.1754 0.0368842C12.0421 0.611269 13.8043 1.4138 15.4566 2.44C20.4799 5.55975 24.128 9.81753 26.3208 15.2644C27.1301 17.2738 27.6179 19.3638 27.845 21.5137C27.9059 22.0845 27.5998 22.3619 27.0347 22.2241C24.841 21.6882 22.6173 21.4913 20.3655 21.6926C17.9211 21.9109 15.5893 22.5408 13.3756 23.5911C13.3247 23.6153 13.2738 23.6395 13.2239 23.6663C12.9559 23.8103 12.6834 23.9284 12.4072 23.694C12.1184 23.448 12.2228 23.1581 12.3164 22.8629C12.5217 22.2151 12.7324 21.5683 12.9096 20.9134C13.4682 18.8449 13.7389 16.7388 13.7316 14.5978L13.7335 14.596Z" fill="#EFEEEE"/>
<path d="M13.873 25.0411C16.6735 24.9319 18.7219 24.8523 20.7703 24.7736C23.3165 24.6752 25.8635 24.5803 28.4097 24.4774C29.0683 24.4506 29.2981 24.7127 29.1446 25.3515C28.4933 28.0642 26.027 29.9923 23.2002 29.9923C16.2893 29.9941 9.37749 29.9896 2.4666 30.0003C2.05692 30.0003 1.82165 29.8643 1.64634 29.5038C1.15673 28.4999 0.637136 27.5104 0.13299 26.5128C-0.162231 25.9286 0.0367028 25.5886 0.703448 25.5618C3.4649 25.4509 6.22635 25.3471 8.9878 25.2388C10.8663 25.1646 12.7448 25.0867 13.8721 25.042L13.873 25.0411Z" fill="#EFEEEE"/>
<path d="M12.1175 14.4067C12.1311 17.3752 11.6352 20.2615 10.6496 23.0663C10.4252 23.7042 10.2063 23.7964 9.58768 23.5298C7.33765 22.559 5.04219 22.4463 2.70495 23.1916C2.66226 23.205 2.61775 23.2157 2.57596 23.2318C2.28892 23.3392 2.0155 23.3544 1.81202 23.0824C1.59492 22.7925 1.73208 22.5465 1.92102 22.296C2.44061 21.6071 2.97201 20.9244 3.45436 20.2105C5.96691 16.4967 7.59744 12.4303 8.31959 8.02851C8.55395 6.6015 8.62027 5.14764 8.74471 3.70452C8.77106 3.39496 8.84463 3.15161 9.17256 3.0693C9.48322 2.99056 9.70304 3.13908 9.86383 3.51306C11.2137 6.66502 11.9749 9.94671 12.0912 13.3698C12.0975 13.5478 12.112 13.7267 12.1166 13.9048C12.1211 14.0721 12.1175 14.2394 12.1175 14.4067Z" fill="#EFEEEE"/>
</svg>
