<svg width="29" height="30" viewBox="0 0 29 30" fill="none" xmlns="http://www.w3.org/2000/svg">
<path d="M24.929 27.2658C24.8566 27.725 24.7849 28.1494 24.7237 28.5764C24.5885 29.5165 24.0442 29.9951 23.0925 29.9975C22.1787 29.9999 21.2641 29.9975 20.3502 29.9975C19.3406 29.9991 18.802 29.2849 18.7714 28.2834C18.7633 28.0324 18.9292 27.8662 19.1772 27.8331C19.4115 27.8024 19.591 27.9154 19.6667 28.1446C19.7134 28.2866 19.7222 28.44 19.7561 28.5868C19.8285 28.9032 20 29.0622 20.3237 29.0654C21.2882 29.0735 22.2528 29.0743 23.2165 29.0646C23.5362 29.0614 23.7109 28.8943 23.7688 28.5731C23.8445 28.1494 23.9065 27.7233 23.9774 27.2803H4.13561C4.20969 27.7443 4.27088 28.1922 4.35542 28.6353C4.41017 28.9218 4.6195 29.063 4.89888 29.0654C5.86344 29.0727 6.82799 29.0743 7.79174 29.0654C8.11459 29.0622 8.28528 28.9024 8.35694 28.5844C8.39478 28.4182 8.40364 28.2431 8.45517 28.0817C8.52763 27.8533 8.70798 27.7355 8.94308 27.7669C9.18865 27.7992 9.35692 27.959 9.34967 28.2148C9.31988 29.1945 8.86418 30.0096 7.71203 29.9999C6.80786 29.9927 5.90369 30.0015 4.99952 29.9975C4.0704 29.9943 3.52613 29.5117 3.39086 28.5852C3.32806 28.1575 3.25802 27.7314 3.18475 27.265C3.0044 27.265 2.82646 27.2658 2.64933 27.265C1.11958 27.2569 0.00687844 26.1529 0.0036579 24.6148C-0.00278318 21.0897 0.00124249 17.5647 0.00124249 14.0397C0.00124249 10.2532 -0.00117291 6.46594 0.00285276 2.67946C0.0036579 1.32369 0.828922 0.293945 2.10587 0.0453861C2.29185 0.00907077 2.48509 0.00261471 2.6751 0.00261471C10.2595 0.000193682 17.8439 -0.00142033 25.4282 0.0018077C26.7994 0.0018077 27.8316 0.838675 28.0723 2.12989C28.1109 2.33568 28.1109 2.55034 28.1109 2.76178C28.1126 10.0127 28.1134 17.2645 28.1117 24.5155C28.1117 26.1884 27.0288 27.2642 25.3534 27.2658C25.2237 27.2658 25.0941 27.2658 24.9299 27.2658H24.929ZM14.0541 26.3272C17.7915 26.3272 21.529 26.328 25.2664 26.3248C25.4959 26.3248 25.7334 26.3208 25.954 26.2659C26.7317 26.0714 27.1866 25.4161 27.1866 24.5179C27.1866 17.2863 27.1866 10.0539 27.1866 2.8223C27.1866 1.57951 26.5329 0.92906 25.2857 0.92906C20.1015 0.92906 14.918 0.92906 9.73372 0.92906C7.40285 0.92906 5.07199 0.917762 2.74112 0.941165C2.38605 0.944393 1.99637 1.04527 1.6872 1.21716C1.10911 1.53916 0.923928 2.10891 0.923928 2.75693C0.927148 9.75692 0.926343 16.7577 0.926343 23.7577C0.926343 24.07 0.918292 24.3823 0.929564 24.6946C0.957744 25.4629 1.43519 26.0843 2.15498 26.2643C2.37559 26.3192 2.6123 26.324 2.84176 26.3248C6.5792 26.328 10.3166 26.3272 14.0541 26.3272Z" fill="white"/>
<path d="M3.46754 10.7691V16.4545C3.92083 16.4545 4.35963 16.4529 4.79843 16.4545C5.24045 16.4569 5.4055 16.6127 5.40711 17.0509C5.41113 18.3203 5.41113 19.5889 5.40711 20.8584C5.4055 21.2998 5.24206 21.458 4.80487 21.4604C4.36446 21.4628 3.92405 21.4604 3.46029 21.4604C3.46029 22.0221 3.43372 22.5644 3.46915 23.1018C3.4933 23.4682 3.81214 23.7281 4.18089 23.7725C4.29039 23.7854 4.40149 23.7878 4.5118 23.7878C10.8611 23.7878 17.2104 23.7878 23.5597 23.7878C23.6499 23.7878 23.7409 23.7878 23.831 23.7805C24.2924 23.7418 24.5822 23.4561 24.6281 22.9897C24.6402 22.8694 24.6386 22.7484 24.6386 22.6273C24.6474 16.6038 24.6563 10.5811 24.6643 4.5576C24.6652 3.75301 24.3777 3.46329 23.5814 3.46249C17.2418 3.45603 10.903 3.45038 4.56333 3.44393C3.81133 3.44393 3.62454 3.59645 3.46029 4.34132C3.3991 4.61893 3.20667 4.76984 2.94339 4.7303C2.67367 4.68995 2.54888 4.51483 2.54002 4.24851C2.50943 3.30189 3.34677 2.49811 4.3862 2.49731C6.62689 2.49488 8.86678 2.49892 11.1075 2.50376C15.2869 2.51264 19.4656 2.52071 23.645 2.53927C23.9397 2.54088 24.2578 2.57236 24.5251 2.68615C25.2304 2.98555 25.5798 3.55852 25.5975 4.32518C25.608 4.79809 25.5975 5.2718 25.5975 5.74551C25.5886 11.4059 25.579 17.067 25.5701 22.7274C25.5677 24.0178 24.8616 24.7288 23.579 24.7288C17.2193 24.7288 10.8603 24.7288 4.50053 24.7288C3.21633 24.7288 2.5062 24.0162 2.50782 22.7274C2.51667 17.2882 2.52633 11.8497 2.536 6.41049C2.5368 5.90772 2.67931 5.76408 3.1801 5.76327C3.7123 5.76165 4.2453 5.76165 4.77749 5.76327C5.25172 5.76488 5.40469 5.91821 5.4063 6.40161C5.40872 7.65086 5.40872 8.8993 5.4063 10.1486C5.4055 10.6126 5.2493 10.7659 4.79199 10.7675C4.36124 10.7691 3.93049 10.7675 3.46593 10.7675L3.46754 10.7691ZM3.48767 6.72522V9.80557H4.4498V6.72522H3.48767ZM3.4925 17.4165V20.5041H4.45544V17.4165H3.4925Z" fill="white"/>
<path d="M18.9816 17.5634C18.5098 17.5634 18.038 17.569 17.5662 17.5618C17.1266 17.5545 16.9535 17.3342 17.0275 16.896C17.1467 16.1923 17.261 15.4878 17.3906 14.7865C17.4196 14.6307 17.4003 14.5347 17.2763 14.4233C16.3939 13.6317 16.1362 12.4219 16.6129 11.3728C17.0895 10.3229 18.1507 9.7338 19.3399 9.85889C20.4139 9.97187 21.3423 10.8217 21.558 11.9426C21.7432 12.9029 21.4606 13.735 20.744 14.4023C20.6104 14.5274 20.5693 14.6283 20.6039 14.8123C20.7368 15.5128 20.8455 16.2189 20.963 16.9226C21.0315 17.3302 20.8487 17.5553 20.426 17.5618C19.9445 17.569 19.4623 17.5634 18.9808 17.5634H18.9816ZM19.9421 16.6119C19.9453 16.5756 19.9518 16.5546 19.9486 16.5361C19.8415 15.9018 19.7433 15.2658 19.6225 14.634C19.5573 14.2918 19.616 14.0456 19.9349 13.8407C20.5685 13.4339 20.8213 12.6729 20.6064 11.9636C20.3938 11.2615 19.7368 10.7724 19.0041 10.7692C18.2715 10.7668 17.6088 11.251 17.3906 11.949C17.17 12.6536 17.418 13.4267 18.0452 13.8326C18.3729 14.0448 18.4373 14.2902 18.3665 14.6485C18.2377 15.2949 18.1418 15.9486 18.0307 16.6119H19.9421Z" fill="white"/>
</svg>
