<svg width="25" height="25" viewBox="0 0 25 25" fill="none" xmlns="http://www.w3.org/2000/svg">
<path d="M12.5732 6.74936C13.6835 6.74936 14.7947 6.74781 15.905 6.74936C17.4365 6.75247 18.4163 7.72996 18.4171 9.25679C18.4186 11.4114 18.4186 13.5661 18.4171 15.72C18.4163 17.2468 17.4357 18.229 15.9073 18.2305C13.6672 18.2329 11.4271 18.2329 9.18616 18.2305C7.67177 18.229 6.69273 17.2476 6.69273 15.7371C6.69273 13.5638 6.69195 11.3905 6.69273 9.21638C6.69273 7.74394 7.67798 6.75558 9.15508 6.74936C10.2942 6.7447 11.4333 6.74859 12.5724 6.74859L12.5732 6.74936ZM12.5312 17.337C13.6991 17.337 14.8669 17.3385 16.0348 17.337C16.9105 17.3354 17.5212 16.7278 17.522 15.8521C17.5243 13.6119 17.5243 11.371 17.522 9.13091C17.5212 8.25366 16.9128 7.64526 16.0371 7.64526C13.72 7.64371 11.4038 7.64371 9.08671 7.64526C8.19858 7.64526 7.59251 8.23502 7.59018 9.11537C7.58474 11.3656 7.58552 13.6151 7.59018 15.8653C7.59173 16.7449 8.19936 17.3362 9.08438 17.3377C10.2336 17.3393 11.382 17.3377 12.5312 17.3377V17.337Z" fill="white" fill-opacity="0.75"/>
<path d="M14.5743 4.40745C14.5743 4.36005 14.5696 4.31188 14.5743 4.26526C14.6217 3.82158 14.558 3.51544 14.0599 3.27612C13.321 2.92102 13.0513 1.98317 13.3186 1.20616C13.5937 0.405831 14.3552 -0.0697015 15.2348 0.00955395C16.0289 0.0802622 16.6722 0.715859 16.8113 1.56514C16.9341 2.31651 16.4655 3.14014 15.7204 3.43774C15.5223 3.51699 15.4477 3.60868 15.457 3.82547C15.4772 4.2606 15.4663 4.69805 15.4616 5.13396C15.4585 5.42922 15.2806 5.62969 15.0288 5.63436C14.7818 5.63902 14.5906 5.44243 14.5774 5.14717C14.5657 4.90086 14.5751 4.65377 14.5751 4.40745C14.5751 4.40745 14.5743 4.40745 14.5735 4.40745H14.5743ZM14.9962 2.69647C15.5075 2.70579 15.9146 2.32661 15.9286 1.82932C15.9434 1.31338 15.5557 0.890688 15.0483 0.870485C14.5619 0.85106 14.1127 1.2823 14.1034 1.77726C14.0949 2.26522 14.5044 2.68792 14.9962 2.69647Z" fill="white" fill-opacity="0.75"/>
<path d="M4.43364 10.4208C4.40489 10.4208 4.37614 10.4231 4.34817 10.4208C3.86953 10.3703 3.52453 10.4262 3.26035 10.9662C2.90525 11.692 1.97051 11.9383 1.20359 11.6686C0.404047 11.3874 -0.0644923 10.6274 0.0194251 9.74554C0.0940185 8.95609 0.741271 8.30962 1.58744 8.18063C2.33337 8.06641 3.14224 8.51941 3.43829 9.26068C3.5323 9.49689 3.65352 9.54351 3.87652 9.53497C4.293 9.5202 4.71103 9.52797 5.12829 9.53186C5.43055 9.53419 5.62791 9.69814 5.64345 9.94912C5.65899 10.204 5.45541 10.4044 5.14461 10.4192C4.90762 10.4301 4.67063 10.4215 4.43364 10.4215C4.43364 10.4215 4.43364 10.4215 4.43364 10.4223V10.4208ZM2.70712 9.97398C2.70867 9.46659 2.32016 9.06954 1.81743 9.06332C1.30538 9.0571 0.88191 9.46581 0.880356 9.96699C0.878802 10.4604 1.31859 10.8963 1.81044 10.8885C2.30618 10.8808 2.70634 10.4728 2.70712 9.97398Z" fill="white" fill-opacity="0.75"/>
<path d="M24.9998 14.9999C25.006 15.8508 24.4162 16.5905 23.5934 16.7645C22.7301 16.9471 21.8878 16.5206 21.556 15.7055C21.4744 15.505 21.3789 15.4374 21.1652 15.4467C20.7394 15.4654 20.312 15.4545 19.8847 15.4514C19.5669 15.4491 19.3625 15.275 19.3594 15.0147C19.3563 14.7599 19.5614 14.571 19.8777 14.564C20.2949 14.5547 20.713 14.5508 21.1294 14.5648C21.3532 14.5726 21.4744 14.5198 21.57 14.2874C21.8948 13.5003 22.7433 13.0761 23.5724 13.2462C24.3952 13.4148 24.9928 14.1491 24.999 14.9992L24.9998 14.9999ZM23.2165 15.9176C23.7138 15.9137 24.1217 15.5081 24.1248 15.0147C24.1279 14.5229 23.6882 14.0862 23.1955 14.0924C22.7037 14.0986 22.2989 14.5112 22.2981 15.0077C22.2973 15.526 22.6967 15.9223 23.2165 15.9184V15.9176Z" fill="white" fill-opacity="0.75"/>
<path d="M10.4298 20.5693C10.4298 20.5981 10.4329 20.6268 10.4298 20.6548C10.3692 21.1288 10.443 21.4598 10.9636 21.7178C11.6886 22.0775 11.9481 23.003 11.687 23.7706C11.4213 24.5515 10.673 25.0379 9.83075 24.9781C9.00634 24.9191 8.35676 24.3107 8.20058 23.449C8.06538 22.7046 8.49351 21.8833 9.22934 21.5725C9.48731 21.4637 9.56191 21.3386 9.54714 21.076C9.52461 20.6696 9.5386 20.2609 9.54248 19.8529C9.54559 19.5553 9.71886 19.3556 9.96984 19.3479C10.2162 19.3401 10.4034 19.5367 10.4283 19.8304C10.4298 19.8491 10.4298 19.8685 10.4298 19.8871C10.4298 20.1148 10.4298 20.3425 10.4298 20.5701V20.5693ZM9.97916 22.285C9.47566 22.2858 9.07783 22.6797 9.07394 23.1817C9.07006 23.6929 9.48187 24.1149 9.9846 24.1117C10.4702 24.1094 10.8898 23.6937 10.8999 23.2042C10.91 22.7038 10.4897 22.2834 9.97916 22.2842V22.285Z" fill="white" fill-opacity="0.75"/>
<path d="M15.572 20.5693C15.572 20.6167 15.5751 20.6641 15.572 20.7115C15.5401 21.1435 15.5634 21.4652 16.0801 21.7022C16.8144 22.0386 17.0848 22.9617 16.8362 23.7372C16.5805 24.5321 15.8478 25.0301 15.0071 24.9804C14.206 24.933 13.5098 24.3339 13.3637 23.5662C13.2029 22.7263 13.596 21.9019 14.3676 21.574C14.6302 21.4621 14.6947 21.3308 14.6815 21.0728C14.6613 20.6757 14.673 20.2764 14.6776 19.8785C14.6815 19.5638 14.8579 19.3548 15.1143 19.3478C15.3801 19.3408 15.5665 19.5576 15.572 19.8871C15.5759 20.1147 15.572 20.3424 15.572 20.5701V20.5693ZM15.1275 22.2849C14.6302 22.2842 14.2176 22.6843 14.2099 23.1762C14.2013 23.6781 14.6232 24.1101 15.1221 24.1117C15.6233 24.1132 16.0436 23.6874 16.0382 23.1816C16.0335 22.6859 15.6271 22.2857 15.1275 22.2849Z" fill="white" fill-opacity="0.75"/>
<path d="M1.85271 13.3087C2.57999 13.3584 3.15032 13.7096 3.4518 14.4268C3.53417 14.6226 3.63129 14.6747 3.8271 14.6684C4.25368 14.6552 4.68104 14.6615 5.10762 14.6653C5.43552 14.6684 5.65386 14.8604 5.64454 15.1246C5.63599 15.381 5.42697 15.5558 5.11151 15.5589C4.68493 15.5628 4.25757 15.5682 3.83099 15.5566C3.63906 15.5511 3.53417 15.5931 3.45414 15.7943C3.17286 16.5038 2.44635 16.9614 1.73383 16.9148C0.914077 16.8612 0.275372 16.346 0.0616931 15.5643C-0.246781 14.4392 0.640568 13.2978 1.85349 13.3087H1.85271ZM2.70665 15.1075C2.70509 14.6086 2.30415 14.2022 1.80764 14.1976C1.30725 14.1929 0.875226 14.621 0.879112 15.1176C0.882997 15.6079 1.29715 16.0212 1.78899 16.0259C2.29794 16.0313 2.70743 15.6211 2.70587 15.1075H2.70665Z" fill="white" fill-opacity="0.75"/>
<path d="M9.43197 4.42515C9.43197 4.3964 9.42964 4.36843 9.43197 4.33968C9.47471 3.86725 9.43897 3.51604 8.88884 3.25419C8.16233 2.90842 7.91214 1.96978 8.1771 1.20209C8.45371 0.403324 9.21519 -0.070654 10.0963 0.00860138C10.85 0.0762016 11.5221 0.704806 11.6449 1.45618C11.7848 2.30934 11.3768 3.10889 10.5983 3.42435C10.3621 3.51993 10.3162 3.64269 10.324 3.86492C10.338 4.27208 10.331 4.68001 10.3271 5.08794C10.324 5.41895 10.1398 5.63573 9.87487 5.6334C9.60991 5.6303 9.43586 5.41506 9.43197 5.08017C9.42887 4.86183 9.43197 4.64427 9.43197 4.42592V4.42515ZM9.88886 2.69629C10.3885 2.69318 10.7917 2.29147 10.7949 1.79418C10.798 1.29301 10.3691 0.863316 9.87176 0.869533C9.38302 0.875749 8.96887 1.29301 8.96654 1.78252C8.96344 2.29147 9.37525 2.6994 9.88886 2.69629Z" fill="white" fill-opacity="0.75"/>
<path d="M20.5798 9.42099C20.6178 9.42099 20.6559 9.41711 20.6932 9.42099C21.1586 9.48005 21.4764 9.39613 21.7259 8.89029C22.0825 8.16689 23.0041 7.90426 23.7749 8.16223C24.5697 8.42797 25.0561 9.17857 24.9893 10.0387C24.9295 10.8173 24.3141 11.5003 23.555 11.6316C22.7049 11.7785 21.8976 11.3752 21.5744 10.6028C21.4757 10.3658 21.3583 10.299 21.1175 10.3107C20.7103 10.3309 20.3016 10.32 19.8944 10.3153C19.579 10.3115 19.3692 10.1358 19.3606 9.88099C19.3513 9.61602 19.5697 9.42643 19.8968 9.42177C20.1244 9.41866 20.3521 9.42177 20.5798 9.42177V9.42099ZM22.2985 9.87166C22.3001 10.3713 22.7002 10.7777 23.196 10.7831C23.6987 10.7885 24.1276 10.3651 24.1253 9.86545C24.123 9.36505 23.6933 8.94779 23.189 8.95479C22.6964 8.96178 22.297 9.37282 22.2985 9.87166Z" fill="white" fill-opacity="0.75"/>
<path d="M16.5994 13.4224C16.5792 13.549 16.5613 13.6765 16.5372 13.8023C16.4634 14.1885 16.3196 14.5475 16.1106 14.8801C16.043 14.9881 15.9537 15.0184 15.8682 14.964C15.7843 14.9104 15.7726 14.8202 15.8387 14.7153C16.0446 14.3859 16.1821 14.0308 16.2404 13.6462C16.3639 12.8249 16.1821 12.0766 15.6747 11.4185C15.1868 10.7867 14.5348 10.4247 13.7431 10.3283C12.3219 10.155 10.9932 11.0665 10.628 12.4558C10.2185 14.016 11.1844 15.6198 12.7578 15.9756C13.5247 16.1489 14.2512 16.0331 14.9257 15.6205C14.9412 15.6112 14.9568 15.6003 14.9731 15.5918C15.057 15.546 15.1479 15.5662 15.1945 15.6408C15.2427 15.7185 15.2279 15.8109 15.1417 15.8591C14.9684 15.957 14.7951 16.0596 14.611 16.1349C12.9816 16.8008 11.1238 16.0192 10.4563 14.3905C10.4314 14.3307 10.4011 14.3152 10.3405 14.3152C10.0087 14.3183 9.67696 14.3167 9.34517 14.3159C9.23639 14.3159 9.17345 14.2786 9.14859 14.2033C9.11362 14.0937 9.19443 13.995 9.32575 13.9943C9.62334 13.9927 9.92094 13.9943 10.2185 13.9943C10.2473 13.9943 10.276 13.9943 10.311 13.9943C10.2784 13.7899 10.2473 13.5933 10.2146 13.3897C9.98932 13.3897 9.7632 13.3897 9.53709 13.3897C9.44307 13.3897 9.37858 13.34 9.36537 13.26C9.34906 13.1582 9.41976 13.0758 9.52932 13.0751C9.72669 13.0735 9.92405 13.0751 10.1214 13.0751C10.1502 13.0751 10.1789 13.0751 10.2084 13.0751C10.2341 12.8738 10.2597 12.6772 10.2861 12.4713C10.2597 12.4713 10.2286 12.4713 10.1983 12.4713C9.70881 12.4713 9.2193 12.4713 8.72978 12.4713C8.69093 12.4713 8.64974 12.4698 8.61322 12.4565C8.54096 12.4309 8.50522 12.3742 8.51144 12.2965C8.51765 12.2227 8.55883 12.1745 8.6311 12.1582C8.66373 12.1504 8.6987 12.1504 8.73288 12.1504C9.25659 12.1504 9.7803 12.1489 10.3048 12.152C10.3685 12.152 10.3941 12.131 10.4182 12.0735C10.4827 11.9189 10.5573 11.7681 10.6272 11.6158C10.6366 11.5956 10.6467 11.5746 10.6614 11.5451C10.4944 11.5451 10.3374 11.5451 10.1805 11.5451C10.0491 11.5451 9.91705 11.5451 9.78574 11.5451C9.65753 11.5451 9.58449 11.4853 9.58682 11.3843C9.58915 11.2871 9.66297 11.2281 9.78418 11.2281C10.1292 11.2281 10.4742 11.2289 10.8184 11.2265C10.8502 11.2265 10.893 11.2118 10.9116 11.1892C11.3732 10.6243 11.9567 10.2529 12.6654 10.0781C12.6755 10.0758 12.6856 10.0727 12.705 10.068C12.705 9.94602 12.7081 9.82325 12.7019 9.70048C12.7011 9.68183 12.6638 9.65852 12.6382 9.64764C12.4183 9.55596 12.2916 9.35549 12.3017 9.10995C12.3103 8.89394 12.4618 8.69891 12.6778 8.63442C12.7376 8.61655 12.8013 8.608 12.8635 8.608C13.2217 8.60567 13.5799 8.60645 13.9373 8.60722C14.2388 8.60722 14.4571 8.78516 14.5069 9.07032C14.5504 9.32052 14.3965 9.5614 14.1285 9.66318C14.1215 9.66552 14.1145 9.6694 14.1067 9.67329V10.0688C14.5426 10.169 14.9428 10.3446 15.2979 10.6119C16.0127 11.1504 16.4378 11.8629 16.5683 12.7495C16.5776 12.8116 16.5885 12.873 16.5978 12.9344V13.4239L16.5994 13.4224ZM13.4066 9.36403C13.5877 9.36403 13.7695 9.36403 13.9505 9.36403C14.0919 9.36403 14.1899 9.27623 14.1937 9.15035C14.1976 9.02914 14.1036 8.92813 13.9676 8.92657C13.5916 8.92269 13.2155 8.92269 12.8402 8.92657C12.7034 8.92813 12.6133 9.02836 12.6172 9.15191C12.6211 9.27468 12.7182 9.36248 12.8542 9.36326C13.0383 9.36403 13.2225 9.36326 13.4066 9.36326V9.36403ZM13.0305 10.002H13.7835V9.68805H13.0305V10.002Z" fill="white" fill-opacity="0.75"/>
<path d="M15.8579 13.1896C15.8501 14.5517 14.7499 15.641 13.3885 15.6341C12.0451 15.6271 10.951 14.5206 10.958 13.1748C10.965 11.8212 12.0684 10.721 13.4111 10.7295C14.7708 10.7381 15.8649 11.8383 15.8571 13.1896H15.8579ZM13.4111 11.0504C12.237 11.0489 11.2774 12.0015 11.2743 13.1709C11.272 14.352 12.2254 15.3131 13.4041 15.317C14.5719 15.3209 15.5385 14.3605 15.5409 13.1935C15.5432 12.0093 14.5921 11.0528 13.4111 11.0512V11.0504Z" fill="white" fill-opacity="0.75"/>
<path d="M8.82647 14.1641C8.82259 14.2519 8.74644 14.321 8.65941 14.3148C8.57394 14.3086 8.50945 14.2387 8.51178 14.1524C8.51333 14.0662 8.59026 13.9924 8.67495 13.9962C8.76198 14.0001 8.83036 14.0763 8.82647 14.1633V14.1641Z" fill="white" fill-opacity="0.75"/>
<path d="M15.3965 15.3278C15.3965 15.2393 15.468 15.1662 15.5542 15.167C15.6397 15.167 15.7143 15.2439 15.7127 15.3294C15.7112 15.4125 15.6397 15.484 15.5565 15.4864C15.4703 15.4887 15.3965 15.4164 15.3965 15.3278Z" fill="white" fill-opacity="0.75"/>
<path d="M12.9149 13.1655C12.9211 13.1305 12.9227 13.0753 12.9429 13.0287C12.9639 12.9782 12.9553 12.9495 12.9172 12.9137C12.8217 12.8236 12.7292 12.7288 12.6375 12.6355C12.5567 12.5532 12.5497 12.4599 12.6173 12.3916C12.6834 12.324 12.782 12.331 12.8613 12.4094C12.9584 12.5058 13.0532 12.6045 13.1534 12.6985C13.1721 12.7164 13.2141 12.7257 13.2389 12.7179C13.3508 12.6845 13.4627 12.6783 13.5715 12.7195C13.6181 12.7373 13.6422 12.7249 13.6733 12.6938C13.9087 12.4568 14.1441 12.2191 14.3835 11.986C14.4215 11.9494 14.4821 11.9153 14.5326 11.916C14.657 11.916 14.7207 12.0668 14.6445 12.167C14.6111 12.2105 14.5692 12.2478 14.5303 12.2874C14.3205 12.498 14.1107 12.7094 13.8986 12.9176C13.8644 12.9518 13.8574 12.9774 13.873 13.0256C13.9367 13.2269 13.8939 13.4079 13.7339 13.5485C13.5808 13.6845 13.4013 13.7156 13.2125 13.6317C13.0221 13.547 12.9266 13.3931 12.9149 13.167V13.1655ZM13.4044 13.0101C13.3112 13.0116 13.2343 13.0893 13.2343 13.181C13.2343 13.2758 13.3174 13.3574 13.4122 13.3543C13.5039 13.352 13.5824 13.2727 13.5824 13.181C13.5824 13.0854 13.5023 13.0077 13.4044 13.0093V13.0101Z" fill="white" fill-opacity="0.75"/>
<path d="M11.7875 13.3452C11.7464 13.339 11.7028 13.339 11.6648 13.3258C11.5925 13.3001 11.556 13.2442 11.5622 13.1673C11.5684 13.0911 11.6104 13.0375 11.6873 13.0266C11.7487 13.0173 11.8132 13.0165 11.8746 13.0219C11.9686 13.0297 12.0253 13.0958 12.023 13.1828C12.0206 13.2683 11.9593 13.3304 11.8668 13.339C11.8412 13.3413 11.8147 13.339 11.7883 13.339C11.7883 13.3405 11.7883 13.3429 11.7883 13.3444L11.7875 13.3452Z" fill="white" fill-opacity="0.75"/>
<path d="M13.5663 11.5698C13.5663 11.5963 13.5679 11.6227 13.5663 11.6483C13.5601 11.7354 13.498 11.7944 13.4133 11.7952C13.3255 11.7967 13.2579 11.7361 13.2517 11.6475C13.2478 11.5955 13.2485 11.5427 13.2517 11.4906C13.2563 11.3966 13.3231 11.3344 13.414 11.336C13.5019 11.3375 13.5617 11.3989 13.5671 11.4914C13.5687 11.5178 13.5671 11.5434 13.5671 11.5698H13.5663Z" fill="white" fill-opacity="0.75"/>
<path d="M13.5655 14.7953C13.5655 14.824 13.5678 14.8527 13.5655 14.8815C13.5577 14.967 13.4831 15.0338 13.4015 15.0307C13.3207 15.0268 13.2554 14.9623 13.2508 14.8784C13.2484 14.8287 13.2484 14.7789 13.2508 14.7292C13.2539 14.6352 13.3199 14.566 13.4062 14.5645C13.494 14.5629 13.5639 14.636 13.567 14.7331C13.567 14.7541 13.567 14.775 13.567 14.796L13.5655 14.7953Z" fill="white" fill-opacity="0.75"/>
<path d="M15.0224 13.3416C14.9936 13.3416 14.9641 13.344 14.9361 13.3416C14.8522 13.3323 14.7932 13.2647 14.794 13.1816C14.7947 13.0977 14.8553 13.0332 14.9408 13.0277C14.9929 13.0246 15.0457 13.0246 15.0978 13.0277C15.1902 13.0316 15.2532 13.093 15.2555 13.1792C15.2586 13.267 15.1926 13.337 15.1001 13.3432C15.0737 13.3447 15.048 13.3432 15.0216 13.3432L15.0224 13.3416Z" fill="white" fill-opacity="0.75"/>
</svg>
