<svg width="26" height="36" viewBox="0 0 26 36" fill="none" xmlns="http://www.w3.org/2000/svg">
<mask id="mask0_2001_81" style="mask-type:alpha" maskUnits="userSpaceOnUse" x="-11" y="-11" width="47" height="47">
<rect x="-10.6545" y="-10.1255" width="46.1255" height="46.1255" rx="22.5" fill="#062CF1"/>
</mask>
<g mask="url(#mask0_2001_81)">
<path d="M18.6114 21.3751H7.07329C5.19803 21.3774 3.40023 22.142 2.07422 23.501C0.748212 24.8601 0.00226572 26.7027 0 28.6248V36.0002H25.6847V28.6248C25.6825 26.7027 24.9365 24.8601 23.6105 23.501C22.2845 22.142 20.4867 21.3774 18.6114 21.3751Z" fill="white"/>
<path d="M12.8418 18.0002C17.5702 18.0002 21.4034 13.9707 21.4034 9.00009C21.4034 4.02948 17.5702 0 12.8418 0C8.11337 0 4.28022 4.02948 4.28022 9.00009C4.28022 13.9707 8.11337 18.0002 12.8418 18.0002Z" fill="white"/>
</g>
</svg>
