<svg width="14" height="30" viewBox="0 0 14 30" fill="none" xmlns="http://www.w3.org/2000/svg">
<path d="M0.534751 29.9996C0.193015 29.7046 0.164229 29.5394 0.387871 29.1293C2.36448 25.4993 4.34331 21.8701 6.31327 18.2362C6.39963 18.0773 6.44687 17.8739 6.45056 17.6899C6.46606 16.9605 6.4572 16.2295 6.4572 15.464C5.91249 15.464 5.39066 15.4695 4.86883 15.4625C4.30788 15.4546 3.83328 15.2261 3.44431 14.7996C3.38305 14.7323 3.33433 14.6532 3.25683 14.5483H10.5831C10.1742 15.1322 9.66421 15.4327 9.02355 15.4586C8.49065 15.4797 7.95701 15.4633 7.40344 15.4633C7.39384 15.5501 7.37982 15.6237 7.37908 15.6973C7.37687 16.0096 7.40786 16.3257 7.37244 16.6341C7.26541 17.5702 7.5577 18.356 8.00498 19.1582C9.84874 22.4649 11.643 25.8022 13.4543 29.1293C13.6765 29.5379 13.6447 29.7147 13.3023 30.0004H12.9709C12.8602 29.8501 12.7302 29.7116 12.6409 29.548C10.9566 26.4636 9.27671 23.376 7.59534 20.2891C7.54294 20.1929 7.48389 20.1005 7.42853 20.0066C7.41156 20.0113 7.39458 20.016 7.3776 20.0199C7.3776 20.1224 7.3776 20.2242 7.3776 20.3267C7.3776 23.3016 7.37465 26.2765 7.38277 29.2522C7.38351 29.5519 7.32815 29.8016 7.11263 30.0004H6.72587C6.51034 29.8141 6.45204 29.5754 6.45277 29.2827C6.46089 26.2851 6.45794 23.2883 6.4572 20.2907C6.4572 20.1905 6.44908 20.0903 6.4417 19.9229C6.35387 20.0755 6.30073 20.1639 6.25201 20.2547C4.56916 23.3447 2.88779 26.4362 1.19903 29.5222C1.10161 29.7006 0.942916 29.8415 0.813012 30.0004H0.536966L0.534751 29.9996Z" fill="#EFEEEE"/>
<path d="M6.89131 13.5886C4.95751 13.5886 3.02371 13.5886 1.08991 13.5886C0.380602 13.5886 0.001961 13.1878 0.00122291 12.4302C-0.000253273 9.46238 -0.000253273 6.49374 0.000484819 3.52589C0.000484819 2.75184 0.378388 2.35503 1.10615 2.35425C1.86122 2.35346 2.61628 2.34955 3.37135 2.35503C3.93525 2.35894 4.31316 2.08345 4.52278 1.53402C4.62242 1.27261 4.71985 1.00963 4.82908 0.752139C5.03796 0.259063 5.39668 1.76284e-06 5.91187 1.76284e-06C6.56582 1.76284e-06 7.21977 0.000784424 7.87371 1.76284e-06C8.39038 -0.000780898 8.74762 0.259063 8.95576 0.752139C9.06869 1.01824 9.16316 1.29374 9.27092 1.56219C9.47907 2.08266 9.84368 2.35581 10.3847 2.35425C11.1582 2.3519 11.9317 2.35268 12.7053 2.35425C13.3939 2.35581 13.7814 2.76201 13.7821 3.49772C13.7844 6.47574 13.7844 9.45299 13.7821 12.431C13.7821 13.1894 13.4028 13.5878 12.6927 13.5886C10.7589 13.5893 8.82512 13.5886 6.89131 13.5886ZM6.90165 12.1383C9.08123 12.1336 10.8224 10.2834 10.8224 7.96906C10.8224 5.65003 9.06573 3.79826 6.86843 3.80295C4.70066 3.80765 2.95802 5.67508 2.96097 7.98941C2.96393 10.2936 4.71985 12.1422 6.90165 12.1375V12.1383ZM11.2557 5.27984C11.4298 5.27984 11.6048 5.28453 11.779 5.27905C12.3466 5.26183 12.8012 4.76954 12.8079 4.16924C12.8145 3.56189 12.3805 3.05943 11.8085 3.03281C11.4601 3.01716 11.1102 3.01873 10.7619 3.03125C10.1714 3.0516 9.72264 3.55407 9.73223 4.16767C9.74183 4.78598 10.1965 5.26653 10.787 5.27984C10.9427 5.28297 11.0992 5.27984 11.2557 5.27984Z" fill="#EFEEEE"/>
<path d="M6.89536 11.1964C5.21103 11.1987 3.85589 9.77269 3.85073 7.99136C3.84556 6.19202 5.19553 4.74879 6.8865 4.74723C8.56935 4.74566 9.9267 6.1748 9.93039 7.95301C9.93482 9.75861 8.59223 11.1932 6.89462 11.1964H6.89536Z" fill="#EFEEEE"/>
<path d="M11.2738 4.33616C11.1277 4.33616 10.9779 4.3565 10.8369 4.32833C10.7609 4.31346 10.6989 4.21563 10.6302 4.15536C10.6878 4.09275 10.7432 3.98004 10.8037 3.97613C11.1129 3.95735 11.4244 3.95735 11.7337 3.97613C11.7964 3.98004 11.8532 4.08883 11.913 4.14988C11.8459 4.21171 11.7861 4.31268 11.7108 4.32833C11.5698 4.35729 11.42 4.33694 11.2738 4.33694V4.33616Z" fill="#EFEEEE"/>
</svg>
