<svg width="30" height="22" viewBox="0 0 30 22" fill="none" xmlns="http://www.w3.org/2000/svg">
<g clip-path="url(#clip0_2001_169)">
<path d="M29.9998 14.794C29.3722 14.3276 28.7122 13.9272 27.9409 13.7076C24.8372 12.8272 21.5999 14.8989 21.2578 17.9929C21.2375 18.1698 21.2173 18.3466 21.197 18.5429H8.84112C8.73179 17.991 8.62449 17.4449 8.51314 16.8793H10.5903V3.38986H3.53069V8.41755H-0.000153512C-0.000153512 8.33009 -0.000153512 8.24847 -0.000153512 8.16685C-0.000153512 6.82587 -0.00420264 5.48489 -0.000153512 4.14391C0.00996931 1.89923 1.97785 0.00437275 4.31824 0.00242931C9.86353 -0.00145758 15.4108 0.000485861 20.9581 0.000485861C21.027 0.000485861 21.0938 0.000485861 21.195 0.000485861V10.1258C21.3307 10.1258 21.4339 10.1258 21.5372 10.1258C23.4322 10.1258 25.3251 10.1258 27.2201 10.1258C28.6535 10.1258 29.6051 10.8449 29.9553 12.1917C29.9614 12.217 29.9837 12.2384 29.9998 12.2636V14.7959V14.794ZM17.6379 3.38791H12.3801V11.8225H15.8623V13.5035H12.3841V16.8754C13.196 16.8754 13.9876 16.8832 14.7771 16.8715C15.0667 16.8677 15.3663 16.8502 15.6457 16.7821C16.8604 16.4926 17.6358 15.4917 17.6358 14.2265C17.6379 10.7011 17.6358 7.17763 17.6358 3.65222V3.38597L17.6379 3.38791Z" fill="#EFEEEE"/>
<path d="M29.9997 19.0136C29.8459 19.4237 29.7446 19.861 29.526 20.238C28.7182 21.6256 26.9933 22.2708 25.4586 21.7986C23.841 21.2991 22.8267 19.8474 22.9765 18.2421C23.1263 16.629 24.5901 15.2589 26.2341 15.1948C28.1048 15.1209 29.6353 16.2734 29.9471 17.9894C29.9552 18.0341 29.9815 18.0749 30.0018 18.1158V19.0156L29.9997 19.0136ZM27.3496 17.7387H25.6267V19.3965H27.3496V17.7387Z" fill="#EFEEEE"/>
<path d="M0 18.574C0 16.7005 1.56094 15.1904 3.5025 15.1885C5.4562 15.1885 7.02727 16.6849 7.02929 18.5506C7.02929 20.4261 5.47037 21.9342 3.52679 21.9361C1.57714 21.94 0.00404913 20.4397 0 18.574ZM4.38318 17.7383H2.66028V19.3921H4.38318V17.7383Z" fill="#EFEEEE"/>
<path d="M28.0722 8.42314H22.9824V0.441406C24.3713 1.40147 25.4828 2.56754 26.3614 3.93961C27.2421 5.31751 27.809 6.80813 28.0722 8.42314Z" fill="#EFEEEE"/>
<path d="M0.0283203 10.1316C1.57711 10.1316 3.10971 10.1024 4.64028 10.1413C5.84894 10.1724 6.93816 11.218 7.01509 12.3938C7.06571 13.177 7.02522 13.9641 7.02522 14.7725C4.69089 13.0759 2.37074 13.0701 0.0283203 14.7609V10.1316Z" fill="#EFEEEE"/>
</g>
<defs>
<clipPath id="clip0_2001_169">
<rect width="30" height="21.9512" fill="white"/>
</clipPath>
</defs>
</svg>
