<svg width="23" height="16" viewBox="0 0 23 16" fill="none" xmlns="http://www.w3.org/2000/svg">
<path d="M18.5901 6.47943C18.4539 6.33465 18.3772 6.25375 18.3006 6.1771C17.0018 4.88264 15.7031 3.58391 14.4044 2.28945C14.0254 1.91048 13.8466 1.48467 13.9956 0.948143C14.2554 0.0283909 15.354 -0.303742 16.0821 0.317943C16.1673 0.390331 16.2439 0.471234 16.3205 0.54788C18.3815 2.60881 20.4381 4.66973 22.4991 6.73492C23.1676 7.40344 23.1676 8.12306 22.4991 8.79584C20.4041 10.8951 18.3006 12.9858 16.2184 15.0936C15.354 15.9665 14.2043 15.3959 13.9786 14.5145C13.8508 14.0078 14.0382 13.6118 14.3874 13.2583C15.6946 11.9554 16.9976 10.6481 18.3048 9.3494C18.3815 9.27701 18.4964 9.24294 18.5986 9.1961C18.5646 9.14927 18.5305 9.10668 18.5007 9.05985H18.1515C10.7935 9.05985 8.86034 9.05985 1.49806 9.05985C1.28941 9.05985 1.06799 9.05985 0.86786 9.00449C0.280241 8.84694 -0.05615 8.28913 0.00772165 7.61635C0.058819 7.03724 0.514437 6.56885 1.10206 6.50072C1.25961 6.48369 1.42567 6.48369 1.58322 6.48369C8.91143 6.48369 10.8148 6.48369 18.1473 6.48369C18.2665 6.48369 18.3815 6.48369 18.5901 6.48369V6.47943Z" fill="white"/>
</svg>
