<svg width="25" height="22" viewBox="0 0 25 22" fill="none" xmlns="http://www.w3.org/2000/svg">
<path d="M19.7087 6.86881C20.0059 6.5626 20.2987 6.25043 20.6027 5.95018C21.4163 5.14481 22.4593 5.14183 23.2714 5.94124C23.6558 6.31972 24.0373 6.70043 24.415 7.08486C25.1906 7.87385 25.1988 8.92807 24.4187 9.71482C22.9063 11.2392 21.3865 12.7568 19.8636 14.2707C19.7012 14.4316 19.6237 14.5888 19.626 14.8257C19.6394 16.1176 19.6342 17.4102 19.6319 18.7029C19.6289 20.2525 18.4659 21.4207 16.9193 21.4215C12.1876 21.4237 7.45663 21.4237 2.72495 21.4215C1.16336 21.4207 0.00111755 20.254 0.00111755 18.6865C-0.000372515 13.3684 -0.000372515 8.05042 0.00111755 2.7324C0.00111755 1.16709 1.16485 0.00111755 2.72793 0.00111755C7.44993 -0.000372515 12.1719 -0.000372515 16.8939 0.00111755C18.4764 0.00111755 19.6297 1.16113 19.6319 2.75028C19.6334 4.02428 19.6319 5.29754 19.6319 6.57154V6.839C19.6572 6.84944 19.6826 6.85987 19.7079 6.86955L19.7087 6.86881ZM17.8468 16.3754C17.8237 16.3612 17.7999 16.3463 17.7768 16.3322C17.6188 16.5006 17.4765 16.689 17.2985 16.8321C17.0929 16.9975 16.8723 17.1674 16.6302 17.2597C15.7384 17.5987 14.8362 17.9094 13.9354 18.2238C13.7708 18.2812 13.5964 18.3333 13.4236 18.3445C12.4521 18.4086 11.7629 17.4855 12.084 16.5378C12.4051 15.5901 12.7389 14.6462 13.0906 13.7097C13.1785 13.475 13.323 13.241 13.4988 13.063C14.8823 11.6601 16.2808 10.2721 17.671 8.87592C17.7455 8.80141 17.8401 8.69934 17.8416 8.6092C17.855 7.83138 17.8491 7.05283 17.8491 6.26086H1.78323V6.57377C1.78323 10.5612 1.78323 14.5486 1.78323 18.536C1.78323 19.3093 2.11179 19.6386 2.88438 19.6386C7.50283 19.6386 12.1213 19.6386 16.7397 19.6386C16.8232 19.6386 16.9073 19.6423 16.9908 19.6356C17.4624 19.5976 17.8267 19.2654 17.8401 18.7945C17.8625 17.9891 17.8461 17.1823 17.8461 16.3754H17.8468ZM1.78546 4.44522H17.8275C17.8371 4.40946 17.8468 4.39233 17.8468 4.37519C17.8483 3.88272 17.8506 3.39026 17.8506 2.89779C17.8506 2.10732 17.5257 1.78397 16.733 1.78397C12.1235 1.78397 7.51475 1.78397 2.90525 1.78397C2.8218 1.78397 2.73761 1.78025 2.65417 1.78621C2.17139 1.81899 1.80633 2.16171 1.79068 2.64374C1.77131 3.23678 1.78621 3.83132 1.78621 4.44597L1.78546 4.44522ZM14.0822 16.2636C14.6909 16.0491 15.2415 15.8636 15.7838 15.6594C15.9343 15.6028 16.0841 15.5112 16.1981 15.3979C18.4622 13.142 20.7212 10.8808 22.9808 8.62037C23.0509 8.55034 23.1172 8.47658 23.1723 8.41847C22.7491 7.99455 22.3431 7.5885 21.9303 7.17501C21.8923 7.20854 21.8417 7.24877 21.7962 7.29422C19.4963 9.59338 17.1972 11.8925 14.8995 14.1939C14.8354 14.258 14.7684 14.3325 14.7386 14.4152C14.5232 15.0068 14.3169 15.6013 14.0837 16.2636H14.0822Z" fill="white" fill-opacity="0.75"/>
<path d="M9.82698 8.03418C11.6121 8.03418 13.3964 8.03195 15.1815 8.03567C15.6196 8.03642 15.9988 8.36945 16.0569 8.78368C16.1195 9.23145 15.8625 9.64792 15.4318 9.7783C15.3275 9.80959 15.2128 9.81555 15.1025 9.81629C11.5793 9.81778 8.05605 9.81853 4.5328 9.81778C3.96434 9.81778 3.57022 9.45123 3.56948 8.92822C3.56873 8.40148 3.95838 8.03567 4.52759 8.03567C6.29405 8.03418 8.06052 8.03567 9.82624 8.03567L9.82698 8.03418Z" fill="white" fill-opacity="0.75"/>
<path d="M8.00663 13.3879C6.82575 13.3879 5.64563 13.3901 4.46475 13.3864C4.01028 13.3849 3.62436 13.0489 3.5737 12.625C3.51931 12.172 3.77933 11.7622 4.2107 11.6385C4.30681 11.611 4.41186 11.6065 4.51318 11.6065C6.85555 11.605 9.19867 11.6043 11.541 11.6058C12.1035 11.6058 12.4962 11.9805 12.4925 12.5065C12.4887 13.0168 12.0961 13.3864 11.5485 13.3879C10.3676 13.3901 9.1875 13.3879 8.00663 13.3879Z" fill="white" fill-opacity="0.75"/>
<path d="M7.11089 16.9596C6.24665 16.9596 5.38167 16.9611 4.51744 16.9596C3.95568 16.9581 3.56529 16.5826 3.5705 16.0544C3.57572 15.5426 3.96537 15.1782 4.51669 15.1775C6.26453 15.176 8.01163 15.176 9.75947 15.1775C10.3205 15.1775 10.7124 15.5552 10.7071 16.082C10.7019 16.5916 10.3086 16.9581 9.76021 16.9596C8.87735 16.9618 7.99375 16.9596 7.11089 16.9596Z" fill="white" fill-opacity="0.75"/>
</svg>
