<svg width="10" height="10" viewBox="0 0 10 10" fill="none" xmlns="http://www.w3.org/2000/svg">
<path d="M9.9768 5C9.9768 6.32608 9.45124 7.59785 8.51573 8.53553C7.58022 9.47322 6.3114 10 4.9884 10C3.66539 10 2.39657 9.47322 1.46107 8.53553C0.525562 7.59785 0 6.32608 0 5C0 4.88949 0.0437968 4.78351 0.121756 4.70537C0.199715 4.62723 0.305449 4.58333 0.4157 4.58333C0.52595 4.58333 0.631685 4.62723 0.709644 4.70537C0.787603 4.78351 0.8314 4.88949 0.8314 5C0.8314 5.82409 1.0752 6.62967 1.53198 7.31488C1.98876 8.00008 2.63799 8.53413 3.39758 8.8495C4.15718 9.16486 4.99301 9.24738 5.79939 9.08661C6.60577 8.92583 7.34647 8.529 7.92784 7.94628C8.50921 7.36356 8.90512 6.62113 9.06552 5.81288C9.22592 5.00462 9.1436 4.16684 8.82897 3.40549C8.51433 2.64413 7.98152 1.99338 7.2979 1.53554C6.61429 1.0777 5.81058 0.833333 4.9884 0.833333C4.87815 0.833333 4.77241 0.789435 4.69445 0.711295C4.6165 0.633154 4.5727 0.527174 4.5727 0.416667C4.5727 0.30616 4.6165 0.200179 4.69445 0.122039C4.77241 0.0438987 4.87815 0 4.9884 0C6.31097 0.00143378 7.57895 0.528678 8.51415 1.46605C9.44935 2.40342 9.97537 3.67436 9.9768 5ZM4.27215 4.58333H3.3256C3.21535 4.58333 3.10961 4.62723 3.03166 4.70537C2.9537 4.78351 2.9099 4.88949 2.9099 5C2.9099 5.11051 2.9537 5.21649 3.03166 5.29463C3.10961 5.37277 3.21535 5.41667 3.3256 5.41667H4.27215C4.33563 5.52718 4.42364 5.62156 4.52937 5.6925C4.63509 5.76344 4.75568 5.80903 4.88181 5.82575C5.00794 5.84247 5.13621 5.82987 5.2567 5.78891C5.37718 5.74796 5.48665 5.67975 5.57661 5.58958C5.66657 5.49941 5.73462 5.38969 5.77548 5.26892C5.81634 5.14816 5.82892 5.01958 5.81224 4.89316C5.79556 4.76674 5.75007 4.64587 5.67929 4.5399C5.60852 4.43393 5.51435 4.34572 5.4041 4.28208V2.91667C5.4041 2.80616 5.3603 2.70018 5.28234 2.62204C5.20438 2.5439 5.09865 2.5 4.9884 2.5C4.87815 2.5 4.77241 2.5439 4.69445 2.62204C4.6165 2.70018 4.5727 2.80616 4.5727 2.91667V4.28208C4.44817 4.3547 4.3446 4.45851 4.27215 4.58333ZM0.759484 3.66C0.841701 3.66 0.922073 3.63556 0.990434 3.58978C1.0588 3.544 1.11208 3.47892 1.14354 3.40278C1.175 3.32665 1.18324 3.24287 1.1672 3.16205C1.15116 3.08122 1.11156 3.00698 1.05343 2.94871C0.995291 2.89043 0.921221 2.85075 0.840583 2.83467C0.759945 2.8186 0.676362 2.82685 0.600402 2.85838C0.524443 2.88992 0.45952 2.94333 0.413842 3.01185C0.368164 3.08037 0.343784 3.16092 0.343784 3.24333C0.343784 3.35384 0.387581 3.45982 0.46554 3.53796C0.543498 3.6161 0.649233 3.66 0.759484 3.66ZM1.75467 2.16958C1.83689 2.16958 1.91726 2.14515 1.98562 2.09936C2.05398 2.05358 2.10726 1.9885 2.13873 1.91237C2.17019 1.83623 2.17842 1.75245 2.16238 1.67163C2.14634 1.5908 2.10675 1.51656 2.04861 1.45829C1.99048 1.40002 1.91641 1.36033 1.83577 1.34426C1.75513 1.32818 1.67155 1.33643 1.59559 1.36797C1.51963 1.3995 1.45471 1.45291 1.40903 1.52143C1.36335 1.58995 1.33897 1.67051 1.33897 1.75292C1.33897 1.86342 1.38277 1.9694 1.46073 2.04754C1.53868 2.12568 1.64442 2.16958 1.75467 2.16958ZM3.23373 1.18375C3.31595 1.18375 3.39632 1.15931 3.46468 1.11353C3.53304 1.06775 3.58632 1.00267 3.61779 0.926535C3.64925 0.850399 3.65748 0.766621 3.64144 0.685796C3.6254 0.60497 3.58581 0.530727 3.52767 0.472456C3.46954 0.414184 3.39547 0.3745 3.31483 0.358423C3.23419 0.342346 3.15061 0.350597 3.07465 0.382134C2.99869 0.41367 2.93377 0.467075 2.88809 0.535596C2.84241 0.604116 2.81803 0.684674 2.81803 0.767083C2.81803 0.87759 2.86183 0.983571 2.93979 1.06171C3.01774 1.13985 3.12348 1.18375 3.23373 1.18375Z" fill="black"/>
</svg>
