<svg width="30" height="30" viewBox="0 0 30 30" fill="none" xmlns="http://www.w3.org/2000/svg">
<path d="M29.9972 29.7003C29.8078 29.9413 29.5621 29.9985 29.2584 29.9985C19.7405 29.9914 10.2233 29.9922 0.705312 29.9922C0.148884 29.9922 0.00410336 29.8506 0.00488596 29.3113C0.00801636 27.9731 0.9487 26.9526 2.31668 26.7749C4.90004 26.44 7.38949 25.7544 9.79442 24.7574C9.94076 24.6964 10.0441 24.6298 10.0527 24.453C10.0863 23.7627 10.1325 23.074 10.1599 22.3838C10.1638 22.2781 10.1176 22.1482 10.0511 22.0645C8.76373 20.4476 8.08522 18.6054 7.99835 16.5448C7.99053 16.3515 7.92166 16.2576 7.74949 16.1746C6.92463 15.7802 6.49733 15.0587 6.2195 14.2322C5.85638 13.1522 5.80942 12.0339 5.85716 10.9078C5.87203 10.5579 5.87829 10.2011 5.95499 9.8622C6.12246 9.12577 6.54585 8.55604 7.2001 8.16709C7.33392 8.08726 7.44584 8.02544 7.45288 7.82196C7.53505 5.26834 8.79034 3.48245 11.0708 2.40012C12.5883 1.68013 14.1911 1.33187 15.8705 1.53378C17.7378 1.75839 19.4587 2.36881 20.8408 3.70941C21.9685 4.8027 22.485 6.17303 22.5484 7.72257C22.5578 7.94483 22.6204 8.06692 22.8137 8.18118C23.5963 8.64682 24.044 9.35507 24.1144 10.2535C24.2099 11.4712 24.2161 12.6952 23.889 13.8871C23.6128 14.8927 23.1596 15.7818 22.1352 16.2427C22.0679 16.2732 22.0202 16.4133 22.0155 16.5049C21.9552 17.6131 21.7494 18.6876 21.3276 19.7182C20.9965 20.5267 20.5591 21.2701 20.0308 21.9651C19.9259 22.1028 19.8336 22.2953 19.8375 22.4605C19.8524 23.1218 19.897 23.7831 19.958 24.442C19.9682 24.5516 20.095 24.6971 20.2038 24.7425C22.6142 25.7505 25.113 26.44 27.705 26.7765C28.8523 26.9252 29.6654 27.6436 29.9479 28.7768C29.9565 28.8128 29.9823 28.8441 30.0003 28.8778V29.698L29.9972 29.7003ZM23.1229 11.3875C23.1229 11.0948 23.1307 10.8021 23.1213 10.5094C23.0986 9.77846 22.7316 9.27212 22.1047 8.91525C20.0566 7.74762 17.8356 7.19197 15.5035 7.02841C14.4149 6.9525 13.3427 7.11058 12.2792 7.32188C10.6741 7.64197 9.13938 8.15692 7.73462 9.01934C7.29323 9.29012 6.98332 9.66811 6.92228 10.1776C6.78141 11.3468 6.79315 12.5207 7.10854 13.6625C7.22514 14.0835 7.44271 14.4944 7.69001 14.8575C8.03357 15.3607 8.59939 15.4593 9.16912 15.4844C10.642 15.5486 11.8448 15.0258 12.6799 13.7877C13.7027 12.2718 16.261 12.2405 17.2901 13.7564C18.0696 14.9037 19.166 15.4546 20.5262 15.4977C21.8237 15.5392 22.467 15.0626 22.8529 13.8151C23.0978 13.0247 23.1549 12.2092 23.1221 11.3867L23.1229 11.3875ZM9.00008 16.4986C9.03686 16.8375 9.05016 17.1482 9.10573 17.4511C9.69737 20.6386 11.513 22.8346 14.4947 24.0828C14.8156 24.2174 15.1357 24.2284 15.4612 24.1C18.2269 23.0146 19.9627 21.0033 20.7711 18.1703C20.9253 17.6303 21.0153 17.0731 20.9707 16.4971C20.9065 16.4971 20.8682 16.4963 20.8298 16.4971C19.0009 16.5409 17.5296 15.8608 16.4661 14.3496C15.7782 13.3722 14.2083 13.387 13.5204 14.3668C13.3419 14.6212 13.1471 14.8708 12.9248 15.086C11.8495 16.1285 10.5481 16.5714 8.9993 16.4979L9.00008 16.4986ZM6.6828 26.9229C6.97784 27.7039 7.4294 28.3644 8.068 28.8903C8.14783 28.956 8.27617 28.9913 8.38261 28.9913C12.7949 28.996 17.2072 28.996 21.6195 28.9936C21.7032 28.9936 21.8104 28.9944 21.8684 28.9474C22.5367 28.4043 23.0188 27.7281 23.3115 26.9221C22.431 26.6372 21.5804 26.3617 20.7297 26.0863C20.8713 26.2623 21.0349 26.3985 21.2063 26.5237C21.5084 26.746 21.5866 27.0152 21.4137 27.2727C21.2462 27.5223 20.9457 27.5568 20.6405 27.3603C19.7256 26.771 19.2153 25.907 18.9962 24.867C18.889 24.3591 18.8467 23.8371 18.7724 23.301C18.7129 23.3479 18.6597 23.3863 18.6096 23.4293C17.7456 24.165 16.7736 24.7073 15.6999 25.0728C15.2303 25.2332 14.7655 25.2324 14.2959 25.0728C13.2793 24.7269 12.3551 24.2158 11.5193 23.5428C11.4238 23.4661 11.3307 23.3863 11.2117 23.2869C11.1616 23.7353 11.135 24.1415 11.0685 24.5406C10.8728 25.7122 10.3775 26.7084 9.34129 27.3689C9.05016 27.5544 8.75513 27.5184 8.59 27.2821C8.41313 27.0301 8.48982 26.7483 8.78408 26.5308C8.95782 26.4024 9.12216 26.2616 9.29042 26.127C9.28025 26.1144 9.27007 26.1019 9.2599 26.0894C8.41156 26.3641 7.56323 26.6396 6.68359 26.9244L6.6828 26.9229ZM21.4935 7.47058C21.4935 7.36101 21.5013 7.29449 21.4919 7.23032C21.2673 5.66747 20.5027 4.43488 19.1386 3.64367C16.6515 2.20056 14.0729 2.11369 11.466 3.30715C10.1231 3.92227 9.14877 4.91148 8.7066 6.35537C8.60095 6.70128 8.54617 7.06284 8.45069 7.4964C12.845 5.53991 17.1618 5.54304 21.4927 7.47058H21.4935ZM6.62646 28.9858C6.3275 28.4114 6.03638 27.844 5.73273 27.2828C5.70534 27.232 5.58951 27.1913 5.52456 27.203C4.41327 27.4049 3.30354 27.6131 2.1946 27.8244C1.60608 27.9363 1.1107 28.4544 1.08018 28.985H6.62646V28.9858ZM23.3756 28.9772H28.9313C28.8429 28.3981 28.3772 27.9324 27.7871 27.8213C26.6868 27.6139 25.5873 27.4049 24.4854 27.2062C24.4165 27.1936 24.2944 27.2437 24.2631 27.3008C23.9602 27.8526 23.6715 28.4129 23.3756 28.9764V28.9772Z" fill="white"/>
<path d="M29.9969 22.8462C29.9029 23.0231 29.8255 23.2117 29.7104 23.3737C29.4138 23.7908 28.9904 23.999 28.4849 24.0029C27.354 24.0131 26.2232 24.0091 25.0923 24.0052C24.7276 24.0037 24.4999 23.8033 24.4952 23.502C24.4905 23.1898 24.7198 22.9871 25.108 22.9847C26.1801 22.98 27.2531 22.9839 28.3252 22.9824C28.8441 22.9824 28.9983 22.8243 28.999 22.2984C28.9998 21.2552 29.0037 20.212 28.9967 19.1688C28.9951 18.8878 29.0241 18.6303 29.3293 18.5255C29.6228 18.4253 29.8294 18.5779 29.9969 18.8041V22.8462Z" fill="white"/>
<path d="M5.15874 0C5.18222 0.0179998 5.20413 0.0375647 5.22839 0.0524341C5.45456 0.189389 5.56256 0.386604 5.48039 0.644861C5.39978 0.897641 5.20726 1.00173 4.93961 1.00016C3.8565 0.994683 2.77416 0.997814 1.69105 0.998596C1.17375 0.998596 1.00236 1.16764 1.00236 1.67867C1.00079 2.77118 0.999228 3.86369 1.00236 4.9562C1.00314 5.24185 0.869317 5.42654 0.600885 5.48993C0.366888 5.54471 0.176717 5.44219 0.0655878 5.22933C0.0233275 5.14794 0.00767549 5.04385 0.00689289 4.94916C0.0029799 3.77839 -0.00797648 2.60762 0.0100233 1.43763C0.0194145 0.814685 0.353584 0.37956 0.91549 0.11739C1.00158 0.0774773 1.08844 0.0391299 1.17531 0C2.50338 0 3.83067 0 5.15874 0Z" fill="white"/>
<path d="M29.9973 5.15498C29.7484 5.50245 29.5105 5.59089 29.2444 5.43124C29.0464 5.3115 28.9956 5.12759 28.9964 4.90689C29.001 3.83317 28.9995 2.76023 28.9979 1.6865C28.9979 1.16999 28.8281 0.999379 28.3155 0.999379C27.2809 0.997814 26.2471 0.995466 25.2125 1.00094C24.9276 1.00251 24.66 0.995466 24.5301 0.678513C24.4056 0.372517 24.6044 0.190954 24.7836 0H28.8257C29.4103 0.196432 29.8001 0.587732 29.9973 1.17155V5.15498Z" fill="white"/>
<path d="M0.00475146 20.8155C0.00475146 20.2301 0.00240366 19.6447 0.00553406 19.0586C0.00709925 18.7088 0.196488 18.4998 0.500919 18.499C0.806133 18.4982 0.998652 18.7048 1.00022 19.0555C1.00335 20.1386 1.00022 21.2217 1.00178 22.3048C1.00178 22.8252 1.15908 22.9818 1.68343 22.9818C2.71802 22.9833 3.75262 22.9818 4.78643 22.9833C4.90226 22.9833 5.02199 22.9896 5.1339 23.017C5.37181 23.0749 5.49625 23.2455 5.50251 23.4834C5.50799 23.7229 5.38355 23.888 5.15347 23.9678C5.11669 23.9803 5.07834 23.9983 5.04078 23.9983C3.79253 23.9937 2.54115 24.0367 1.29682 23.9639C0.497789 23.9177 0.00788185 23.2588 0.00475146 22.4535C0.00318626 21.9072 0.00475146 21.3602 0.00475146 20.814V20.8155Z" fill="white"/>
<path d="M4.01679 3.98981C4.48478 3.98981 4.95278 3.9859 5.41999 3.99059C5.77998 3.99451 6.00537 4.19955 6.00068 4.50554C5.99598 4.79902 5.7839 4.9978 5.43251 5.00014C4.47774 5.00719 3.52219 5.00719 2.56742 5.00014C2.21368 4.99701 2.00316 4.7998 2.00003 4.50398C1.9969 4.20268 2.22777 3.99451 2.58463 3.99059C3.06202 3.9859 3.5394 3.98981 4.01757 3.98981H4.01679Z" fill="white"/>
<path d="M25.9846 5.00293C25.5268 5.00293 25.0682 5.00763 24.6103 5.00137C24.2206 4.99667 23.9936 4.80102 23.9991 4.48955C24.0046 4.17729 24.2339 3.99025 24.6252 3.98947C25.5612 3.9879 26.4964 3.98947 27.4324 3.98947C27.6797 3.98947 27.8996 4.07868 27.9528 4.32363C27.9872 4.48094 27.952 4.70633 27.8542 4.8245C27.7619 4.93641 27.5506 4.98806 27.3878 4.99511C26.9213 5.01702 26.4526 5.00293 25.9846 5.00293Z" fill="white"/>
<path d="M3.99877 20.0003C3.53078 20.0003 3.06279 20.0058 2.59558 19.9987C2.21836 19.9932 2.00237 19.8046 2.00002 19.5002C1.99767 19.1895 2.23323 18.9884 2.61436 18.9876C3.54017 18.9853 4.46599 18.9853 5.3918 18.9876C5.77527 18.9884 6.00614 19.1887 6.00066 19.5041C5.99518 19.8062 5.77606 19.994 5.40197 19.9995C4.93398 20.0058 4.46599 20.0011 3.99877 20.0011V20.0003Z" fill="white"/>
<path d="M25.9765 20.0001C25.5187 20.0001 25.0601 20.0048 24.6023 19.9985C24.2165 19.9931 23.988 19.7911 23.9973 19.4797C24.0067 19.176 24.2313 18.9882 24.6015 18.9874C25.5375 18.9851 26.4727 18.9843 27.4087 18.9874C27.7679 18.989 27.9996 19.1932 27.9996 19.4945C27.9996 19.7998 27.7836 19.9923 27.4087 19.9985C26.9313 20.0056 26.4539 20.0001 25.9758 20.0001H25.9765Z" fill="white"/>
<path d="M5.9973 20.983C6.30878 20.983 6.62025 20.9775 6.93172 20.9846C7.27607 20.9924 7.49363 21.1888 7.49989 21.4815C7.50693 21.7812 7.30111 21.9949 6.95677 22.0019C6.32443 22.0145 5.69209 22.0137 5.05975 22.0019C4.70836 21.9957 4.50723 21.7938 4.5088 21.4909C4.50958 21.1904 4.71853 20.9994 5.06444 20.9822C5.08401 20.9814 5.10357 20.9822 5.12314 20.9822C5.41505 20.9822 5.70696 20.9822 5.99887 20.9822L5.9973 20.983Z" fill="white"/>
<path d="M24.0068 20.9828C24.3182 20.9828 24.6297 20.9758 24.9412 20.9844C25.2855 20.9945 25.4929 21.1941 25.4921 21.4954C25.4914 21.7873 25.2981 21.9931 24.9662 22.0002C24.3245 22.0143 23.682 22.0135 23.0395 22.001C22.6975 21.9947 22.4917 21.7763 22.5003 21.4766C22.5089 21.1839 22.7256 20.9906 23.0723 20.9836C23.3838 20.9765 23.6953 20.982 24.0068 20.982V20.9828Z" fill="white"/>
<path d="M23.9877 2.99734C23.6669 2.99734 23.3452 3.00438 23.0244 2.99499C22.6949 2.9856 22.4984 2.79152 22.5 2.49569C22.5016 2.2077 22.7113 1.99953 23.0298 1.99639C23.6716 1.99013 24.3141 1.99013 24.9558 1.99639C25.2821 1.99953 25.4864 2.19439 25.4927 2.4863C25.4989 2.79465 25.3001 2.98795 24.9503 2.99656C24.6295 3.0036 24.3086 2.99812 23.9869 2.99812L23.9877 2.99734Z" fill="white"/>
<path d="M5.98777 2.99734C5.6669 2.99734 5.34525 3.00438 5.02517 2.99499C4.69726 2.9856 4.50396 2.78838 4.50787 2.49021C4.51178 2.19752 4.71604 1.99953 5.04082 1.99639C5.68255 1.99013 6.32507 1.99013 6.9668 1.99639C7.2861 1.99953 7.4974 2.20457 7.50131 2.491C7.50522 2.78604 7.30801 2.98482 6.98088 2.99421C6.65063 3.0036 6.31959 2.99656 5.98855 2.99656L5.98777 2.99734Z" fill="white"/>
<path d="M27.2402 22.0159C27.1346 22.0049 27.0078 22.0034 26.8857 21.9767C26.6353 21.922 26.4991 21.7482 26.4952 21.5009C26.4913 21.2528 26.6243 21.058 26.8732 21.0181C27.1088 20.9805 27.3576 20.9758 27.5932 21.0095C27.8514 21.0462 28.0009 21.2356 27.9962 21.5025C27.9915 21.7678 27.8397 21.9337 27.5783 21.9854C27.475 22.0057 27.367 22.0049 27.2395 22.0159H27.2402Z" fill="white"/>
<path d="M2.75371 22.0066C2.24111 22.0066 1.99537 21.8375 2.00007 21.4877C2.00476 21.1441 2.2505 20.9821 2.76701 20.9829C3.25222 20.9829 3.50344 21.1535 3.5097 21.4869C3.51596 21.8305 3.25927 22.0073 2.75371 22.0073V22.0066Z" fill="white"/>
<path d="M2.75066 2.99266C2.65283 2.99266 2.55501 3.00048 2.45796 2.99109C2.19032 2.96448 2.00641 2.76805 2.00014 2.51058C1.99388 2.24997 2.19188 2.02223 2.46344 1.99954C2.63796 1.98467 2.81483 1.98937 2.99013 1.99641C3.28439 2.00893 3.50273 2.21867 3.51056 2.48632C3.51839 2.76492 3.30004 2.97935 2.98544 2.99657C2.90796 3.00048 2.8297 2.99657 2.75144 2.99657C2.75144 2.995 2.75144 2.99344 2.75144 2.99187L2.75066 2.99266Z" fill="white"/>
<path d="M27.2698 1.99484C27.3285 1.99484 27.3872 1.99327 27.4451 1.99484C27.7793 2.00501 28.0047 2.21318 28 2.50666C27.9953 2.79387 27.7879 2.98404 27.4577 2.99656C27.3019 3.00204 27.1454 3.00361 26.9897 2.99421C26.6946 2.97622 26.4841 2.75944 26.4904 2.49022C26.4958 2.22336 26.7142 2.01284 27.0069 1.9964C27.0945 1.99171 27.1822 1.9964 27.2706 1.99562L27.2698 1.99484Z" fill="white"/>
<path d="M7.99036 11.0512C7.88471 10.6176 8.1461 10.2835 8.53974 10.0573C8.90678 9.84599 9.29808 9.6699 9.69564 9.52434C9.98833 9.41712 10.2497 9.58929 10.3311 9.87416C10.4062 10.1363 10.263 10.3813 9.97346 10.4854C9.79112 10.5511 9.60408 10.6059 9.42643 10.6826C9.13921 10.807 8.96626 10.9854 9.00382 11.3509C9.0453 11.7547 8.8207 12.0013 8.50531 12.0036C8.18992 12.006 7.9974 11.7649 7.99036 11.3556C7.98879 11.2774 7.99036 11.1999 7.99036 11.052V11.0512Z" fill="white"/>
</svg>
