<svg width="251" height="151" viewBox="0 0 251 151" fill="none" xmlns="http://www.w3.org/2000/svg">
<g clip-path="url(#clip0_2183_826)">
<path d="M156.086 85.4717C155.489 85.1659 154.891 85.4717 154.599 85.9164C149.985 93.9633 136.115 118.257 129.708 115.422C127.915 114.532 127.623 111.099 128.666 105.137C129.861 99.175 132.39 91.5728 134.934 83.526L135.684 81.2884C138.061 73.9782 141.188 63.2629 142.383 54.3127C143.87 44.1812 142.828 38.3719 139.103 36.5791C137.018 35.5367 134.628 35.6896 132.251 36.7319C127.929 38.5248 123.899 43.1388 120.925 48.2115C123.913 29.2827 123.913 12.2995 120.327 5.29501C119.285 3.34931 117.951 2.16799 116.45 1.72326C114.504 1.12565 112.572 1.57039 110.335 3.05745C108.389 4.25267 106.304 6.49022 104.372 9.01963C103.483 10.062 102.885 10.9514 102.732 11.2433C97.6597 18.8454 92.7537 29.7274 89.4738 40.1508L91.6975 13.328C91.8504 10.9375 90.5162 8.69998 88.2786 7.36579L85.4435 5.72584C84.9987 5.42009 84.4011 5.28111 83.8035 5.28111C83.3588 5.28111 82.7612 5.42009 82.3165 5.72584C81.427 6.32345 80.8294 7.21291 80.8294 8.10237C80.6765 29.7135 75.6038 93.185 67.8627 113.003C67.5569 113.907 67.7098 114.949 68.4603 115.686C68.905 116.13 69.6555 116.436 70.2531 116.436C70.545 116.436 71.0036 116.283 71.2955 116.13C73.533 115.241 75.3258 114.046 76.8129 112.864C77.8552 111.808 78.7447 110.627 79.0505 109.14C80.2318 104.665 84.1232 86.6391 87.3892 58.621C87.6949 58.3292 87.8339 58.1763 87.8339 57.8706C89.321 43.4168 96.7702 23.8903 104.525 12.5775C104.525 12.5775 104.678 12.4246 104.678 12.2717C104.678 12.2717 104.817 12.1327 104.817 11.9799L105.859 10.6457C106.763 9.45046 108.25 8.11627 109.737 7.65764C110.335 7.51866 111.085 7.51866 111.683 7.9495C113.628 9.14471 115.254 17.3444 113.017 36.5652C111.224 51.4636 107.805 68.155 104.372 78.1475C103.483 80.524 104.233 83.0673 106.318 84.7073L107.513 85.7496C108.111 86.1944 108.695 86.3472 109.445 86.3472H110.196C111.238 86.0554 111.988 85.3049 112.28 84.4015C115.268 75.4652 117.645 65.9313 119.438 56.5364C119.577 56.3835 119.729 56.2445 119.729 56.0916C122.106 48.7814 127.332 41.6379 132.099 39.1085C132.696 38.8166 133.155 38.8166 133.447 38.9556C134.489 39.4003 135.087 41.1931 135.239 43.7225C135.684 48.9481 131.056 63.9856 126.595 78.1475C123.315 88.279 118.242 106.013 120.633 112.42C122.426 117.034 126.442 117.923 129.43 117.923C130.625 117.923 131.515 117.784 132.112 117.784C132.265 117.631 132.557 117.631 132.557 117.492C138.075 115.852 145.371 106.318 156.559 87.0838C156.851 86.4862 156.559 85.7496 156.114 85.4439L156.086 85.4717Z" fill="#00C2AF"/>
<path d="M235.805 85.166C235.805 85.3189 230.579 90.2388 226.271 89.1964C225.52 89.0574 224.937 88.9046 224.339 88.5988C221.504 86.9589 219.419 83.9847 217.779 80.1072C221.059 65.0559 222.991 48.3646 222.546 37.3436C222.254 28.4072 220.601 23.7793 217.321 23.3345C213.596 22.5841 210.622 26.9063 208.968 35.3979C207.036 45.2375 207.328 58.2042 209.566 68.6276C210.608 73.3946 212.248 78.6202 214.93 82.9424C213.137 90.5306 211.358 96.0481 209.705 99.7727V99.9117C209.107 100.968 207.912 102.441 207.175 102.302C202.714 101.552 197.488 81.7333 196.446 53.2705C196.446 52.2282 195.696 51.3248 194.806 50.8801C193.903 50.4353 192.708 50.5882 191.971 51.1858L190.484 52.3671C188.093 54.3128 186.759 57.287 187.051 60.5669L187.649 66.529C187.051 72.0465 186.162 79.3429 184.814 86.7921C181.242 106.166 177.517 112.267 175.127 114.06C174.988 114.06 174.529 113.921 174.084 113.462C167.386 107.653 161.424 62.7905 167.08 3.19655C167.08 2.00134 166.635 1.09798 165.746 0.51427C164.856 -0.083337 163.814 -0.236213 162.758 0.375292L159.339 2.16811C157.101 3.50231 155.461 5.89274 155.308 8.42215C153.224 40.7624 153.071 99.328 166.482 113.629C168.567 115.866 170.805 116.909 173.334 116.909C174.376 116.909 175.28 116.617 176.169 116.019C176.169 116.019 176.322 116.019 176.322 115.866C180.491 112.892 183.924 103.344 186.898 87.2646C187.649 82.9424 188.385 78.773 188.844 74.8955C190.929 87.8622 194.5 103.358 200.615 107.528C201.672 108.431 202.853 108.723 204.048 108.723C204.493 108.723 205.091 108.723 205.535 108.57C207.773 107.972 209.705 104.998 211.65 100.982V100.829C213.735 96.2148 215.375 90.3916 216.57 85.3328C218.961 88.3209 221.935 90.5445 225.659 91.4479C231.316 92.6431 237.139 87.1256 237.431 86.8338C237.876 86.3891 237.876 85.6386 237.431 85.3467C236.986 84.902 236.25 84.902 235.791 85.1938L235.805 85.166ZM216.431 76.0769C213.902 67.1267 213.596 56.2585 213.443 50.8801C213.151 39.8591 215.083 26.8924 217.321 25.6972C217.321 25.6972 217.474 25.5582 217.613 25.6972C218.516 26.4476 220.142 28.8381 220.448 37.4686C220.74 47.2944 219.252 62.0539 216.417 76.063L216.431 76.0769Z" fill="#00C2AF"/>
<mask id="mask0_2183_826" style="mask-type:luminance" maskUnits="userSpaceOnUse" x="0" y="0" width="95" height="53">
<path d="M94.5058 0.0694971H0.459072V52.8813H94.5058V0.0694971Z" fill="white"/>
</mask>
<g mask="url(#mask0_2183_826)">
<mask id="mask1_2183_826" style="mask-type:luminance" maskUnits="userSpaceOnUse" x="0" y="0" width="95" height="54">
<path d="M75.0901 0.0694971H19.457C8.71119 0.0694971 0 8.78069 0 19.5265V33.7996C0 44.5454 8.71119 53.2566 19.457 53.2566H75.0901C85.8359 53.2566 94.547 44.5454 94.547 33.7996V19.5265C94.547 8.78069 85.8359 0.0694971 75.0901 0.0694971Z" fill="white"/>
</mask>
<g mask="url(#mask1_2183_826)">
<path d="M88.4732 16.4271C91.0443 17.4555 94.5188 17.4555 94.5188 20.2907C94.5188 26.9755 66.8343 30.9781 65.8059 30.9781L56.6611 50.9354C56.0218 52.4781 55.1184 52.8672 54.09 52.9923L51.1158 53.2425V39.3307L45.3204 34.1885C44.6811 34.1885 40.9426 34.8278 33.2154 34.8278C24.2096 34.8278 21.7636 34.4387 21.1104 34.4387L20.0819 38.8165C19.9569 39.5948 17.761 39.97 17.3719 39.4558L12.7439 33.2713C11.8405 33.2713 9.51959 33.0211 9.51959 32.2428C9.51959 31.2144 9.90872 30.8252 10.4229 30.5751L0.652759 21.4442C0.0134582 20.8049 2.3205 19.5124 4.37738 20.5408L13.9113 25.0437L13.272 17.5806L15.454 17.1914C16.2322 17.0664 17.9139 18.2199 18.4281 18.7341L25.1269 25.9471L36.7177 23.7512L31.2975 18.2199L5.93394 2.26516L8.1159 0.597421C8.1159 0.597421 8.64402 0.0832007 10.4368 0.0832007L60.7748 19.6514L76.4794 16.6911C77.1187 16.566 79.8288 15.0095 83.0392 15.0095C86.5276 15.0095 86.5276 15.6488 88.4594 16.4271" fill="#FFB000"/>
</g>
</g>
<mask id="mask2_2183_826" style="mask-type:luminance" maskUnits="userSpaceOnUse" x="227" y="49" width="24" height="36">
<path d="M250.62 49.8656H227.633V84.6102H250.62V49.8656Z" fill="white"/>
</mask>
<g mask="url(#mask2_2183_826)">
<path d="M250.607 61.387C250.607 55.0357 245.464 49.8935 239.113 49.8935C232.762 49.8935 227.62 55.0357 227.62 61.387C227.62 61.4982 227.633 61.6094 227.633 61.7206C227.633 61.9707 227.647 62.2487 227.689 62.5128C227.689 62.5683 227.689 62.61 227.703 62.6656C227.731 62.9019 227.772 63.1382 227.814 63.3883C227.856 63.569 227.884 63.7358 227.925 63.9164C229.676 71.6992 239.113 85.1245 239.113 85.1245C239.113 85.1245 247.591 72.8389 249.981 65.0978C250.176 64.5279 250.315 63.9581 250.412 63.3744C250.523 62.7768 250.607 62.2348 250.607 61.7345C250.607 61.6928 250.593 61.665 250.593 61.6233C250.593 61.5399 250.607 61.4704 250.607 61.387ZM239.113 67.3909C235.75 67.3909 233.026 64.6669 233.026 61.3036C233.026 57.9404 235.75 55.2164 239.113 55.2164C242.476 55.2164 245.2 57.9404 245.2 61.3036C245.2 64.6669 242.476 67.3909 239.113 67.3909Z" fill="#FFB000"/>
</g>
<path d="M96.3538 138.978V150.972H94.3803V142.745L90.7252 150.972H89.3632L85.6803 142.745V150.972H83.7068V138.978H85.8192L90.0164 148.387L94.2135 138.978H96.326H96.3538Z" fill="#231F20"/>
<path d="M109.766 148.512H104.762L103.887 150.972H101.83L106.138 138.951H108.404L112.712 150.972H110.627L109.752 148.512H109.766ZM109.21 146.914L107.264 141.327L105.29 146.914H109.196H109.21Z" fill="#231F20"/>
<path d="M128.041 150.972H126.067L120.161 142.022V150.972H118.187V138.951H120.161L126.067 147.901V138.951H128.041V150.972Z" fill="#231F20"/>
<path d="M138.159 138.979C139.438 138.979 140.549 139.229 141.522 139.701C142.481 140.188 143.232 140.883 143.746 141.814C144.274 142.731 144.524 143.787 144.524 144.996C144.524 146.206 144.26 147.303 143.746 148.207C143.218 149.096 142.481 149.791 141.522 150.264C140.549 150.722 139.438 150.959 138.159 150.959H134.254V138.965H138.159V138.979ZM138.159 149.374C139.563 149.374 140.633 148.999 141.369 148.249C142.12 147.484 142.495 146.4 142.495 145.01C142.495 143.621 142.12 142.537 141.369 141.772C140.633 140.98 139.563 140.591 138.159 140.591H136.213V149.388H138.159V149.374Z" fill="#231F20"/>
<path d="M152.071 138.978V150.972H150.097V138.978H152.071Z" fill="#231F20"/>
<path d="M164.495 150.972L161.715 146.164H160.242V150.972H158.268V138.978H162.41C163.313 138.978 164.092 139.145 164.731 139.465C165.384 139.771 165.87 140.201 166.176 140.743C166.482 141.286 166.635 141.897 166.635 142.564C166.635 143.342 166.399 144.037 165.94 144.677C165.495 145.316 164.8 145.747 163.855 145.983L166.843 150.958H164.495V150.972ZM160.242 144.593H162.41C163.146 144.593 163.688 144.413 164.064 144.037C164.453 143.676 164.647 143.19 164.647 142.564C164.647 141.939 164.453 141.466 164.064 141.119C163.688 140.757 163.146 140.563 162.41 140.563H160.242V144.593Z" fill="#231F20"/>
<path d="M188.399 138.978L184.842 150.972H182.618L180.102 141.911L177.434 150.972L175.238 151L171.819 138.978H173.904L176.392 148.735L179.088 138.978H181.312L183.799 148.679L186.287 138.978H188.399Z" fill="#231F20"/>
<path d="M195.612 138.978V150.972H193.638V138.978H195.612Z" fill="#231F20"/>
<path d="M208.412 150.972L203.784 145.622V150.972H201.811V138.978H203.784V144.454L208.44 138.978H210.9L205.688 144.968L210.983 150.958H208.412V150.972Z" fill="#231F20"/>
<path d="M218.321 138.978V150.972H216.347V138.978H218.321Z" fill="#231F20"/>
</g>
<defs>
<clipPath id="clip0_2183_826">
<rect width="250.039" height="150.65" fill="white" transform="scale(1.00232)"/>
</clipPath>
</defs>
</svg>
