<svg width="27" height="30" viewBox="0 0 27 30" fill="none" xmlns="http://www.w3.org/2000/svg">
<path d="M7.93665 6.50586C10.3572 6.51222 12.7789 6.53003 15.1994 6.51222C15.67 6.5084 15.8209 6.61274 15.8145 7.10768C15.7902 8.97678 15.8183 10.8471 15.8273 12.7175C15.8196 14.3347 15.8081 15.9531 15.8068 17.5703C15.803 21.5044 15.8042 25.4385 15.8042 29.3727C15.8042 29.7849 15.5958 29.9914 15.179 29.9923C10.3162 29.9923 5.45477 29.9847 0.59202 29.9999C0.131702 30.0012 0.00511464 29.874 0.0063933 29.4159C0.0166226 21.9752 0.0153439 14.5357 0 7.09623C0 6.64836 0.0971782 6.50586 0.571561 6.50968C3.02659 6.53003 5.48162 6.51095 7.93665 6.50586ZM7.87655 26.6129C8.17959 26.6129 8.48391 26.6345 8.7844 26.6091C10.0017 26.5073 11.1883 26.277 12.2445 25.6256C13.9732 24.5593 13.9464 22.8022 12.1959 21.7792C11.7407 21.5133 11.2561 21.3135 10.7484 21.166C10.5221 21.0998 10.4211 21.012 10.6167 20.7741C11.0885 20.199 11.5553 19.62 11.9874 19.0157C12.8672 17.7828 13.4016 16.429 13.3121 14.8869C13.1932 12.832 12.1703 11.3421 10.338 10.4502C8.44044 9.52643 6.5314 9.64604 4.80649 10.851C2.49083 12.4681 1.8694 15.2062 3.0918 17.7777C3.61733 18.8808 4.44207 19.7702 5.16451 20.7321C5.37165 21.0082 5.33585 21.0985 5.01491 21.1939C4.24515 21.4217 3.51632 21.7398 2.9358 22.3174C2.09317 23.1559 2.09317 24.2641 2.92813 25.109C3.29127 25.4767 3.72346 25.7426 4.19401 25.9475C5.36782 26.459 6.60556 26.6409 7.87783 26.6155L7.87655 26.6129Z" fill="white"/>
<path d="M17.2271 13.5724C17.2335 10.9882 17.2386 8.40281 17.2476 5.81866C17.2476 5.50057 17.0558 5.29445 16.8563 5.08578C15.3833 3.5475 13.9103 2.00795 12.4411 0.46585C12.3375 0.3577 12.1317 0.257184 12.2033 0.0968668C12.2736 -0.0596331 12.4897 0.0205254 12.6406 0.0205254C17.1504 0.015436 21.6615 0.0217978 26.1714 0.00271242C26.6534 0.000167704 26.7864 0.126131 26.7851 0.612171C26.7672 8.01856 26.7698 15.425 26.7672 22.8313C26.7672 23.0375 26.7736 23.2436 26.7762 23.4497C26.6176 23.4612 26.4591 23.4815 26.3018 23.4815C23.4517 23.4815 20.6002 23.4739 17.7501 23.4891C17.3512 23.4917 17.2399 23.3785 17.2425 22.984C17.2566 20.0525 17.2489 17.121 17.2463 14.1895C17.2463 13.9834 17.2335 13.7785 17.2271 13.5724ZM21.9902 8.54405C22.7215 8.54405 23.4542 8.55041 24.1856 8.5415C24.7725 8.53514 25.0346 8.28576 25.0385 7.70047C25.0487 6.26016 25.0487 4.81858 25.0359 3.37828C25.0308 2.80063 24.7546 2.53852 24.1754 2.53598C22.7433 2.52834 21.3112 2.52834 19.8791 2.53343C19.2615 2.53597 18.9866 2.78408 18.9802 3.38973C18.9648 4.83003 18.9648 6.27162 18.9789 7.71192C18.984 8.3023 19.2461 8.53768 19.842 8.54405C20.5581 8.55168 21.2741 8.54532 21.9902 8.54405ZM21.9825 21.2498C22.6973 21.2485 23.4133 21.2549 24.1281 21.246C24.6856 21.2396 25.0091 20.9686 25.0116 20.5284C25.0142 20.0894 24.6958 19.8171 24.1319 19.8133C22.7177 19.8044 21.3022 19.8044 19.888 19.8108C19.3101 19.8133 19.016 20.0678 19.016 20.5246C19.016 20.9801 19.319 21.2396 19.8842 21.2473C20.5836 21.2562 21.2831 21.2498 21.9825 21.2498ZM22.0515 10.3012V10.2986C21.3201 10.2986 20.5875 10.2923 19.8561 10.3012C19.3037 10.3075 19.0224 10.5467 19.0134 10.9908C19.0045 11.4348 19.2935 11.7288 19.8177 11.7338C21.2818 11.7478 22.7458 11.7466 24.2099 11.7338C24.7137 11.7288 25.0321 11.4068 25.0167 10.9832C25.0014 10.5747 24.7009 10.3113 24.201 10.305C23.4849 10.2948 22.7689 10.3024 22.0528 10.3024L22.0515 10.3012ZM21.9697 18.0664C22.7177 18.0664 23.467 18.0753 24.215 18.0638C24.7073 18.0562 25.0116 17.7788 25.0167 17.3691C25.0231 16.9441 24.6996 16.6362 24.1958 16.6324C22.7305 16.6235 21.2664 16.6222 19.8011 16.6324C19.3088 16.6362 19.0173 16.9162 19.0096 17.3386C19.0006 17.7852 19.2909 18.0575 19.819 18.0651C20.535 18.0765 21.2524 18.0676 21.9684 18.0664H21.9697ZM21.9965 14.9046C22.7433 14.9033 23.49 14.9135 24.2368 14.8995C24.7175 14.8906 25.0104 14.5954 25.0065 14.1742C25.0014 13.7518 24.7086 13.4757 24.2201 13.4732C22.7586 13.4655 21.2958 13.4655 19.8343 13.4719C19.3139 13.4744 19.0134 13.7518 19.0185 14.192C19.0237 14.6285 19.3254 14.8969 19.851 14.9033C20.5657 14.9122 21.2818 14.9058 21.9965 14.9058V14.9046Z" fill="white"/>
<path d="M11.0936 1.14532C12.3147 2.42403 13.5346 3.70403 14.8542 5.0858C14.3747 5.0858 14.0192 5.0858 13.6637 5.0858C12.8991 5.0858 12.1357 5.08072 11.3711 5.08708C11.1358 5.08962 10.976 5.05909 10.9785 4.76135C10.9888 3.57424 10.9824 2.38714 10.9824 1.20003C11.0195 1.18094 11.0565 1.16313 11.0936 1.14404V1.14532Z" fill="white"/>
<path d="M11.8688 15.141C11.8803 16.2454 11.484 17.2277 10.8549 18.1005C9.98281 19.3093 9.04299 20.4709 8.14282 21.6606C7.96892 21.8896 7.86407 21.896 7.68761 21.6631C6.77849 20.4595 5.831 19.2838 4.94744 18.0624C4.21093 17.0432 3.82606 15.8955 3.9974 14.6181C4.26208 12.6408 5.94096 11.2234 8.09295 11.3163C10.2731 11.4105 11.8688 13.0595 11.8688 15.141ZM7.89603 12.9844C6.58285 12.992 5.53946 14.0455 5.54969 15.3548C5.55864 16.6259 6.62377 17.6603 7.91266 17.6705C9.11588 17.6794 10.2948 16.6513 10.2705 15.3192C10.2462 13.9946 9.22712 12.9767 7.89731 12.9844H7.89603Z" fill="white"/>
<path d="M7.88673 25.1941C6.68351 25.1814 5.50331 25.0427 4.43307 24.4383C3.54184 23.9345 3.5444 23.4968 4.4254 22.9929C4.59035 22.8988 4.76169 22.8122 4.93814 22.741C5.83065 22.3805 6.56673 22.5747 7.14639 23.3237C7.70388 24.0451 8.12712 24.0439 8.68845 23.3237C8.74727 23.2487 8.80353 23.1723 8.86107 23.096C9.27621 22.5539 9.81964 22.3881 10.4914 22.5985C10.9184 22.7321 11.3289 22.9026 11.6856 23.1774C12.192 23.5667 12.1933 23.8848 11.6728 24.2691C11.0156 24.7526 10.2433 24.9473 9.45565 25.0847C8.93779 25.175 8.41354 25.217 7.88673 25.1966V25.1941Z" fill="white"/>
<path d="M23.6013 5.53621C23.6013 5.93191 23.5898 6.32762 23.6051 6.72205C23.6153 7.00197 23.5233 7.11775 23.2253 7.11266C22.4147 7.09739 21.604 7.09994 20.7933 7.11139C20.5197 7.11521 20.434 7.00451 20.4366 6.74622C20.4455 5.93955 20.4443 5.13287 20.4366 4.3262C20.434 4.06664 20.5235 3.95722 20.7959 3.96103C21.6219 3.97249 22.4492 3.97121 23.2765 3.96103C23.5297 3.95849 23.6115 4.06791 23.6064 4.3033C23.5974 4.71427 23.6038 5.12651 23.6038 5.53748L23.6013 5.53621Z" fill="white"/>
<path d="M7.93747 16.2356C7.44774 16.247 7.01683 15.8462 6.99509 15.3589C6.97208 14.8691 7.36974 14.4415 7.86586 14.4199C8.39906 14.397 8.81463 14.7851 8.82102 15.3118C8.82613 15.817 8.43742 16.2241 7.93747 16.2356Z" fill="white"/>
</svg>
