<svg width="10" height="12" viewBox="0 0 10 12" fill="none" xmlns="http://www.w3.org/2000/svg">
<path d="M5.00008 0C3.67442 0.00145921 2.40348 0.529945 1.4661 1.46951C0.528716 2.40907 0.00145582 3.68297 0 5.0117C0 7.65889 4.20006 11.2929 4.67707 11.6988L5.00008 11.9725L5.32308 11.6988C5.80009 11.2929 10.0002 7.65889 10.0002 5.0117C9.9987 3.68297 9.47144 2.40907 8.53406 1.46951C7.59668 0.529945 6.32573 0.00145921 5.00008 0ZM5.00008 7.51756C4.50562 7.51756 4.02226 7.37059 3.61113 7.09524C3.2 6.8199 2.87956 6.42854 2.69034 5.97065C2.50112 5.51277 2.45161 5.00892 2.54808 4.52284C2.64454 4.03675 2.88265 3.59025 3.23228 3.2398C3.58192 2.88935 4.02738 2.65069 4.51234 2.554C4.9973 2.45731 5.49998 2.50694 5.9568 2.6966C6.41362 2.88626 6.80407 3.20744 7.07878 3.61953C7.35349 4.03161 7.50011 4.51609 7.50011 5.0117C7.49932 5.67605 7.23567 6.31296 6.76699 6.78273C6.29832 7.2525 5.66288 7.51676 5.00008 7.51756Z" fill="#64646E"/>
<path d="M4.99976 6.51518C5.8282 6.51518 6.49978 5.84204 6.49978 5.01167C6.49978 4.18131 5.8282 3.50816 4.99976 3.50816C4.17132 3.50816 3.49974 4.18131 3.49974 5.01167C3.49974 5.84204 4.17132 6.51518 4.99976 6.51518Z" fill="#64646E"/>
</svg>
