<svg width="27" height="30" viewBox="0 0 27 30" fill="none" xmlns="http://www.w3.org/2000/svg">
<path d="M19.6658 0C19.9475 0.0704302 20.2339 0.126774 20.5102 0.214421C22.4861 0.838902 23.7828 2.59966 23.793 4.74465C23.811 8.37572 23.8 12.0076 23.7969 15.6394C23.7969 16.2905 23.4901 16.7209 22.9377 16.8852C22.458 17.0277 21.9149 16.8594 21.6621 16.4157C21.5251 16.1747 21.4445 15.8671 21.443 15.5885C21.4289 11.9864 21.432 8.38432 21.4344 4.78221C21.4344 3.73906 20.9727 2.97998 20.0273 2.55349C19.7268 2.4181 19.3684 2.35159 19.0358 2.3508C14.2818 2.33828 9.52775 2.33907 4.77371 2.34454C3.37685 2.34611 2.37204 3.34622 2.37048 4.74465C2.365 11.5779 2.365 18.4112 2.37048 25.2445C2.37126 26.6555 3.37998 27.6462 4.79954 27.6485C7.58153 27.6532 10.3635 27.6485 13.1463 27.6517C13.6565 27.6517 14.0987 27.9811 14.2521 28.4561C14.4078 28.9374 14.2552 29.4711 13.8287 29.7521C13.6354 29.8796 13.3818 29.9798 13.1549 29.9814C10.2555 29.9962 7.35615 30.0056 4.45678 29.9845C2.41586 29.9696 0.485294 28.2973 0.107319 26.2556C0.0400188 25.8933 0.00323857 25.52 0.00245601 25.1514C-0.000674221 18.376 -0.000674221 11.6014 0.00167345 4.82603C0.00245601 2.46584 1.48149 0.604135 3.74856 0.0923418C3.88003 0.0626046 4.0115 0.0305197 4.14297 0C9.31724 0 14.4915 0 19.6658 0Z" fill="white"/>
<path d="M20.7016 20.1706C21.269 19.669 21.9373 19.4123 22.6768 19.2957C24.7372 18.9718 26.6733 20.5056 26.8791 22.5825C27.0317 24.1265 26.4393 25.3559 25.3696 26.3747C24.659 27.0517 23.8522 27.6268 23.0986 28.2607C22.5774 28.6989 22.0578 29.1419 21.5663 29.613C21.0757 30.0833 20.3369 30.1545 19.8916 29.6638C19.1881 28.8899 18.3351 28.3061 17.5166 27.6769C16.554 26.9366 15.6244 26.165 15.0085 25.089C13.9567 23.25 14.5116 20.8546 16.2348 19.7989C17.5432 18.9968 19.3446 19.1056 20.5466 20.0587C20.592 20.0947 20.6398 20.126 20.7008 20.1698L20.7016 20.1706ZM20.7039 27.1753C21.7072 26.3614 22.701 25.5625 23.6855 24.7517C23.849 24.6171 23.9782 24.4379 24.1089 24.2681C24.4219 23.8596 24.5839 23.4073 24.5385 22.8798C24.4759 22.1536 23.9969 21.6575 23.2864 21.6176C22.5124 21.5738 22.021 21.9596 21.8801 22.7194C21.8645 22.8055 21.8504 22.8924 21.8308 22.9777C21.6931 23.5818 21.0835 23.9786 20.4786 23.8526C19.8533 23.7219 19.5935 23.2907 19.4957 22.6967C19.3799 21.9909 18.9416 21.6364 18.2209 21.6168C17.5463 21.5988 17.0635 21.9588 16.8968 22.6169C16.7763 23.0904 16.8123 23.5583 17.0877 23.966C17.3092 24.2947 17.5479 24.6328 17.8476 24.8848C18.7718 25.6611 19.7297 26.399 20.7039 27.1753Z" fill="white"/>
<path d="M14.2461 7.55538C13.0362 7.55538 11.8264 7.55694 10.6173 7.55538C9.91304 7.55459 9.38168 7.05297 9.37698 6.39093C9.37229 5.73123 9.90756 5.21631 10.6064 5.21553C13.0354 5.21396 15.4645 5.21396 17.8936 5.21553C18.5924 5.21553 19.1277 5.73358 19.1198 6.39406C19.112 7.04828 18.5877 7.55381 17.9053 7.55538C16.6861 7.55772 15.4661 7.55538 14.2468 7.55538H14.2461Z" fill="white"/>
<path d="M14.2538 9.90109C15.4637 9.90109 16.6735 9.89952 17.8826 9.90109C18.5861 9.90187 19.1174 10.4066 19.119 11.0694C19.1206 11.7315 18.5877 12.2402 17.8849 12.2409C15.4559 12.2425 13.0268 12.2425 10.5977 12.2409C9.90283 12.2409 9.36443 11.7143 9.37616 11.0577C9.3879 10.4027 9.91222 9.90265 10.5954 9.90187C11.8146 9.89952 13.0346 9.90187 14.2538 9.90187V9.90109Z" fill="white"/>
<path d="M14.2668 14.5866C15.4664 14.5866 16.6669 14.5859 17.8665 14.5866C18.5896 14.5874 19.1296 15.0992 19.1186 15.7683C19.1085 16.4335 18.581 16.9265 17.8712 16.9265C15.4516 16.928 13.0327 16.928 10.613 16.9265C9.91028 16.9265 9.37736 16.4202 9.37501 15.7589C9.37266 15.0984 9.90715 14.5874 10.6075 14.5866C11.8268 14.5851 13.0468 14.5866 14.266 14.5866H14.2668Z" fill="white"/>
<path d="M11.4273 21.6134C11.1346 21.6134 10.8419 21.6165 10.55 21.6134C9.89893 21.6048 9.37461 21.0789 9.37696 20.4411C9.37931 19.801 9.90206 19.2798 10.5555 19.2743C11.1502 19.2696 11.745 19.2689 12.3397 19.2743C12.9744 19.2806 13.4885 19.7986 13.4987 20.4309C13.5089 21.0664 12.983 21.6032 12.335 21.6126C12.033 21.6173 11.7301 21.6126 11.428 21.6134H11.4273Z" fill="white"/>
<path d="M5.98599 5.21514C6.63316 5.21514 7.16061 5.73241 7.16921 6.37567C7.17704 7.02363 6.63551 7.5589 5.97503 7.55499C5.33412 7.55107 4.80198 7.0158 4.80667 6.3788C4.81137 5.73789 5.34116 5.21514 5.98599 5.21436V5.21514Z" fill="white"/>
<path d="M5.99573 12.2417C5.34855 12.2441 4.81954 11.7291 4.8078 11.0859C4.79607 10.4403 5.33838 9.89952 5.99651 9.90186C6.64055 9.90421 7.17035 10.4317 7.17035 11.0718C7.17035 11.7119 6.64055 12.2394 5.99651 12.2417H5.99573Z" fill="white"/>
<path d="M5.97658 16.9276C5.33488 16.9245 4.80352 16.3908 4.80665 15.753C4.81057 15.1011 5.35053 14.5792 6.01336 14.587C6.65271 14.5948 7.18406 15.1411 7.16841 15.7757C7.15276 16.4205 6.62454 16.9308 5.9758 16.9276H5.97658Z" fill="white"/>
<path d="M5.99253 21.6133C5.34692 21.6149 4.81713 21.0968 4.80774 20.4543C4.79835 19.8079 5.34066 19.2703 5.99957 19.2735C6.64284 19.2766 7.17263 19.8072 7.17028 20.4465C7.16793 21.0874 6.63814 21.6125 5.99331 21.6133H5.99253Z" fill="white"/>
</svg>
