<svg width="30" height="28" viewBox="0 0 30 28" fill="none" xmlns="http://www.w3.org/2000/svg">
<path d="M1.54153 11.8686C1.15028 11.6241 0.771261 11.3796 0.392238 11.135C0.0621217 10.9149 -0.0968232 10.3648 0.0621218 9.88792C0.196614 9.49667 0.514504 9.43553 0.8813 9.44776C1.39481 9.44776 1.90833 9.47221 2.40962 9.44776C2.54411 9.44776 2.73973 9.33772 2.80087 9.21546C3.74231 7.40593 4.97719 5.7798 6.17539 4.14144C6.71336 3.39562 7.50808 3.0166 8.4373 3.0166C12.8144 3.0166 17.1915 3.0166 21.5686 3.0166C22.51 3.0166 23.3048 3.39562 23.855 4.15367C25.0409 5.7798 26.2758 7.38148 27.1928 9.20323C27.2906 9.39885 27.4007 9.47221 27.6207 9.47221C28.1587 9.45999 28.6967 9.47221 29.2346 9.47221C29.7604 9.47221 29.9438 9.70452 29.9927 10.218C30.0416 10.756 29.846 11.0861 29.3814 11.3306C29.0757 11.4896 28.7945 11.6974 28.5744 11.8442C28.9412 12.9935 29.3569 14.0938 29.6259 15.2187C29.8337 16.1112 29.9438 17.0404 29.9682 17.9574C30.0171 19.5224 29.9805 21.0997 29.9805 22.6769C29.9805 23.3738 29.8215 23.545 29.1246 23.545C25.1265 23.545 21.1162 23.545 17.1181 23.545C11.714 23.545 6.30988 23.545 0.917979 23.545C0.196614 23.545 0.0498952 23.386 0.0498952 22.6646C0.0498952 21.2831 0.0498952 19.8892 0.0498952 18.5076C0.0376687 16.3435 0.477824 14.2772 1.37036 12.3088C1.43149 12.1743 1.4804 12.0398 1.55376 11.8931L1.54153 11.8686ZM26.1536 11.514C24.7597 9.54557 23.4026 7.62601 22.0454 5.71867C21.8498 5.43746 21.5808 5.38855 21.2629 5.38855C17.0937 5.38855 12.9367 5.38855 8.76742 5.38855C8.37617 5.38855 8.10718 5.51082 7.88711 5.82871C6.62777 7.62601 5.35621 9.41108 4.08465 11.1962C4.02352 11.294 3.96239 11.3918 3.88903 11.514H26.1413H26.1536ZM7.2391 18.85C7.99715 18.8989 8.47398 18.5688 8.63293 17.8963C8.77964 17.285 8.46175 16.7592 7.75261 16.4902C6.43215 15.989 5.09946 15.4754 3.77899 14.9864C2.98426 14.6929 2.2629 15.072 2.10395 15.8911C2.00614 16.368 1.94501 16.857 1.92056 17.3339C1.87165 18.0675 2.37294 18.5932 3.10653 18.6299C4.48813 18.7032 5.86973 18.7644 7.25133 18.8377L7.2391 18.85ZM22.7913 18.85C24.1729 18.7766 25.5545 18.7155 26.9361 18.6421C27.6696 18.6054 28.1587 18.0797 28.122 17.3339C28.0976 16.8448 28.0364 16.368 27.9386 15.8911C27.7797 15.0842 27.0583 14.6929 26.288 14.9864C24.9064 15.4999 23.5126 16.0134 22.1433 16.5758C21.862 16.6859 21.5808 16.9793 21.4708 17.2605C21.104 18.1286 21.7887 18.9111 22.8035 18.85H22.7913ZM15.0152 22.3101C16.5924 22.3101 18.1819 22.3101 19.7591 22.3101C20.187 22.3101 20.4071 22.1389 20.456 21.7843C20.5171 21.3809 20.2237 21.1119 19.7224 21.1119C16.8981 21.1119 14.0615 21.1119 11.2372 21.1119C10.8704 21.1119 10.5158 21.0997 10.149 21.1119C9.73331 21.1363 9.48878 21.4664 9.5866 21.8577C9.67218 22.2123 9.92894 22.3101 10.2591 22.3101C11.8363 22.3101 13.4257 22.3101 15.003 22.3101H15.0152Z" fill="#EFEEEE"/>
<path d="M20.1135 1.78202H9.9043C10.1244 1.25628 10.32 0.730536 10.5645 0.253701C10.6379 0.119209 10.8946 0.0091699 11.0658 0.0091699C13.6945 -0.00305663 16.3232 -0.00305663 18.9642 0.0091699C19.1476 0.0091699 19.4165 0.155888 19.5021 0.314833C19.7467 0.767215 19.9056 1.2685 20.1135 1.78202Z" fill="#EFEEEE"/>
<path d="M1.23633 24.7188H4.8187C4.8187 25.3545 4.84316 25.9659 4.8187 26.5894C4.80648 26.8951 4.5864 27.0907 4.26851 27.0907C3.44933 27.0907 2.61793 27.1029 1.79875 27.0907C1.46863 27.0907 1.24855 26.8462 1.24855 26.5161C1.24855 25.9292 1.24855 25.3423 1.24855 24.7188H1.23633Z" fill="#EFEEEE"/>
<path d="M25.1993 24.7314H28.7695C28.7695 25.3672 28.7939 26.0152 28.7573 26.651C28.745 26.9322 28.5005 27.1034 28.1948 27.1034C27.3879 27.1034 26.5809 27.1034 25.7618 27.1034C25.4316 27.1034 25.2116 26.8955 25.1993 26.5777C25.1749 25.9663 25.1993 25.3672 25.1993 24.7437V24.7314Z" fill="#EFEEEE"/>
</svg>
