<svg width="21" height="21" viewBox="0 0 21 21" fill="none" xmlns="http://www.w3.org/2000/svg">
<path d="M9.88424 0C10.2947 0 10.7042 0 11.1146 0C11.1669 0.0120724 11.2192 0.0301809 11.2726 0.034205C12.7383 0.133802 14.1307 0.512069 15.4104 1.22836C18.861 3.16094 20.7423 6.11264 20.9807 10.0613C21.1055 12.1307 20.6115 14.0854 19.521 15.852C17.5542 19.0381 14.68 20.7614 10.9406 20.9817C9.04622 21.0934 7.24039 20.6809 5.57541 19.7655C2.61467 18.1367 0.804824 15.6518 0.165995 12.3269C0.0895366 11.9265 0.0543256 11.518 0 11.1136C0 10.7031 0 10.2937 0 9.88323C0.0120724 9.82388 0.0311869 9.76553 0.035211 9.70617C0.137826 8.24139 0.525147 6.85408 1.23339 5.57139C2.86718 2.61568 5.34705 0.803818 8.66996 0.165995C9.07036 0.0885306 9.47881 0.0543256 9.88424 0ZM7.34703 9.77559C7.42349 9.75547 7.4748 9.74641 7.52409 9.72931C7.92148 9.58746 8.32489 9.50195 8.74843 9.5935C9.04722 9.65788 9.20919 9.78766 9.22428 10.0965C9.24038 10.4194 9.23233 10.7555 9.15889 11.0683C8.99189 11.7856 8.78465 12.4929 8.58545 13.2021C8.40236 13.853 8.21624 14.5029 8.20316 15.186C8.19009 15.8762 8.56433 16.4556 9.1931 16.7222C9.73937 16.9546 10.3199 17.0009 10.8812 16.8701C11.4687 16.7333 12.0331 16.4959 12.6055 16.2987C12.6438 16.2856 12.689 16.2423 12.6991 16.2041C12.7554 15.9949 12.8017 15.7836 12.851 15.5753C12.5371 15.6417 12.2434 15.7273 11.9426 15.7615C11.1549 15.851 10.7927 15.4828 10.9365 14.7061C11.0532 14.0774 11.2253 13.4577 11.3812 12.8369C11.5965 11.9788 11.9315 11.1488 11.9617 10.2474C11.9828 9.62468 11.7987 9.10255 11.2635 8.74642C10.7394 8.39833 10.1478 8.3591 9.54822 8.42751C8.87016 8.50397 8.24642 8.7766 7.61765 9.02107C7.56937 9.04018 7.51705 9.09451 7.50297 9.1428C7.44462 9.343 7.40136 9.54823 7.34603 9.77559H7.34703ZM9.78263 5.51103C9.85205 5.74242 9.88625 5.99292 9.99591 6.20217C10.3269 6.82993 11.007 7.12973 11.7474 7.01202C12.5633 6.88225 13.1247 6.12471 13.01 5.30982C12.9124 4.61767 12.2776 4.09152 11.4879 4.04625C10.6196 3.99696 9.87116 4.65188 9.78263 5.51204V5.51103Z" fill="#080E1E"/>
</svg>
