<svg width="21" height="21" viewBox="0 0 21 21" fill="none" xmlns="http://www.w3.org/2000/svg">
<path d="M9.51284 0C9.90788 0 10.302 0 10.697 0C10.7473 0.0116187 10.7977 0.0290469 10.849 0.0329198C12.2597 0.128774 13.5997 0.492828 14.8313 1.18221C18.1523 3.04217 19.9629 5.88296 20.1924 9.68325C20.3125 11.6749 19.8371 13.5562 18.7875 15.2564C16.8946 18.3228 14.1284 19.9813 10.5295 20.1934C8.70631 20.3008 6.96834 19.9039 5.36592 19.0228C2.51643 17.4552 0.774583 15.0637 0.159758 11.8637C0.0861723 11.4783 0.0522843 11.0852 0 10.696C0 10.301 0 9.90691 0 9.51188C0.0116187 9.45475 0.0300151 9.39859 0.033888 9.34147C0.132647 7.93173 0.505415 6.59654 1.18705 5.36205C2.75945 2.51739 5.14613 0.773615 8.34419 0.159758C8.72955 0.0852041 9.12265 0.0522843 9.51284 0ZM7.07097 9.40828C7.14456 9.38891 7.19394 9.3802 7.24138 9.36374C7.62383 9.22722 8.01209 9.14492 8.41971 9.23303C8.70728 9.29499 8.86316 9.4199 8.87769 9.71714C8.89318 10.0279 8.88543 10.3513 8.81475 10.6524C8.65403 11.3428 8.45457 12.0235 8.26286 12.7061C8.08664 13.3325 7.90752 13.958 7.89493 14.6154C7.88235 15.2796 8.24253 15.8373 8.84767 16.0939C9.37342 16.3176 9.93209 16.3621 10.4724 16.2362C11.0378 16.1045 11.581 15.876 12.1319 15.6863C12.1687 15.6737 12.2123 15.632 12.2219 15.5953C12.2762 15.3939 12.3207 15.1905 12.3681 14.9901C12.0661 15.054 11.7833 15.1363 11.4938 15.1692C10.7357 15.2554 10.3872 14.901 10.5256 14.1536C10.6379 13.5484 10.8035 12.952 10.9536 12.3546C11.1608 11.5287 11.4832 10.7299 11.5122 9.86238C11.5326 9.26304 11.3554 8.76053 10.8403 8.41778C10.3358 8.08277 9.76652 8.04501 9.18946 8.11085C8.53687 8.18443 7.93657 8.44683 7.33143 8.68211C7.28495 8.7005 7.2346 8.75279 7.22105 8.79926C7.16489 8.99194 7.12326 9.18946 7.07 9.40828H7.07097ZM9.41505 5.30396C9.48186 5.52665 9.51478 5.76774 9.62032 5.96913C9.93886 6.5733 10.5934 6.86184 11.306 6.74855C12.0912 6.62365 12.6315 5.89458 12.5211 5.11031C12.4272 4.44417 11.8163 3.93779 11.0562 3.89422C10.2206 3.84677 9.50026 4.47709 9.41505 5.30492V5.30396Z" fill="#080E1E"/>
</svg>
