<svg width="13" height="16" viewBox="0 0 13 16" fill="none" xmlns="http://www.w3.org/2000/svg">
<path d="M6.49871 0.503906C4.77566 0.505957 3.12378 1.19139 1.90546 2.40983C0.687146 3.62827 0.00187965 5.28021 0 7.00326C0 10.4085 5.27257 14.9638 5.87563 15.4726L6.5 16.0001L7.12437 15.4726C7.72613 14.9638 13 10.4085 13 7.00326C12.9981 5.27977 12.3125 3.62743 11.0936 2.40892C9.87474 1.1904 8.2222 0.505273 6.49871 0.503906ZM6.49871 13.4451C4.51972 11.6424 1.93573 8.71365 1.93573 7.00326C1.93573 5.79308 2.41647 4.63247 3.2722 3.77675C4.12792 2.92102 5.28853 2.44028 6.49871 2.44028C7.70889 2.44028 8.8695 2.92102 9.72522 3.77675C10.5809 4.63247 11.0617 5.79308 11.0617 7.00326C11.0617 8.71042 8.47705 11.6405 6.49871 13.4451Z" fill="#080E1E"/>
<path d="M6.49758 8.88384C7.5663 8.88384 8.43267 8.01747 8.43267 6.94876C8.43267 5.88004 7.5663 5.01367 6.49758 5.01367C5.42887 5.01367 4.5625 5.88004 4.5625 6.94876C4.5625 8.01747 5.42887 8.88384 6.49758 8.88384Z" fill="#080E1E"/>
</svg>
