<svg width="25" height="25" viewBox="0 0 25 25" fill="none" xmlns="http://www.w3.org/2000/svg">
<path d="M23.5294 25H18.6471V22.086H6.34708V25H1.46476C1.46476 24.0559 1.46142 23.1135 1.46976 22.1694C1.46976 22.0042 1.41472 21.9375 1.27127 21.8641C0.468946 21.4638 0.00690245 20.8149 0.00523442 19.9092C-0.00310572 13.996 0.000230338 8.08118 0.0035664 2.16802C0.0035664 0.982052 0.977695 0.00291905 2.15866 0.00291905C9.04762 -0.000417007 15.9366 -0.00208504 22.8255 0.00458708C23.6979 0.00458708 24.3418 0.434939 24.7504 1.1989C24.8589 1.4024 24.9156 1.63592 24.9956 1.85443V20.2628C24.9773 20.3045 24.9539 20.3445 24.9423 20.3879C24.7571 21.0685 24.3585 21.5739 23.7146 21.8691C23.5595 21.9408 23.5261 22.0242 23.5278 22.1794C23.5344 23.1201 23.5311 24.0592 23.5311 25H23.5294ZM12.4988 20.6064C15.8832 20.6064 19.2676 20.6064 22.6504 20.6064C23.2492 20.6064 23.5294 20.3262 23.5311 19.724C23.5311 13.931 23.5311 8.1379 23.5311 2.34483C23.5311 1.74935 23.2459 1.46411 22.6487 1.46411C15.8799 1.46411 9.11267 1.46411 2.34381 1.46411C1.74832 1.46411 1.46476 1.74935 1.46476 2.3465C1.46476 8.13122 1.46476 13.9159 1.46476 19.7023C1.46476 20.3345 1.73832 20.6064 2.37217 20.6064C5.74826 20.6064 9.12435 20.6064 12.5004 20.6064H12.4988ZM2.94096 23.5188H4.86253V22.086H2.94096V23.5188ZM20.1233 23.5188H22.0449V22.086H20.1233V23.5188Z" fill="white" fill-opacity="0.75"/>
<path d="M22.0551 2.94824V19.1281H2.95117V2.94824H22.0551ZM20.5822 17.6703V4.40944H4.41237V17.6703H20.5822Z" fill="white" fill-opacity="0.75"/>
<path d="M12.8862 13.2303C12.2274 13.2303 11.5685 13.2253 10.9113 13.2353C10.8079 13.2353 10.6878 13.277 10.606 13.3404C9.63691 14.0894 8.31917 14.1778 7.29167 13.5556C6.21746 12.9051 5.67868 11.6991 5.91221 10.4664C6.13405 9.29378 7.08983 8.35968 8.29248 8.15118C9.13817 8.00272 9.89879 8.21289 10.5894 8.71664C10.6844 8.78669 10.8212 8.8334 10.938 8.8334C12.199 8.84174 13.4584 8.83507 14.7194 8.84007C15.7969 8.84341 16.7344 9.62905 16.8878 10.6499C17.0613 11.7942 16.4308 12.8183 15.3399 13.1419C15.1414 13.2003 14.9246 13.2237 14.7161 13.2287C14.1072 13.2403 13.4967 13.232 12.8862 13.232V13.2303ZM8.79456 12.4997C9.58521 12.4964 10.2524 11.8275 10.2524 11.0352C10.2524 10.2446 9.58687 9.57567 8.79456 9.57067C7.99391 9.56566 7.31502 10.2479 7.32503 11.0469C7.33337 11.8409 8.00391 12.5031 8.79456 12.4981V12.4997ZM11.6819 11.7675C12.6944 11.7675 13.7202 11.7758 14.7444 11.7625C15.1514 11.7575 15.4433 11.4272 15.44 11.0302C15.4366 10.6349 15.1464 10.3313 14.7327 10.3063C14.5309 10.2929 14.3257 10.3029 14.1222 10.3029C13.3016 10.3029 12.4809 10.3029 11.6819 10.3029V11.7691V11.7675Z" fill="white" fill-opacity="0.75"/>
</svg>
