<svg width="13" height="15" viewBox="0 0 13 15" fill="none" xmlns="http://www.w3.org/2000/svg">
<path d="M6.28967 0C6.41667 0.0810131 6.45914 0.198423 6.45368 0.34636C6.44667 0.536173 6.45485 0.726378 6.45096 0.916582C6.4494 0.994465 6.47121 1.03595 6.54913 1.06843C6.80156 1.17332 6.96479 1.36705 7.04232 1.62887C7.09608 1.81086 7.14166 1.99519 7.18373 2.17992C7.22347 2.35642 7.11984 2.4934 6.93791 2.49497C6.44784 2.49966 5.95776 2.49966 5.46808 2.49497C5.27953 2.49301 5.18019 2.35368 5.22421 2.16661C5.26434 1.99637 5.30952 1.8269 5.35471 1.65783C5.42834 1.38192 5.59352 1.18076 5.85492 1.06882C5.93127 1.03595 5.95621 0.996813 5.95426 0.917757C5.94997 0.73264 5.95854 0.547132 5.95114 0.362406C5.94491 0.210164 5.98464 0.0861008 6.11515 0H6.29006H6.28967Z" fill="#080E1E"/>
<path d="M6.20293 11.748C8.03935 11.748 9.87615 11.748 11.7126 11.748C11.9919 11.748 12.0573 11.8122 12.0904 12.0932C12.1913 12.9456 12.2946 13.7976 12.3994 14.6496C12.4274 14.8778 12.3331 14.9984 12.1084 14.9987C10.6459 14.9995 9.18351 14.9995 7.72107 14.9987C7.50603 14.9987 7.41838 14.9134 7.41721 14.699C7.41487 14.2403 7.41721 13.7812 7.41643 13.3225C7.41643 13.0458 7.34319 12.9707 7.07439 12.9703C6.48654 12.9699 5.89868 12.9695 5.31083 12.9703C5.06852 12.9703 4.98749 13.0513 4.98671 13.2959C4.98515 13.7546 4.98671 14.2137 4.98593 14.6723C4.98515 14.9173 4.9049 14.9987 4.66415 14.9987C3.21613 14.9987 1.7685 14.9987 0.32048 14.9987C0.0633662 14.9987 -0.025455 14.8888 0.00609988 14.6324C0.110114 13.7902 0.21218 12.948 0.31113 12.105C0.345802 11.8079 0.406574 11.748 0.707319 11.748C2.53906 11.748 4.3708 11.748 6.20215 11.748H6.20293Z" fill="#080E1E"/>
<path d="M6.2044 8.96724C5.81094 8.96724 5.41748 8.96645 5.02362 8.96724C4.79923 8.96802 4.71353 9.05334 4.71158 9.27485C4.71041 9.42631 4.71587 9.57777 4.70846 9.72845C4.70613 9.77228 4.66912 9.81455 4.64847 9.8576C4.62315 9.81611 4.58186 9.77698 4.57445 9.73236C4.48252 9.16449 4.39642 8.59583 4.30721 8.02757C4.26358 7.7493 4.14944 7.50118 3.94102 7.31254C3.80428 7.18847 3.77467 7.06128 3.80896 6.88399C4.01621 5.81203 4.21138 4.73812 4.41629 3.66577C4.4942 3.25875 4.78054 3.00749 5.18724 3.00202C5.86236 2.99262 6.53787 2.99301 7.21338 3.00202C7.62164 3.00749 7.90992 3.2564 7.98745 3.66225C8.19898 4.76787 8.40545 5.87465 8.60608 6.98261C8.61971 7.05776 8.59595 7.17634 8.54375 7.22174C8.1869 7.53092 8.09613 7.94655 8.03809 8.38527C7.9781 8.83965 7.90213 9.29168 7.82889 9.7441C7.82227 9.7852 7.7837 9.8212 7.76033 9.85995C7.73812 9.81807 7.69878 9.77698 7.69644 9.73432C7.68865 9.57855 7.69449 9.42201 7.69293 9.26585C7.6906 9.06117 7.60255 8.96998 7.39998 8.9688C7.00145 8.96685 6.60332 8.96802 6.20479 8.96802L6.2044 8.96724ZM5.88418 4.72012C5.88418 4.67629 5.88924 4.63206 5.8834 4.58901C5.86509 4.46025 5.7825 4.38902 5.6594 4.37885C5.54214 4.36906 5.45098 4.42542 5.41319 4.54126C5.39527 4.59527 5.39254 4.65554 5.39176 4.71307C5.38826 4.96903 5.47474 5.09661 5.64537 5.09387C5.81133 5.09114 5.88924 4.97177 5.88418 4.71973V4.72012ZM6.51956 4.72403H6.51761C6.51761 4.76787 6.51449 4.8117 6.518 4.85514C6.5293 4.99016 6.6224 5.08566 6.74785 5.09348C6.86433 5.10092 6.98236 5.02069 6.99873 4.89663C7.01353 4.78313 7.01314 4.66298 6.99171 4.55105C6.96756 4.42542 6.86433 4.36789 6.74044 4.37924C6.61734 4.39059 6.5367 4.46416 6.52034 4.59292C6.51488 4.63597 6.51956 4.6802 6.51956 4.72403ZM5.67965 6.30124C5.67965 6.30124 5.67576 6.30124 5.67381 6.30085C5.67381 6.26211 5.67693 6.22297 5.67342 6.18422C5.6594 6.03433 5.55733 5.93884 5.41709 5.94236C5.27528 5.94588 5.18452 6.04177 5.17867 6.1987C5.17594 6.2762 5.17361 6.35486 5.1814 6.43157C5.19464 6.55837 5.26944 6.63586 5.39566 6.64995C5.52928 6.66521 5.62044 6.60025 5.65979 6.47305C5.67654 6.41865 5.67381 6.35838 5.67965 6.30085V6.30124ZM7.22467 6.30242C7.22467 6.25858 7.22779 6.21475 7.2239 6.17131C7.21221 6.04137 7.12533 5.95332 7.00262 5.94314C6.87251 5.93257 6.75758 6.00928 6.7385 6.13961C6.72369 6.23941 6.72408 6.3439 6.73616 6.44409C6.75213 6.5752 6.86433 6.65856 6.99171 6.6523C7.12066 6.64604 7.21221 6.55485 7.2239 6.41865C7.22701 6.37991 7.22428 6.34116 7.2239 6.30203L7.22467 6.30242ZM5.44981 7.86241C5.44981 7.86241 5.4502 7.86241 5.45059 7.86241C5.45059 7.81857 5.45448 7.77474 5.44981 7.7313C5.43579 7.59589 5.34112 7.50157 5.21334 7.50235C5.0805 7.50313 4.98739 7.57201 4.96792 7.70351C4.95272 7.80723 4.95272 7.91759 4.96986 8.0213C4.99168 8.15358 5.08829 8.21738 5.22113 8.21425C5.34385 8.21151 5.43462 8.12188 5.44903 7.99312C5.4541 7.95007 5.44981 7.90585 5.44981 7.86202V7.86241ZM6.95237 7.85654C6.95237 7.89528 6.94964 7.93442 6.95276 7.97317C6.96366 8.11249 7.05054 8.20485 7.17754 8.21464C7.31194 8.22521 7.42218 8.14145 7.44088 7.99939C7.45257 7.90898 7.45257 7.81427 7.44166 7.72386C7.42452 7.58297 7.31233 7.49335 7.18182 7.50196C7.05521 7.51018 6.96522 7.60293 6.95315 7.7403C6.94964 7.77865 6.95276 7.81779 6.95237 7.85693V7.85654Z" fill="#080E1E"/>
<path d="M2.4686 7.42479C2.4686 7.16844 2.4686 6.91092 2.4686 6.6534C2.4686 6.51564 2.52508 6.41584 2.66572 6.38531C2.82739 6.35048 2.95906 6.46085 2.96374 6.63853C2.96919 6.853 2.9649 7.06786 2.96568 7.28272C2.96568 7.33047 2.96958 7.37782 2.97153 7.42479C3.07048 7.44005 3.16319 7.44475 3.25007 7.46979C3.55821 7.55903 3.75533 7.76645 3.80754 8.08189C3.96103 9.01491 4.104 9.9495 4.24619 10.8845C4.2867 11.1502 4.19593 11.2496 3.93415 11.25C3.118 11.2504 2.30186 11.2504 1.48611 11.25C1.22783 11.25 1.13433 11.1369 1.17368 10.8853C1.31431 9.98981 1.45572 9.09397 1.59129 8.19774C1.66492 7.71205 1.92009 7.47058 2.41406 7.43848C2.42769 7.4377 2.44094 7.43183 2.4686 7.42479ZM2.96452 10.1636C2.96452 10.0563 2.9688 9.94871 2.96335 9.84148C2.95633 9.69707 2.85816 9.6004 2.72415 9.59648C2.58508 9.59257 2.47483 9.69198 2.47054 9.84148C2.4647 10.0513 2.4647 10.261 2.47054 10.4708C2.47483 10.6176 2.59014 10.7228 2.72454 10.7185C2.85427 10.7142 2.95633 10.6117 2.96335 10.4708C2.96841 10.3687 2.96452 10.2657 2.96452 10.1636Z" fill="#080E1E"/>
<path d="M9.93401 7.42838C10.0248 7.43738 10.1023 7.43777 10.1767 7.45343C10.5156 7.52348 10.747 7.77552 10.8039 8.13832C10.9496 9.06782 11.0934 9.99732 11.2371 10.9268C11.2663 11.1155 11.1631 11.247 10.9749 11.2477C10.1202 11.2505 9.26513 11.2505 8.41003 11.2477C8.21875 11.247 8.12214 11.1295 8.15175 10.9272C8.23122 10.382 8.31731 9.83803 8.40185 9.29403C8.46145 8.90853 8.51872 8.52303 8.58455 8.13871C8.65974 7.69999 8.92581 7.46595 9.36719 7.43816C9.3855 7.43699 9.40381 7.43268 9.43731 7.42799C9.43731 7.17751 9.43654 6.92978 9.43731 6.68243C9.43809 6.48792 9.52185 6.38343 9.67651 6.37952C9.83623 6.37521 9.93206 6.48636 9.93323 6.68204C9.93479 6.92978 9.93323 7.17712 9.93323 7.42877L9.93401 7.42838ZM9.93362 10.1644C9.93362 10.0572 9.93791 9.94957 9.93245 9.84233C9.92466 9.69205 9.81909 9.59225 9.68001 9.59499C9.54678 9.59773 9.44355 9.69518 9.43965 9.83803C9.4342 10.0478 9.4342 10.2576 9.43965 10.4673C9.44316 10.6137 9.5573 10.7206 9.69092 10.717C9.81987 10.7139 9.92466 10.6114 9.93245 10.4713C9.9383 10.3691 9.93362 10.2666 9.93362 10.164V10.1644Z" fill="#080E1E"/>
<path d="M6.21624 9.46656C6.47374 9.46656 6.73124 9.46578 6.98836 9.46656C7.16405 9.46734 7.19444 9.49669 7.19483 9.66772C7.19561 10.1311 7.19249 10.5949 7.19677 11.0583C7.19794 11.1952 7.14808 11.2571 7.009 11.2508C6.88785 11.2449 6.7663 11.2508 6.64476 11.2492C6.48192 11.2477 6.45348 11.2187 6.45153 11.0492C6.44959 10.854 6.45699 10.6587 6.44686 10.4638C6.43673 10.272 6.26259 10.1687 6.09508 10.2434C5.98639 10.292 5.95328 10.3839 5.9525 10.4935C5.95133 10.679 5.95289 10.8645 5.95133 11.0496C5.94977 11.2183 5.92056 11.2477 5.75733 11.2488C5.63578 11.25 5.51424 11.2445 5.39308 11.2504C5.25323 11.2571 5.20453 11.1937 5.20609 11.0575C5.21038 10.5941 5.20726 10.1303 5.20804 9.66694C5.20804 9.49591 5.23842 9.46695 5.4149 9.46617C5.68214 9.46539 5.94899 9.46617 6.21624 9.46617V9.46656Z" fill="#080E1E"/>
<path d="M6.91861 14.236C6.91861 14.3918 6.92134 14.5479 6.91783 14.7037C6.91316 14.9088 6.82395 14.9968 6.62176 14.9984C6.3405 15.0004 6.05923 15.0004 5.77796 14.9984C5.58357 14.9968 5.49046 14.9088 5.48774 14.7135C5.48345 14.3918 5.48306 14.0705 5.48774 13.7488C5.49046 13.559 5.58045 13.4729 5.76822 13.4713C6.05923 13.4686 6.35024 13.4686 6.64124 13.4713C6.82122 13.4732 6.91004 13.5586 6.91667 13.7394C6.92251 13.9049 6.91783 14.0705 6.91783 14.2364H6.91822L6.91861 14.236Z" fill="#080E1E"/>
</svg>
