<svg width="10" height="12" viewBox="0 0 10 12" fill="none" xmlns="http://www.w3.org/2000/svg">
<path d="M4.6363 0C3.40709 0.00135304 2.22861 0.49139 1.35943 1.36259C0.490249 2.2338 0.0013499 3.41502 0 4.64708C0 7.10167 3.89449 10.4713 4.3368 10.8477L4.6363 11.1014L4.93581 10.8477C5.37811 10.4713 9.2726 7.10167 9.2726 4.64708C9.27125 3.41502 8.78235 2.2338 7.91317 1.36259C7.04399 0.49139 5.86551 0.00135304 4.6363 0ZM4.6363 6.97062C4.17781 6.97062 3.72962 6.83435 3.34841 6.57904C2.96719 6.32372 2.67006 5.96084 2.49461 5.53626C2.31915 5.11169 2.27325 4.64451 2.36269 4.19378C2.45214 3.74306 2.67292 3.32904 2.99712 3.00409C3.32132 2.67914 3.73438 2.45784 4.18405 2.36819C4.63373 2.27853 5.09983 2.32455 5.52342 2.50041C5.94701 2.67627 6.30905 2.97409 6.56377 3.35619C6.81849 3.7383 6.95445 4.18753 6.95445 4.64708C6.95372 5.2631 6.70925 5.85367 6.27467 6.28926C5.84009 6.72485 5.25089 6.96989 4.6363 6.97062Z" fill="#64646E"/>
<path d="M4.63601 6.04118C5.40417 6.04118 6.0269 5.41701 6.0269 4.64705C6.0269 3.8771 5.40417 3.25293 4.63601 3.25293C3.86784 3.25293 3.24512 3.8771 3.24512 4.64705C3.24512 5.41701 3.86784 6.04118 4.63601 6.04118Z" fill="#64646E"/>
</svg>
