<svg width="25" height="30" viewBox="0 0 25 30" fill="none" xmlns="http://www.w3.org/2000/svg">
<path d="M6.81166 11.5322C6.17452 11.5722 5.60565 11.4323 5.15055 11.0326C4.44515 10.4196 4.36172 9.46695 4.93059 8.75409C5.04436 8.61419 5.11263 8.42098 5.12021 8.25443C5.13538 7.32171 5.12021 6.38234 5.1278 5.44963C5.14297 2.80472 7.47155 0.42631 10.46 0.139834C12.1439 -0.0200592 13.8657 -0.119993 15.5268 0.319714C18.0601 0.979275 19.8729 3.13117 19.8881 5.45629C19.8881 6.40899 19.8881 7.36835 19.8881 8.32105C19.8881 8.44097 19.9336 8.58754 20.0171 8.68747C20.5025 9.28041 20.6163 9.90666 20.2446 10.5596C19.8729 11.2125 19.251 11.5389 18.4166 11.5389C18.3711 11.5389 18.3256 11.5389 18.2725 11.5389C18.2498 11.5389 18.227 11.5456 18.1815 11.5589C18.1208 11.7987 18.0753 12.0519 17.9995 12.2984C17.6885 13.3244 17.0665 14.1771 16.1411 14.85C15.9667 14.9766 15.8984 15.1032 15.906 15.2964C15.9212 15.8227 15.906 16.3557 15.906 16.8887C15.906 17.3284 16.1184 17.5149 16.619 17.5149C18.0601 17.5149 19.5089 17.5149 20.95 17.5149C23.2482 17.5149 24.9852 19.0406 24.9928 21.0592C24.9928 23.844 24.9928 26.6288 24.9928 29.4137C24.9928 29.7801 24.7728 29.9933 24.4087 29.9866C24.0674 29.9799 23.8626 29.7734 23.855 29.4203C23.855 29.3404 23.855 29.2538 23.855 29.1738C23.855 26.4823 23.855 23.7907 23.855 21.0992C23.855 19.8733 23.0207 18.874 21.7313 18.6142C21.1776 18.5009 20.5859 18.5342 20.0019 18.5143C19.562 18.5009 19.0462 18.3877 18.7124 18.5476C18.3939 18.7008 18.2649 19.1605 18.0526 19.4803C17.0513 20.9859 15.6481 22.0319 13.676 22.3917C12.159 22.6715 10.7482 22.4183 9.42088 21.7321C9.32986 21.6855 9.24642 21.6388 9.09473 21.5589V21.9253C9.09473 24.3903 9.09473 26.8487 9.09473 29.3137C9.09473 29.8267 8.92027 29.9799 8.33623 29.9799C6.96335 29.9799 5.59048 29.9799 4.2176 29.9799C3.57288 29.9799 3.42118 29.8467 3.42118 29.2871C3.42118 25.8494 3.42118 22.405 3.42118 18.9673V18.5942C2.39721 18.6875 1.40358 19.5469 1.21396 20.5063C1.16845 20.7394 1.1457 20.9793 1.1457 21.2191C1.1457 23.924 1.1457 26.6222 1.1457 29.327C1.1457 29.4669 1.13053 29.6202 1.05468 29.7468C0.933318 29.9533 0.683014 30.0532 0.455466 29.96C0.281012 29.8867 0.152068 29.7068 0.0231237 29.5602C-0.0223861 29.5069 0.00795375 29.4003 0.00795375 29.3137C0.00795375 26.5822 0.00795375 23.8507 0.00795375 21.1125C0.00795375 19.0139 1.72215 17.5149 4.12658 17.5083C5.52221 17.5083 6.91784 17.5083 8.31348 17.5083C8.89752 17.5083 9.09473 17.335 9.09473 16.8087C9.09473 16.2757 9.09473 15.7494 9.09473 15.2164C9.09473 15.1165 9.04922 14.9833 8.96578 14.9233C7.79011 14.0572 7.07713 12.9713 6.86475 11.6388C6.86475 11.6055 6.84199 11.5789 6.81166 11.5123V11.5322ZM12.508 4.54356C11.7874 4.54356 11.0668 4.54356 10.3462 4.54356C9.58016 4.54356 9.1099 4.96329 9.10231 5.62951C9.10231 6.25576 9.10231 6.87534 9.10231 7.50159C9.10231 8.10786 8.79891 8.56089 8.1997 8.84736C8.01008 8.94063 7.96457 9.04057 7.96457 9.21379C7.97215 9.77341 7.96457 10.333 7.96457 10.8993C7.96457 13.0579 9.57258 14.6835 11.9922 14.9899C14.3208 15.2831 16.7252 13.6908 16.9679 11.6455C17.0665 10.8127 17.0286 9.96662 17.0362 9.12718C17.0362 9.04057 16.9148 8.92065 16.8086 8.86735C16.2246 8.55422 15.906 8.12118 15.906 7.51492C15.906 6.88867 15.906 6.26908 15.906 5.64283C15.906 4.97661 15.4282 4.55689 14.6621 4.55023C13.9415 4.55023 13.2209 4.55023 12.5004 4.55023L12.508 4.54356ZM17.3092 18.5143C17.0134 18.5143 16.7555 18.5143 16.4976 18.5143C15.5116 18.5076 14.7834 17.868 14.7759 16.9953C14.7759 16.5489 14.7759 16.1092 14.7759 15.6162C13.2513 16.1558 11.757 16.1625 10.2325 15.6162C10.2325 16.0959 10.2325 16.5289 10.2325 16.9686C10.2325 17.5882 9.92907 18.0479 9.31469 18.341C9.14023 18.4276 9.08714 18.5143 9.09473 18.6808C9.1099 19.0739 9.12507 19.4736 9.09473 19.8667C9.06439 20.1865 9.2085 20.3797 9.48914 20.5662C12.4245 22.5449 15.997 21.2058 17.3244 18.5209L17.3092 18.5143ZM6.81166 9.04723C6.12142 9.02058 5.67391 9.3337 5.69667 9.80672C5.71942 10.2797 6.17452 10.5662 6.81166 10.5063V9.04057V9.04723ZM18.1967 10.5196C18.629 10.5596 18.9703 10.4729 19.1979 10.1532C19.3799 9.88667 19.3647 9.61352 19.1675 9.36702C18.9324 9.07388 18.5987 9.00059 18.2043 9.04723V10.5196H18.1967Z" fill="#EFEEEE"/>
<path d="M20.4493 27.0156C20.4493 27.7951 20.4493 28.5745 20.4493 29.354C20.4493 29.7804 20.2521 29.9936 19.8728 29.9936C19.5087 29.9936 19.3191 29.7737 19.3115 29.374C19.3115 27.7951 19.3115 26.2161 19.3115 24.6372C19.3115 24.2308 19.5011 24.0176 19.8652 24.0176C20.2445 24.0176 20.4417 24.2308 20.4417 24.6572C20.4417 25.45 20.4417 26.2361 20.4417 27.0289L20.4493 27.0156Z" fill="#EFEEEE"/>
<path d="M10.8012 6.60244C10.8012 6.41589 10.7936 6.22935 10.8012 6.04281C10.8164 5.74967 11.0439 5.5498 11.3625 5.5498C11.6811 5.5498 11.9162 5.74301 11.9314 6.03615C11.9466 6.33595 11.9314 6.63575 11.9314 6.94221C11.9314 7.30197 12.1589 7.54181 12.4927 7.54181C12.8264 7.54181 13.0615 7.30863 13.0691 6.94887C13.0691 6.65573 13.0691 6.36926 13.0691 6.07612C13.0767 5.75633 13.2967 5.5498 13.6304 5.5498C13.9641 5.5498 14.1917 5.74967 14.1993 6.0628C14.2069 6.42922 14.2145 6.78898 14.1993 7.1554C14.1689 7.92822 13.3877 8.54781 12.4699 8.54114C11.5825 8.53448 10.8316 7.90157 10.8012 7.13541C10.8012 6.9622 10.8012 6.78232 10.8012 6.6091V6.60244Z" fill="#EFEEEE"/>
</svg>
