<svg width="15" height="15" viewBox="0 0 15 15" fill="none" xmlns="http://www.w3.org/2000/svg">
<path d="M7.50075 0C11.6346 0 15.1189 3.4252 15.0008 7.5C14.8826 12.1654 11.5165 15 7.50075 15C3.36689 15 0.0598075 12.0472 0.000752399 7.5C-0.0583027 3.36614 3.36689 0 7.50075 0ZM7.50075 1.35827C4.25272 1.35827 1.41808 3.66142 1.29997 7.55905C1.24091 10.9252 4.07556 13.7008 7.4417 13.7008C10.8078 13.7008 13.7015 10.9252 13.6425 7.55905C13.5834 3.66142 10.7488 1.41732 7.50075 1.35827Z" fill="#080E1E"/>
<path d="M7.49988 13.1692C4.54713 13.1692 1.9487 11.1022 1.88965 7.49988C1.88965 4.42902 4.42902 1.88965 7.55894 1.88965C10.6298 1.88965 13.2282 4.42902 13.1692 7.49988C13.1101 11.1022 10.4526 13.1101 7.55894 13.1692H7.49988ZM8.85815 9.38965C8.85815 9.38965 9.03532 9.38965 9.09437 9.38965C9.33059 9.38965 9.38965 9.27154 9.38965 9.09437C9.38965 8.74004 9.38965 8.38571 9.38965 8.03138C9.38965 7.67705 9.21248 7.44083 8.91721 7.20461C8.85815 7.20461 8.7991 7.0865 8.7991 7.02744C8.74004 6.85028 8.68099 6.61406 8.56288 6.43689C8.38571 5.96445 7.91327 5.61012 7.44083 5.61012C6.90933 5.61012 6.37784 5.61012 5.9054 5.61012C5.3739 5.61012 4.96051 5.9054 4.78335 6.43689C4.72429 6.61406 4.66524 6.85028 4.54713 7.02744C4.54713 7.0865 4.48807 7.14555 4.42902 7.20461C4.13374 7.38177 3.95658 7.67705 3.95658 8.03138C3.95658 8.38571 3.95658 8.74004 3.95658 9.09437C3.95658 9.33059 4.07469 9.38965 4.25185 9.38965C4.31091 9.38965 4.42902 9.38965 4.48807 9.38965C4.48807 9.80303 4.54713 9.92114 4.72429 9.92114C5.07862 9.92114 4.96051 9.62587 5.01957 9.38965H8.2676C8.2676 9.80303 8.38571 9.92114 8.56288 9.92114C8.74004 9.92114 8.7991 9.80303 8.85815 9.38965ZM6.79122 3.42508C6.79122 3.42508 6.79122 3.48414 6.79122 3.54319C6.79122 3.89752 6.79122 4.25185 6.79122 4.60618C6.79122 4.8424 6.90933 4.90146 7.14555 4.90146C7.32272 4.90146 7.49988 4.90146 7.67705 4.90146C9.27154 5.07862 10.3345 6.08256 10.5117 7.67705C10.6889 8.91721 10.0393 10.3345 8.68099 10.9251C8.14949 11.1613 7.55894 11.2204 7.02744 11.2204C6.73217 11.2204 6.67311 11.2794 6.67311 11.5747C6.67311 11.8109 6.67311 12.0471 6.67311 12.2833C6.67311 12.5196 6.79122 12.6377 6.96839 12.6377C7.14555 12.6377 7.20461 12.5196 7.20461 12.2833C7.20461 12.1062 7.20461 11.929 7.20461 11.7519C9.56681 11.7519 10.9841 10.0983 11.1022 8.20855C11.1022 7.32272 10.9251 6.49595 10.3345 5.78729C9.56681 4.8424 8.56288 4.42902 7.38177 4.36996V3.42508C7.38177 3.42508 7.38177 3.42508 7.44083 3.42508C7.61799 3.54319 7.7361 3.54319 7.85422 3.42508C7.97233 3.30697 7.91327 3.18886 7.85422 3.0117C7.67705 2.83453 7.49988 2.65737 7.38177 2.53925C7.26366 2.42114 7.14555 2.42114 7.02744 2.53925C6.85028 2.71642 6.61406 2.89359 6.43689 3.12981C6.43689 3.18886 6.43689 3.36603 6.43689 3.42508C6.43689 3.48414 6.61406 3.54319 6.67311 3.54319C6.67311 3.54319 6.79122 3.54319 6.90933 3.42508H6.79122Z" fill="#080E1E"/>
<path d="M8.91742 8.79875H4.48828C4.48828 8.50348 4.48828 8.14915 4.48828 7.85387C4.48828 7.6767 4.66545 7.55859 4.90167 7.55859C5.49222 7.55859 6.14182 7.55859 6.73238 7.55859C7.32293 7.55859 7.91348 7.55859 8.44497 7.55859C8.74025 7.55859 8.85836 7.6767 8.91742 7.97198C8.91742 8.2082 8.91742 8.50348 8.91742 8.7397V8.79875Z" fill="#080E1E"/>
<path d="M8.2671 7.02743H5.07812C5.07812 7.02743 5.25529 6.55499 5.3734 6.37782C5.49151 6.20066 5.66868 6.1416 5.84584 6.1416C6.37734 6.1416 6.90883 6.1416 7.38127 6.1416C7.67655 6.1416 7.91277 6.31877 8.03088 6.61404C8.03088 6.73215 8.14899 6.90932 8.20805 7.08648L8.2671 7.02743Z" fill="#080E1E"/>
</svg>
