<svg width="10" height="15" viewBox="0 0 10 15" fill="none" xmlns="http://www.w3.org/2000/svg">
<path d="M0 10.875C0 12.3225 0.98125 13.5 2.1875 13.5L1.25 14.625V15H8.75V14.625L7.8125 13.5C9.01875 13.5 10 12.3225 10 10.875V3C10 0.375 7.7625 0 5 0C2.2375 0 0 0.375 0 3V10.875ZM5 12C4.3125 12 3.75 11.325 3.75 10.5C3.75 9.675 4.3125 9 5 9C5.6875 9 6.25 9.675 6.25 10.5C6.25 11.325 5.6875 12 5 12ZM8.75 6.75H1.25V3H8.75V6.75ZM0 10.875C0 12.3225 0.98125 13.5 2.1875 13.5L1.475 14.3625C1.275 14.595 1.4125 15 1.69375 15H8.30625C8.5875 15 8.725 14.595 8.525 14.3625L7.8125 13.5C9.01875 13.5 10 12.3225 10 10.875V3C10 0.375 7.7625 0 5 0C2.2375 0 0 0.375 0 3V10.875ZM5 12C4.3125 12 3.75 11.325 3.75 10.5C3.75 9.675 4.3125 9 5 9C5.6875 9 6.25 9.675 6.25 10.5C6.25 11.325 5.6875 12 5 12ZM8.75 6.75H1.25V3H8.75V6.75Z" fill="#080E1E"/>
</svg>
