<svg width="25" height="25" viewBox="0 0 25 25" fill="none" xmlns="http://www.w3.org/2000/svg">
<path d="M25 11.9792C25 12.8427 24.301 13.5417 23.4375 13.5417H1.5625C0.698958 13.5417 0 12.8427 0 11.9792C0 11.1156 0.698958 10.4167 1.5625 10.4167H23.4375C24.301 10.4167 25 11.1156 25 11.9792ZM1.5625 8.33333C2.42604 8.33333 3.125 7.63437 3.125 6.77083V5.72917C3.125 4.29375 4.29375 3.125 5.72917 3.125H6.77083C7.63437 3.125 8.33333 2.42604 8.33333 1.5625C8.33333 0.698958 7.63437 0 6.77083 0H5.72917C2.56979 0 0 2.56979 0 5.72917V6.77083C0 7.63437 0.698958 8.33333 1.5625 8.33333ZM6.77083 21.875H5.72917C4.29375 21.875 3.125 20.7062 3.125 19.2708V18.2292C3.125 17.3656 2.42604 16.6667 1.5625 16.6667C0.698958 16.6667 0 17.3656 0 18.2292V19.2708C0 22.4302 2.56979 25 5.72917 25H6.77083C7.63437 25 8.33333 24.301 8.33333 23.4375C8.33333 22.574 7.63437 21.875 6.77083 21.875ZM23.4375 16.6667C22.574 16.6667 21.875 17.3656 21.875 18.2292V19.2708C21.875 20.7062 20.7062 21.875 19.2708 21.875H18.2292C17.3656 21.875 16.6667 22.574 16.6667 23.4375C16.6667 24.301 17.3656 25 18.2292 25H19.2708C22.4302 25 25 22.4302 25 19.2708V18.2292C25 17.3656 24.301 16.6667 23.4375 16.6667ZM19.2708 0H18.2292C17.3656 0 16.6667 0.698958 16.6667 1.5625C16.6667 2.42604 17.3656 3.125 18.2292 3.125H19.2708C20.7062 3.125 21.875 4.29375 21.875 5.72917V6.77083C21.875 7.63437 22.574 8.33333 23.4375 8.33333C24.301 8.33333 25 7.63437 25 6.77083V5.72917C25 2.56979 22.4302 0 19.2708 0Z" fill="white" fill-opacity="0.75"/>
</svg>
