<svg width="22" height="22" viewBox="0 0 22 22" fill="none" xmlns="http://www.w3.org/2000/svg">
<path d="M0.00387129 10.9777C0.00387129 9.15567 -0.00645645 7.33363 0.00662536 5.51228C0.0252153 2.80607 1.84841 0.612181 4.50195 0.092975C4.80352 0.0337552 5.11611 0.00896546 5.42318 0.00758826C7.27047 -0.000674972 9.11707 -0.00274078 10.9644 0.00414525C11.8126 0.00758826 12.3435 0.826337 11.9854 1.56521C11.7727 2.00454 11.4057 2.19528 10.9217 2.19459C9.13498 2.19115 7.34759 2.18908 5.56089 2.19459C4.06681 2.19941 2.80682 3.0884 2.37168 4.46904C2.26221 4.81541 2.20299 5.19277 2.20162 5.55635C2.18922 9.18253 2.18922 12.8094 2.19611 16.4356C2.19955 18.3506 3.64406 19.7966 5.55813 19.8001C9.18317 19.807 12.8089 19.807 16.4339 19.8001C18.3473 19.7966 19.7836 18.352 19.7967 16.4349C19.8035 15.3524 19.7884 14.2692 19.8028 13.1868C19.8132 12.3949 20.5871 11.8839 21.3052 12.1821C21.7224 12.3556 21.9765 12.6765 21.9806 13.1317C21.9903 14.4118 22.0274 15.6946 21.9627 16.972C21.8367 19.431 19.7581 21.6159 17.3132 21.9313C17.0502 21.9651 16.783 21.9905 16.5179 21.9905C12.8413 21.9947 9.16389 22.0084 5.48722 21.9885C2.79305 21.9733 0.609766 20.1368 0.096821 17.4933C0.0252153 17.1256 0.0100679 16.742 0.00800239 16.366C-0.000948323 14.5702 0.00387129 12.7736 0.00387129 10.9777Z" fill="#080E1E"/>
<path d="M14.2959 4.29365C14.2959 3.62846 14.3042 2.98599 14.2932 2.34353C14.2849 1.83327 14.4584 1.43044 14.9314 1.20596C15.3962 0.984914 15.8079 1.11368 16.1949 1.42493C17.9616 2.84552 19.7332 4.25991 21.5026 5.67636C22.1195 6.17009 22.1664 6.87591 21.6073 7.43712C19.8185 9.23162 18.0263 11.0227 16.2334 12.8124C15.852 13.1932 15.3983 13.3013 14.9666 13.1057C14.4915 12.8909 14.2897 12.5039 14.2939 11.9902C14.3001 11.2699 14.2952 10.5489 14.2952 9.80867C13.7575 9.80867 13.2363 9.78526 12.7185 9.81349C11.7801 9.86582 10.8657 10.0483 9.99478 10.4195C8.94961 10.865 8.12821 11.5515 7.58841 12.5693C7.18769 13.3247 6.22102 13.4245 5.73768 12.7614C5.60411 12.5782 5.51873 12.3262 5.49945 12.0976C5.32663 10.082 5.85886 8.26826 7.14638 6.70169C7.98568 5.67981 9.10934 5.08348 10.359 4.71094C11.4792 4.37697 12.6304 4.2723 13.7947 4.29296C13.9489 4.29572 14.1032 4.29296 14.2959 4.29296V4.29365Z" fill="#080E1E"/>
</svg>
