<svg width="21" height="16" viewBox="0 0 21 16" fill="none" xmlns="http://www.w3.org/2000/svg">
<path d="M20.9067 4.93184V14.0763C20.8059 14.2571 20.7341 14.4614 20.5988 14.6119C20.2758 14.9736 19.8326 15.0468 19.3702 15.0468C13.4257 15.0468 7.47992 15.0468 1.53548 15.0454C1.39329 15.0454 1.24971 15.0385 1.1089 15.0164C0.569128 14.9322 -0.0493364 14.5415 0.00312263 13.756C0.0155471 13.5669 0.00450313 13.375 0.00450313 13.1845C0.00450313 10.5381 0.00726413 7.89301 0.00174213 5.24659C0.00174213 4.87386 0.121846 4.56601 0.40899 4.3327C0.730647 4.07041 1.11443 4 1.51891 4C7.47715 4 13.4368 4 19.395 4C20.0894 4 20.6458 4.22778 20.9067 4.93184ZM13.9089 9.27627C13.5748 9.59379 13.2366 9.84918 12.9826 10.1722C12.6609 10.5795 12.3075 10.7079 11.834 10.5077C11.5579 10.3903 11.3495 10.469 11.1659 10.701C11.0651 10.828 11.0444 10.9094 11.1659 11.0267C11.3978 11.2476 11.62 11.4768 11.8464 11.7032C12.2357 12.0925 12.6223 12.4859 13.0199 12.8683C13.0723 12.9194 13.2021 12.9594 13.2545 12.9305C13.5417 12.7717 13.6135 12.5853 13.5445 12.2664C13.5376 12.2333 13.5334 12.1988 13.5196 12.167C13.3236 11.6963 13.4644 11.3484 13.862 11.0378C14.1891 10.7824 14.4625 10.458 14.7703 10.1543C14.8242 10.2468 14.8656 10.3172 14.9042 10.3876C15.3363 11.1731 15.7684 11.9586 16.2019 12.7441C16.3344 12.9829 16.3979 12.9912 16.594 12.7979C16.7099 12.6833 16.8176 12.5577 16.9432 12.4542C17.0564 12.3603 17.0592 12.2651 17.0192 12.1353C16.7196 11.1551 16.4325 10.1708 16.1274 9.19068C16.0722 9.01122 16.0929 8.89802 16.2392 8.77239C16.5581 8.49629 16.8632 8.20501 17.1655 7.91096C17.3933 7.69008 17.4747 7.41398 17.385 7.10751C17.3091 6.84521 17.1213 6.67955 16.8549 6.62295C16.5484 6.55669 16.293 6.66713 16.0832 6.88939C15.7947 7.19586 15.5006 7.49957 15.2231 7.81708C15.1113 7.94409 15.0105 7.96204 14.8545 7.91234C14.0304 7.65695 13.2035 7.4126 12.3766 7.16687C12.1571 7.10198 11.9113 6.95841 11.7194 7.00949C11.5248 7.06057 11.3826 7.30768 11.2169 7.4692C11.2073 7.47886 11.1976 7.48853 11.1879 7.49819C11.0706 7.62243 11.0816 7.72183 11.2376 7.80466C11.5013 7.94685 11.7622 8.09318 12.0231 8.23676C12.6292 8.57084 13.2352 8.90492 13.9089 9.27489V9.27627ZM6.46663 5.15272H5.04057V6.37998H6.46663V5.15272ZM5.03229 8.87869H6.46111V7.6528H5.03229V8.87869ZM5.03367 11.3898H6.46387V10.1681H5.03367V11.3898ZM6.46801 12.6654H5.04057V13.901H6.46801V12.6654Z" fill="#080E1E"/>
<path d="M3.89844 2.46371C4.25185 2.40021 4.60387 2.33671 4.95728 2.2732C7.39939 1.84249 9.84287 1.41177 12.285 0.981055C14.0713 0.666301 15.8563 0.340503 17.6455 0.0395536C18.3909 -0.086072 19.0701 0.0768271 19.5795 0.682867C19.7038 0.830581 19.817 1.01005 19.8625 1.19365C19.973 1.63127 20.0406 2.08131 20.1262 2.52169H3.90396C3.90258 2.50237 3.89982 2.48304 3.89844 2.46371Z" fill="#080E1E"/>
</svg>
