<svg width="16" height="15" viewBox="0 0 16 15" fill="none" xmlns="http://www.w3.org/2000/svg">
<path d="M0 7.0763C0.07611 6.90545 0.209716 6.84919 0.396268 6.85C1.43864 6.8553 2.48102 6.85041 3.52298 6.8553C3.63922 6.85571 3.68927 6.82105 3.73477 6.71382C3.863 6.40965 4.01025 6.11322 4.15048 5.81394C4.16909 5.77398 4.18977 5.73525 4.21997 5.6749C3.98502 5.6749 3.77075 5.6749 3.55649 5.6749C3.20034 5.6749 2.84461 5.67572 2.48847 5.6749C2.2531 5.67449 2.10709 5.5538 2.11081 5.36625C2.11453 5.18521 2.25972 5.06533 2.48392 5.06533C3.16518 5.06411 3.84604 5.06737 4.5273 5.06126C4.59266 5.06085 4.6787 5.02497 4.71923 4.97645C5.61518 3.90695 6.73615 3.19015 8.10571 2.85866C8.19299 2.83746 8.23518 2.80443 8.23063 2.70698C8.22236 2.52432 8.22402 2.34083 8.23022 2.15776C8.2327 2.07743 8.20044 2.04441 8.12846 2.01587C7.62713 1.81811 7.35165 1.35329 7.44182 0.868086C7.53696 0.35189 7.96632 0.00449757 8.52018 0.00205115C9.2271 -0.00121075 9.93401 1.24612e-05 10.6409 0.00164341C11.2159 0.00286662 11.644 0.336804 11.7412 0.857077C11.8384 1.37531 11.5588 1.82871 11.0144 2.03544C11.0004 2.04074 10.9863 2.04726 10.9677 2.0546V2.78201C11.4248 2.95325 11.8843 3.0821 12.3042 3.28923C14.3016 4.27514 15.4764 5.86899 15.7928 8.04875C16.0058 9.51824 15.6696 10.8854 14.8783 12.1461C14.7972 12.2754 14.6901 12.35 14.5329 12.3231C14.3972 12.2998 14.2971 12.2118 14.2913 12.0809C14.2872 11.9834 14.3265 11.8713 14.3798 11.7857C14.7484 11.1944 14.999 10.5596 15.1322 9.87908C15.6501 7.23409 14.142 4.58747 11.577 3.63866C8.82752 2.62136 5.72934 3.86822 4.49049 6.49038C2.99973 9.64545 4.77714 13.355 8.20375 14.2105C9.74663 14.5958 11.2105 14.3719 12.5755 13.5544C12.6065 13.5361 12.6363 13.5157 12.6678 13.499C12.8345 13.4101 13.0103 13.4505 13.1004 13.5972C13.1902 13.7432 13.148 13.9173 12.9875 14.0201C12.403 14.394 11.7714 14.6647 11.0943 14.8241C8.03994 15.5417 5.00465 14.0131 3.80798 11.1545C3.76414 11.0497 3.70664 11.0244 3.60075 11.0248C2.96084 11.0289 2.32094 11.0273 1.68145 11.0265C1.61444 11.0265 1.5466 11.0265 1.48125 11.015C1.33854 10.9894 1.23844 10.863 1.23927 10.7207C1.2401 10.5845 1.33358 10.4617 1.47008 10.4324C1.53461 10.4185 1.60327 10.4177 1.66987 10.4177C2.25807 10.4165 2.84627 10.4173 3.43446 10.4169C3.46466 10.4169 3.49486 10.4128 3.5325 10.41C3.46962 10.0246 3.40799 9.64667 3.34222 9.24424C3.30127 9.24424 3.24667 9.24424 3.19248 9.24424C2.80532 9.24424 2.41856 9.24546 2.03139 9.24383C1.81051 9.24301 1.66822 9.11702 1.67318 8.9315C1.67773 8.7521 1.81589 8.63508 2.03139 8.63426C2.46406 8.63263 2.89714 8.63385 3.33188 8.63385C3.38276 8.24406 3.43239 7.86364 3.48451 7.46405H3.30872C2.35403 7.46405 1.39935 7.46079 0.445078 7.4665C0.25563 7.46691 0.10341 7.42328 0 7.25937V7.0763ZM9.59482 1.46624C9.95055 1.46624 10.3059 1.46787 10.6612 1.46583C10.9462 1.4642 11.1427 1.28765 11.1423 1.04056C11.1418 0.792654 10.9458 0.614065 10.6595 0.612842C9.94849 0.609988 9.23744 0.609988 8.52639 0.612842C8.23973 0.614065 8.04822 0.791023 8.04863 1.04178C8.04863 1.29499 8.23725 1.46379 8.52804 1.46542C8.88336 1.46746 9.23909 1.46583 9.59441 1.46583L9.59482 1.46624ZM8.85523 2.69556H10.3336V2.08559H8.85523V2.69556Z" fill="#080E1E"/>
<path d="M0 10.745C0.0262645 10.7121 0.0525291 10.6792 0.0792987 10.6468C0.227289 10.4676 0.482358 10.4499 0.641966 10.6078C0.799048 10.7638 0.791472 11.0128 0.625298 11.1586C0.457609 11.3054 0.20052 11.2715 0.0676817 11.0842C0.0424273 11.0488 0.0227289 11.0098 0.000505087 10.9723C0.000505087 10.8964 0.000505087 10.821 0.000505087 10.745H0Z" fill="#080E1E"/>
<path d="M9.44555 3.75049C12.1626 3.76015 14.3523 5.94257 14.3456 8.6347C14.3392 11.3235 12.1245 13.5126 9.42272 13.5004C6.71289 13.4883 4.5189 11.2924 4.53032 8.60447C4.54173 5.91822 6.74629 3.74125 9.44513 3.75091L9.44555 3.75049ZM9.43709 4.37944C7.07609 4.38028 5.1637 6.27972 5.16327 8.62462C5.16327 10.9645 7.08455 12.8728 9.43921 12.8719C11.7951 12.8711 13.7143 10.9624 13.7126 8.62252C13.7109 6.27678 11.7981 4.3786 9.43709 4.37986V4.37944Z" fill="#080E1E"/>
<path d="M13.5916 13.1086C13.5992 12.9004 13.7676 12.7441 13.9775 12.7502C14.1835 12.7558 14.3503 12.9284 14.3463 13.1314C14.3417 13.3437 14.1601 13.5102 13.9456 13.4995C13.7376 13.4889 13.584 13.3193 13.5916 13.1091V13.1086Z" fill="#080E1E"/>
<path d="M9.3485 9.75C8.62804 9.74892 8.12109 9.1864 8.35639 8.64188C8.39137 8.5609 8.37729 8.51448 8.30097 8.45761C8.09156 8.29998 7.88896 8.13659 7.68681 7.97319C7.51828 7.83715 7.50556 7.68456 7.64684 7.56831C7.78856 7.45171 7.99798 7.46142 8.17105 7.59638C8.37729 7.7569 8.58216 7.91813 8.78295 8.0826C8.84836 8.13623 8.90196 8.15602 9.00099 8.12543C9.22994 8.05489 9.46934 8.05525 9.69874 8.12507C9.79641 8.15458 9.85001 8.13731 9.91724 8.08368C10.4119 7.68816 10.9098 7.29551 11.4063 6.90215C11.4422 6.87371 11.4767 6.84348 11.5162 6.81793C11.6607 6.72364 11.8529 6.72832 11.9791 6.82693C12.1045 6.92482 12.1163 7.08173 11.9955 7.19258C11.9033 7.27716 11.7983 7.35382 11.6984 7.43299C11.2741 7.76949 10.8517 8.1078 10.4224 8.4407C10.3361 8.50764 10.3102 8.5591 10.3515 8.65772C10.5768 9.19468 10.0608 9.75108 9.3485 9.75ZM9.35077 8.61741C9.14 8.61741 8.97419 8.74949 8.97646 8.9154C8.97873 9.07376 9.14272 9.2062 9.34169 9.21052C9.54565 9.21483 9.72191 9.07915 9.72463 8.91576C9.72736 8.75021 9.5611 8.61777 9.35077 8.61741Z" fill="#080E1E"/>
<path d="M9.81395 5.62363C9.81395 5.66637 9.81747 5.70946 9.81345 5.75186C9.7994 5.89386 9.65286 5.99451 9.45613 5.99933C9.26142 6.00416 9.09279 5.91006 9.07121 5.7715C9.05666 5.67844 9.05817 5.58331 9.06871 5.4899C9.08527 5.34341 9.25088 5.24518 9.45513 5.24966C9.66039 5.25414 9.80341 5.35651 9.81445 5.50851C9.81696 5.54677 9.81445 5.58538 9.81445 5.62398C9.81445 5.62398 9.81445 5.62398 9.81395 5.62398V5.62363Z" fill="#080E1E"/>
<path d="M12.8325 8.99951C12.7126 8.99306 12.5899 8.99753 12.4742 8.97868C12.2108 8.93553 12.0583 8.77336 12.0826 8.58043C12.1055 8.4014 12.2961 8.2665 12.5594 8.2546C12.7223 8.24716 12.8859 8.24914 13.0494 8.25261C13.3627 8.25906 13.5852 8.41082 13.59 8.61466C13.5949 8.817 13.3738 8.9767 13.0654 8.99207C12.9885 8.99604 12.9108 8.99257 12.8332 8.99257C12.8332 8.99455 12.8332 8.99654 12.8332 8.99902L12.8325 8.99951Z" fill="#080E1E"/>
<path d="M9.06188 12.0063C9.06188 11.9212 9.05887 11.836 9.06239 11.7509C9.07493 11.4702 9.22044 11.2657 9.41562 11.2513C9.60879 11.2369 9.78139 11.4242 9.80447 11.6995C9.82002 11.8841 9.81751 12.0742 9.80748 12.2602C9.79192 12.5499 9.62284 12.7578 9.42515 12.7503C9.22596 12.7427 9.07292 12.5272 9.06188 12.2355C9.05887 12.1593 9.06188 12.0825 9.06188 12.0056V12.0063Z" fill="#080E1E"/>
<path d="M6.4217 8.24951C6.47335 8.25302 6.5257 8.25051 6.57701 8.26055C6.70146 8.28412 6.78813 8.42254 6.79507 8.60059C6.80235 8.79067 6.72677 8.95668 6.59781 8.98226C6.48375 9.00483 6.36449 9.00483 6.25009 8.98477C6.12147 8.9627 6.03619 8.79217 6.0407 8.61313C6.04555 8.42405 6.14262 8.2771 6.27921 8.25804C6.32636 8.25152 6.3742 8.25704 6.4217 8.25704V8.24951Z" fill="#080E1E"/>
</svg>
