<svg width="9" height="11" viewBox="0 0 9 11" fill="none" xmlns="http://www.w3.org/2000/svg">
<path d="M8.10929 10.9997H0.890566C0.783463 10.9691 0.669318 10.9508 0.570138 10.905C0.1787 10.725 0 10.4226 0 10.0266C0 8.17209 0 6.31757 0 4.46279C0 4.19213 0.0730646 4.12433 0.364149 4.12433C0.573366 4.12433 0.782583 4.12433 1.00148 4.12433C1.00148 3.82758 1.00207 3.54535 1.00148 3.26313C0.999723 2.38578 1.31047 1.61443 1.98331 0.989174C2.90087 0.136845 4.01796 -0.169864 5.29381 0.0892245C6.84019 0.403198 7.97167 1.67927 7.99426 3.14529C7.99866 3.43155 7.9969 3.71808 7.99808 4.00461C7.99808 4.04254 7.99808 4.08048 7.99808 4.1246C8.24162 4.1246 8.46786 4.1238 8.6941 4.12487C8.90097 4.12595 8.99927 4.21231 8.99927 4.39876C9.00015 6.28556 9.00044 8.17236 8.99897 10.0592C8.99897 10.3712 8.8728 10.6389 8.58758 10.8146C8.44644 10.9015 8.27009 10.9395 8.10929 10.9997ZM6.49746 4.12111C6.49746 3.80848 6.49864 3.50473 6.49717 3.20125C6.49512 2.79042 6.36454 2.41591 6.08402 2.09575C5.57844 1.51865 4.91733 1.27194 4.1236 1.41426C3.32194 1.55766 2.79875 2.01315 2.57428 2.73473C2.43519 3.18268 2.51794 3.64571 2.50679 4.10227C2.50679 4.10738 2.51559 4.11276 2.52293 4.12111H6.49746ZM4.50007 9.16782C4.64444 9.16782 4.7891 9.16782 4.93347 9.16782C4.9414 9.16782 4.94902 9.16782 4.95695 9.16782C5.16851 9.15948 5.26769 9.05267 5.24392 8.85976C5.19609 8.46884 5.14709 8.07792 5.10396 7.68647C5.09985 7.6488 5.12039 7.59526 5.15032 7.57024C5.4059 7.35447 5.52298 7.09484 5.48835 6.77414C5.43143 6.24412 4.84662 5.8524 4.28499 5.98154C3.88797 6.07274 3.62418 6.30251 3.53057 6.66921C3.44078 7.02166 3.55464 7.3246 3.84924 7.57051C3.87917 7.59553 3.89942 7.64934 3.89531 7.687C3.85218 8.07846 3.80317 8.46938 3.75534 8.8603C3.73187 9.05293 3.83105 9.16217 4.04261 9.16755C4.1949 9.17131 4.34778 9.16782 4.50007 9.16782Z" fill="white"/>
</svg>
