<svg width="20" height="16" viewBox="0 0 20 16" fill="none" xmlns="http://www.w3.org/2000/svg">
<path d="M16.7766 4.72381C16.9833 4.66476 17.1309 4.60571 17.308 4.54666C17.3966 4.66476 17.4852 4.78285 17.5738 4.96C17.4261 5.07809 17.2785 5.25523 17.1014 5.3438C16.7766 5.4619 16.6585 5.66857 16.688 6.02285C16.688 6.17047 16.688 6.34761 16.6585 6.52476C16.7766 6.49523 16.8652 6.43618 16.9538 6.43618C17.0718 6.43618 17.1899 6.52476 17.249 6.61333C17.308 6.67237 17.2785 6.84952 17.249 6.90857C17.1899 6.99714 17.1014 7.08571 16.9833 7.11523C16.629 7.23333 16.5699 7.49904 16.5699 7.8238C16.5699 8.05999 16.5699 8.29618 16.5109 8.53237C16.4519 8.85713 16.2452 9.03428 15.9499 9.09332C15.6547 9.15237 15.5957 8.91618 15.5661 8.70952C15.3004 7.58761 15.0052 6.43618 14.7395 5.31428C14.7099 5.19619 14.6804 5.04857 14.6214 4.90095C14.5328 4.93047 14.4442 4.96 14.3852 5.01904C13.529 5.4619 12.6728 5.90476 11.7871 6.31809C11.6099 6.40666 11.5214 6.52476 11.4919 6.7019C11.4328 7.05618 11.4033 7.41047 11.3147 7.76475C11.3147 7.85333 11.1966 8.00095 11.1376 8.00095C11.0195 8.00095 10.8719 7.91237 10.8423 7.8238C10.5766 6.81999 9.98614 6.05238 9.27757 5.37333C9.27757 5.37333 9.27757 5.3438 9.24805 5.31428C9.30709 5.04857 9.45471 4.98952 9.72043 5.07809C10.1042 5.22571 10.5471 5.4619 10.9309 5.37333C11.2852 5.31428 11.6099 4.90095 11.9347 4.66476C12.4957 4.25142 13.0861 3.80857 13.6766 3.36571C13.3814 3.1 13.0861 2.86381 12.7909 2.59809C12.1119 2.03714 11.4328 1.47619 10.7538 0.885714C10.5766 0.738095 10.3404 0.590476 10.4585 0.295238C10.5471 0.0885713 10.9899 -0.0590476 11.2557 0.0295238C11.5509 0.147619 11.8461 0.265714 12.1414 0.383809C12.3185 0.472381 12.4366 0.472381 12.6138 0.324762C12.7909 0.206666 12.9976 0.118095 13.2338 0C13.3223 0.147619 13.4109 0.265714 13.4995 0.413333C13.4109 0.531428 13.2928 0.649523 13.1747 0.767618C13.4404 0.885713 13.7061 1.00381 13.9719 1.09238C14.0309 1.09238 14.149 1.09238 14.208 1.03333C14.3557 0.944761 14.5033 0.85619 14.6509 0.767618C14.828 0.679047 14.9757 0.62 15.0938 0.85619C15.2414 1.06286 15.0938 1.15143 15.0052 1.26952C14.9461 1.32857 14.9166 1.35809 14.828 1.44667C15.2119 1.59428 15.5661 1.77143 15.9204 1.88952C16.009 1.88952 16.1271 1.86 16.2157 1.80095C17.0128 1.38762 17.8099 0.944761 18.6366 0.531428C18.9023 0.383809 19.2271 0.324762 19.5518 0.295238C19.9061 0.295238 20.1128 0.560952 19.9357 0.885714C19.788 1.15143 19.5814 1.38762 19.3747 1.59428C18.6957 2.12571 17.9576 2.62762 17.249 3.12952C17.0128 3.30666 16.8652 3.45428 16.8947 3.74952C16.8947 4.01523 16.8947 4.28095 16.8652 4.60571L16.7766 4.72381Z" fill="#080E1E"/>
<path d="M12.4955 3.69061C12.2888 3.86776 12.0821 3.98585 11.8459 4.16299C10.4288 2.71633 8.71642 1.97823 6.70881 2.12585C5.20309 2.21442 3.87452 2.8049 2.78214 3.86776C0.508812 6.05252 0.18405 9.44775 1.95548 12.0163C3.69738 14.5554 7.00404 15.4411 9.77928 14.2011C12.3183 13.0497 14.3555 9.89061 13.1155 6.22966C13.3517 6.11156 13.5583 5.99347 13.7945 5.87537C14.8574 8.11918 14.4736 12.1049 11.1964 14.3487C7.94881 16.5925 3.52024 15.7658 1.27643 12.5182C-0.967377 9.27061 -0.170235 4.81252 3.01833 2.56871C6.26595 0.265855 10.4583 1.18109 12.4955 3.66109V3.69061Z" fill="#080E1E"/>
<path d="M7.41762 7.73449C8.03762 7.3802 8.59857 7.02591 9.18905 6.70115C9.57286 6.49449 9.75 6.55353 9.92714 6.90782C10.0452 7.14401 9.98619 7.32115 9.75 7.43925C9.13 7.79353 8.53952 8.14782 7.89 8.5021C7.97857 8.64972 8.03762 8.79734 8.09667 8.91544C8.27381 9.18115 8.09667 9.32877 7.91952 9.47639C7.68333 9.62401 7.44714 9.68306 7.32905 9.38782C7.18143 9.06306 7.00429 8.97448 6.67953 9.18115C6.38429 9.38782 6.23667 9.1221 6.11857 8.88591C6.00048 8.64972 6.03 8.47258 6.23667 8.38401C6.62048 8.20687 6.53191 8.0002 6.35476 7.73449C5.97096 7.11449 5.61667 6.46496 5.23286 5.81544C5.02619 5.46115 5.08524 5.31354 5.41 5.13639C5.70524 4.98877 5.85286 5.0183 6.03 5.34306C6.47286 6.11068 6.91572 6.8783 7.3881 7.67544L7.41762 7.73449Z" fill="#080E1E"/>
<path d="M7.65375 13.5802C7.65375 13.5802 7.65375 13.7573 7.65375 13.8459C7.65375 14.1411 7.50613 14.2887 7.21089 14.2887C6.8566 14.2887 6.70898 14.2002 6.70898 13.8459C6.70898 13.6982 6.70898 13.5211 6.70898 13.3735C6.70898 12.9602 6.82708 12.8716 7.24041 12.8716C7.53565 12.8716 7.65375 12.9897 7.65375 13.2849C7.65375 13.3735 7.65375 13.4916 7.65375 13.5802Z" fill="#080E1E"/>
<path d="M2.01596 8.91693C2.01596 8.91693 1.80929 8.91693 1.72072 8.91693C1.42549 8.91693 1.33691 8.73979 1.33691 8.5036C1.33691 8.23788 1.33691 8.00169 1.6912 7.97217C1.86834 7.97217 2.04549 7.97217 2.1931 7.97217C2.66548 7.97217 2.78358 8.09026 2.72453 8.56264C2.72453 8.79883 2.57691 8.88741 2.37025 8.88741C2.25215 8.88741 2.13406 8.88741 1.98644 8.88741L2.01596 8.91693Z" fill="#080E1E"/>
<path d="M10.96 10.9832C11.019 10.4223 11.3438 10.2451 11.7571 10.4813C11.8752 10.5404 11.9638 10.5994 12.0819 10.6585C12.4657 10.8947 12.5247 11.1308 12.2295 11.4556C12.2295 11.4556 12.2 11.5147 12.1704 11.5147C11.8457 11.7213 11.639 11.3966 11.3733 11.2785C11.1962 11.1899 11.0781 11.0127 10.9895 10.9242L10.96 10.9832Z" fill="#080E1E"/>
<path d="M4.55381 4.63424C4.55381 4.63424 4.40619 4.54567 4.31762 4.45709C4.19953 4.27995 4.08143 4.10281 3.99286 3.89614C3.81572 3.6009 3.99286 3.45329 4.22905 3.30567C4.49477 3.15805 4.67191 3.18757 4.81953 3.45329C4.9081 3.6009 4.99667 3.77805 5.08524 3.92567C5.29191 4.27995 5.02619 4.66376 4.55381 4.66376V4.63424Z" fill="#080E1E"/>
<path d="M9.80949 13.6103C9.80949 13.6103 9.5733 13.4626 9.51425 13.3741C9.42568 13.2265 9.33711 13.0788 9.24854 12.9312C9.01235 12.5474 9.10092 12.3112 9.54378 12.1636C9.77997 12.075 9.92759 12.1636 10.0162 12.3703C10.1343 12.695 10.5771 12.9312 10.2819 13.315C10.1933 13.4331 9.98663 13.4922 9.80949 13.6103Z" fill="#080E1E"/>
<path d="M4.64246 12.1929C5.08532 12.1929 5.32151 12.6062 5.11484 12.9605C5.05579 13.0786 4.96722 13.1967 4.90817 13.3148C4.67198 13.7281 4.43579 13.7576 4.11103 13.4624C4.08151 13.4624 4.02246 13.4033 4.02246 13.3738C4.02246 13.2262 4.02246 13.0195 4.11103 12.9014C4.25865 12.6357 4.3177 12.2814 4.67198 12.2224L4.64246 12.1929Z" fill="#080E1E"/>
<path d="M2.36852 5.04834C2.75233 5.31405 3.07709 5.4912 3.34281 5.72739C3.40185 5.78643 3.28376 6.1112 3.19519 6.28834C3.13614 6.37691 2.89995 6.40643 2.78185 6.37691C2.54566 6.28834 2.339 6.17024 2.13233 5.9931C2.04376 5.90453 1.95519 5.69786 2.01424 5.60929C2.07328 5.43215 2.2209 5.28453 2.39805 5.07786L2.36852 5.04834Z" fill="#080E1E"/>
<path d="M2.4274 11.6614C2.27978 11.4842 2.13216 11.3366 2.07311 11.1595C2.04359 11.0414 2.10263 10.8642 2.1912 10.7757C2.3093 10.628 2.51597 10.569 2.66359 10.4509C3.04739 10.2442 3.19501 10.3033 3.40168 10.6576C3.51978 10.8642 3.49025 11.0414 3.28359 11.189C3.04739 11.3366 2.78168 11.4842 2.45692 11.6614H2.4274Z" fill="#080E1E"/>
<path d="M12.3484 7.94141C12.3484 7.94141 12.5256 7.94141 12.6142 7.94141C12.9094 7.94141 13.0275 8.08902 13.0275 8.38426C13.0275 8.6795 12.9389 8.85664 12.6142 8.88617C12.4075 8.88617 12.2008 8.88617 11.9942 8.88617C11.758 8.88617 11.6104 8.76807 11.6104 8.50236C11.6104 8.1776 11.758 7.94141 12.0237 7.94141C12.1123 7.94141 12.2304 7.94141 12.3189 7.94141H12.3484Z" fill="#080E1E"/>
<path d="M9.80917 4.63524C9.2187 4.51714 8.95299 4.31047 9.33679 3.80857C9.36632 3.74952 9.39584 3.69048 9.45489 3.63143C9.69108 3.18857 9.8387 3.15905 10.1635 3.33619C10.5177 3.54286 10.5177 3.66095 10.252 4.10381C10.193 4.2219 10.1044 4.36952 10.0158 4.48762C9.95679 4.57619 9.8387 4.60571 9.80917 4.63524Z" fill="#080E1E"/>
<path d="M6.73828 3.24789C6.73828 3.24789 6.73828 3.07075 6.73828 2.98218C6.73828 2.65742 6.8859 2.56885 7.18114 2.56885C7.47638 2.56885 7.65352 2.65742 7.68304 2.98218C7.68304 3.1298 7.68304 3.27742 7.68304 3.42504C7.68304 3.89742 7.59447 3.98599 7.21066 3.98599C6.82685 3.98599 6.73828 3.89742 6.73828 3.42504C6.73828 3.36599 6.73828 3.30694 6.73828 3.24789Z" fill="#080E1E"/>
</svg>
